<ttFont>
    <TTGlyph name="A" xMin="-16" yMin="-18" xMax="1509" yMax="1439">
      <contour>
        <pt x="211" y="135" on="1"/>
        <pt x="222" y="136" on="0"/>
        <pt x="327" y="136" on="0"/>
        <pt x="401" y="141" on="0"/>
        <pt x="439" y="148" on="1"/>
        <pt x="525" y="162" on="0"/>
        <pt x="575" y="190" on="1"/>
        <pt x="398" y="71" on="0"/>
        <pt x="279" y="25" on="0"/>
        <pt x="236" y="16" on="1"/>
        <pt x="151" y="0" on="0"/>
        <pt x="22" y="0" on="1"/>
        <pt x="-16" y="0" on="1"/>
        <pt x="-13" y="4" on="1"/>
        <pt x="20" y="33" on="0"/>
        <pt x="86" y="90" on="0"/>
        <pt x="198" y="203" on="0"/>
        <pt x="340" y="382" on="0"/>
        <pt x="471" y="570" on="0"/>
        <pt x="596" y="761" on="0"/>
        <pt x="726" y="956" on="0"/>
        <pt x="861" y="1151" on="0"/>
        <pt x="931" y="1267" on="0"/>
        <pt x="945" y="1292" on="0"/>
        <pt x="955" y="1303" on="1"/>
        <pt x="879" y="1303" on="1"/>
        <pt x="692" y="1303" on="0"/>
        <pt x="580" y="1261" on="1"/>
        <pt x="751" y="1386" on="0"/>
        <pt x="862" y="1416" on="1"/>
        <pt x="936" y="1436" on="0"/>
        <pt x="1108" y="1439" on="0"/>
        <pt x="1181" y="1439" on="1"/>
        <pt x="1202" y="1146" on="0"/>
        <pt x="1240" y="567" on="0"/>
        <pt x="1272" y="247" on="0"/>
        <pt x="1275" y="193" on="0"/>
        <pt x="1284" y="171" on="1"/>
        <pt x="1302" y="122" on="0"/>
        <pt x="1366" y="122" on="1"/>
        <pt x="1430" y="122" on="0"/>
        <pt x="1509" y="167" on="1"/>
        <pt x="1477" y="146" on="0"/>
        <pt x="1383" y="83" on="0"/>
        <pt x="1331" y="54" on="1"/>
        <pt x="1205" y="-18" on="0"/>
        <pt x="1140" y="-18" on="1"/>
        <pt x="1071" y="-18" on="0"/>
        <pt x="1056" y="50" on="1"/>
        <pt x="1034" y="146" on="0"/>
        <pt x="1019" y="462" on="0"/>
        <pt x="1008" y="586" on="1"/>
        <pt x="905" y="522" on="0"/>
        <pt x="568" y="530" on="1"/>
        <pt x="407" y="309" on="0"/>
      </contour>
      <contour>
        <pt x="875" y="665" on="1"/>
        <pt x="938" y="665" on="0"/>
        <pt x="1002" y="669" on="1"/>
        <pt x="983" y="901" on="0"/>
        <pt x="968" y="1116" on="1"/>
        <pt x="825" y="898" on="0"/>
        <pt x="663" y="666" on="1"/>
        <pt x="675" y="669" on="0"/>
        <pt x="678" y="669" on="1"/>
      </contour>
    </TTGlyph>
    <TTGlyph name="AE" xMin="-16" yMin="0" xMax="2007" yMax="1439">
      <contour>
        <pt x="211" y="135" on="1"/>
        <pt x="222" y="136" on="0"/>
        <pt x="327" y="136" on="0"/>
        <pt x="401" y="141" on="0"/>
        <pt x="439" y="148" on="1"/>
        <pt x="525" y="162" on="0"/>
        <pt x="575" y="190" on="1"/>
        <pt x="400" y="72" on="0"/>
        <pt x="279" y="26" on="0"/>
        <pt x="236" y="17" on="1"/>
        <pt x="155" y="0" on="0"/>
        <pt x="22" y="0" on="1"/>
        <pt x="-16" y="0" on="1"/>
        <pt x="-13" y="4" on="1"/>
        <pt x="20" y="33" on="0"/>
        <pt x="86" y="90" on="0"/>
        <pt x="198" y="204" on="0"/>
        <pt x="340" y="382" on="0"/>
        <pt x="471" y="569" on="0"/>
        <pt x="596" y="761" on="0"/>
        <pt x="726" y="956" on="0"/>
        <pt x="861" y="1151" on="0"/>
        <pt x="931" y="1267" on="0"/>
        <pt x="945" y="1292" on="0"/>
        <pt x="955" y="1303" on="1"/>
        <pt x="879" y="1303" on="1"/>
        <pt x="692" y="1303" on="0"/>
        <pt x="580" y="1261" on="1"/>
        <pt x="741" y="1376" on="0"/>
        <pt x="836" y="1408" on="1"/>
        <pt x="932" y="1439" on="0"/>
        <pt x="1129" y="1439" on="1"/>
        <pt x="2007" y="1439" on="1"/>
        <pt x="1985" y="1435" on="0"/>
        <pt x="1875" y="1351" on="0"/>
        <pt x="1853" y="1336" on="1"/>
        <pt x="1802" y="1303" on="0"/>
        <pt x="1781" y="1303" on="1"/>
        <pt x="1191" y="1303" on="1"/>
        <pt x="1222" y="818" on="1"/>
        <pt x="1699" y="818" on="1"/>
        <pt x="1683" y="814" on="0"/>
        <pt x="1591" y="722" on="0"/>
        <pt x="1541" y="682" on="0"/>
        <pt x="1523" y="682" on="1"/>
        <pt x="1232" y="682" on="1"/>
        <pt x="1264" y="276" on="0"/>
        <pt x="1287" y="199" on="0"/>
        <pt x="1302" y="180" on="1"/>
        <pt x="1334" y="136" on="0"/>
        <pt x="1388" y="136" on="1"/>
        <pt x="1753" y="136" on="1"/>
        <pt x="1812" y="136" on="0"/>
        <pt x="1946" y="188" on="1"/>
        <pt x="1877" y="125" on="0"/>
        <pt x="1695" y="39" on="1"/>
        <pt x="1612" y="0" on="0"/>
        <pt x="1586" y="0" on="1"/>
        <pt x="1222" y="0" on="1"/>
        <pt x="1150" y="0" on="0"/>
        <pt x="1119" y="18" on="1"/>
        <pt x="1063" y="50" on="0"/>
        <pt x="1052" y="114" on="1"/>
        <pt x="1045" y="149" on="0"/>
        <pt x="1039" y="222" on="0"/>
        <pt x="1028" y="339" on="0"/>
        <pt x="1015" y="503" on="0"/>
        <pt x="1008" y="586" on="1"/>
        <pt x="905" y="522" on="0"/>
        <pt x="568" y="530" on="1"/>
        <pt x="407" y="309" on="0"/>
      </contour>
      <contour>
        <pt x="875" y="665" on="1"/>
        <pt x="938" y="665" on="0"/>
        <pt x="1002" y="669" on="1"/>
        <pt x="983" y="901" on="0"/>
        <pt x="968" y="1116" on="1"/>
        <pt x="825" y="898" on="0"/>
        <pt x="663" y="666" on="1"/>
        <pt x="675" y="669" on="0"/>
        <pt x="678" y="669" on="1"/>
      </contour>
    </TTGlyph>
    <TTGlyph name="AEacute" xMin="-16" yMin="0" xMax="2007" yMax="1950">
      <component glyphName="AE" x="0" y="0" flags="0x1204"/>
      <component glyphName="acute" x="946" y="247" flags="0x1004"/>
    </TTGlyph>
    <TTGlyph name="Aacute" xMin="-16" yMin="-18" xMax="1509" yMax="1955">
      <component glyphName="A" x="0" y="0" flags="0x1004"/>
      <component glyphName="acute" x="828" y="252" flags="0x1004"/>
    </TTGlyph>
    <TTGlyph name="Abreve" xMin="-16" yMin="-18" xMax="1585" yMax="1895">
      <component glyphName="A" x="0" y="0" flags="0x1204"/>
      <component glyphName="breve" x="786" y="268" flags="0x1004"/>
    </TTGlyph>
    <TTGlyph name="Acircumflex" xMin="-16" yMin="-18" xMax="1509" yMax="1902">
      <component glyphName="A" x="0" y="0" flags="0x1004"/>
      <component glyphName="circumflex" x="745" y="274" flags="0x1004"/>
    </TTGlyph>
    <TTGlyph name="Adieresis" xMin="-16" yMin="-18" xMax="1563" yMax="1817">
      <component glyphName="A" x="0" y="0" flags="0x1004"/>
      <component glyphName="dieresis" x="762" y="295" flags="0x1004"/>
    </TTGlyph>
    <TTGlyph name="Agrave" xMin="-16" yMin="-18" xMax="1509" yMax="1991">
      <component glyphName="A" x="0" y="0" flags="0x1004"/>
      <component glyphName="grave" x="699" y="285" flags="0x1004"/>
    </TTGlyph>
    <TTGlyph name="Amacron" xMin="-16" yMin="-18" xMax="1597" yMax="1651">
      <component glyphName="A" x="0" y="0" flags="0x1204"/>
      <component glyphName="macron" x="649" y="188" flags="0x1004"/>
    </TTGlyph>
    <TTGlyph name="Aogonek" xMin="-16" yMin="-416" xMax="1509" yMax="1439">
      <contour>
        <pt x="211" y="135" on="1"/>
        <pt x="222" y="136" on="0"/>
        <pt x="327" y="136" on="0"/>
        <pt x="401" y="141" on="0"/>
        <pt x="439" y="148" on="1"/>
        <pt x="525" y="162" on="0"/>
        <pt x="575" y="190" on="1"/>
        <pt x="398" y="71" on="0"/>
        <pt x="279" y="25" on="0"/>
        <pt x="236" y="16" on="1"/>
        <pt x="151" y="0" on="0"/>
        <pt x="22" y="0" on="1"/>
        <pt x="-16" y="0" on="1"/>
        <pt x="-13" y="4" on="1"/>
        <pt x="20" y="33" on="0"/>
        <pt x="86" y="90" on="0"/>
        <pt x="198" y="203" on="0"/>
        <pt x="340" y="382" on="0"/>
        <pt x="471" y="570" on="0"/>
        <pt x="596" y="761" on="0"/>
        <pt x="726" y="956" on="0"/>
        <pt x="861" y="1151" on="0"/>
        <pt x="931" y="1267" on="0"/>
        <pt x="945" y="1292" on="0"/>
        <pt x="955" y="1303" on="1"/>
        <pt x="879" y="1303" on="1"/>
        <pt x="692" y="1303" on="0"/>
        <pt x="580" y="1261" on="1"/>
        <pt x="751" y="1386" on="0"/>
        <pt x="862" y="1416" on="1"/>
        <pt x="936" y="1436" on="0"/>
        <pt x="1108" y="1439" on="0"/>
        <pt x="1181" y="1439" on="1"/>
        <pt x="1202" y="1146" on="0"/>
        <pt x="1240" y="567" on="0"/>
        <pt x="1272" y="247" on="0"/>
        <pt x="1275" y="193" on="0"/>
        <pt x="1284" y="171" on="1"/>
        <pt x="1302" y="122" on="0"/>
        <pt x="1366" y="122" on="1"/>
        <pt x="1430" y="122" on="0"/>
        <pt x="1509" y="167" on="1"/>
        <pt x="1480" y="148" on="0"/>
        <pt x="1397" y="93" on="0"/>
        <pt x="1350" y="66" on="1"/>
        <pt x="1237" y="-1" on="0"/>
        <pt x="1171" y="-15" on="1"/>
        <pt x="1128" y="-75" on="0"/>
        <pt x="1128" y="-166" on="0"/>
        <pt x="1150" y="-218" on="0"/>
        <pt x="1168" y="-238" on="1"/>
        <pt x="1208" y="-279" on="0"/>
        <pt x="1269" y="-279" on="1"/>
        <pt x="1320" y="-279" on="0"/>
        <pt x="1424" y="-222" on="1"/>
        <pt x="1449" y="-208" on="0"/>
        <pt x="1471" y="-198" on="1"/>
        <pt x="1471" y="-199" on="1"/>
        <pt x="1459" y="-222" on="0"/>
        <pt x="1293" y="-314" on="1"/>
        <pt x="1265" y="-330" on="0"/>
        <pt x="1221" y="-355" on="0"/>
        <pt x="1196" y="-368" on="1"/>
        <pt x="1106" y="-416" on="0"/>
        <pt x="1009" y="-416" on="0"/>
        <pt x="961" y="-394" on="0"/>
        <pt x="944" y="-374" on="1"/>
        <pt x="907" y="-334" on="0"/>
        <pt x="907" y="-275" on="1"/>
        <pt x="907" y="-136" on="0"/>
        <pt x="1085" y="-3" on="1"/>
        <pt x="1065" y="11" on="0"/>
        <pt x="1052" y="63" on="0"/>
        <pt x="1031" y="217" on="0"/>
        <pt x="1019" y="462" on="0"/>
        <pt x="1008" y="586" on="1"/>
        <pt x="905" y="522" on="0"/>
        <pt x="568" y="530" on="1"/>
        <pt x="407" y="309" on="0"/>
      </contour>
      <contour>
        <pt x="875" y="665" on="1"/>
        <pt x="938" y="665" on="0"/>
        <pt x="1002" y="669" on="1"/>
        <pt x="983" y="901" on="0"/>
        <pt x="968" y="1116" on="1"/>
        <pt x="825" y="898" on="0"/>
        <pt x="663" y="666" on="1"/>
        <pt x="675" y="669" on="0"/>
        <pt x="678" y="669" on="1"/>
      </contour>
    </TTGlyph>
    <TTGlyph name="Aring" xMin="-18" yMin="-18" xMax="1507" yMax="1852">
      <contour>
        <pt x="578" y="1261" on="1"/>
        <pt x="713" y="1359" on="0"/>
        <pt x="800" y="1395" on="1"/>
        <pt x="787" y="1420" on="0"/>
        <pt x="787" y="1500" on="0"/>
        <pt x="837" y="1594" on="0"/>
        <pt x="918" y="1682" on="0"/>
        <pt x="1021" y="1760" on="0"/>
        <pt x="1075" y="1789" on="1"/>
        <pt x="1192" y="1852" on="0"/>
        <pt x="1274" y="1852" on="1"/>
        <pt x="1345" y="1852" on="0"/>
        <pt x="1392" y="1806" on="1"/>
        <pt x="1441" y="1760" on="0"/>
        <pt x="1441" y="1649" on="0"/>
        <pt x="1397" y="1565" on="0"/>
        <pt x="1361" y="1525" on="1"/>
        <pt x="1291" y="1447" on="0"/>
        <pt x="1182" y="1384" on="1"/>
        <pt x="1202" y="1105" on="0"/>
        <pt x="1239" y="553" on="0"/>
        <pt x="1270" y="247" on="0"/>
        <pt x="1273" y="193" on="0"/>
        <pt x="1282" y="171" on="1"/>
        <pt x="1300" y="122" on="0"/>
        <pt x="1364" y="122" on="1"/>
        <pt x="1428" y="122" on="0"/>
        <pt x="1507" y="167" on="1"/>
        <pt x="1475" y="146" on="0"/>
        <pt x="1381" y="83" on="0"/>
        <pt x="1329" y="54" on="1"/>
        <pt x="1203" y="-18" on="0"/>
        <pt x="1138" y="-18" on="1"/>
        <pt x="1069" y="-18" on="0"/>
        <pt x="1054" y="50" on="1"/>
        <pt x="1032" y="146" on="0"/>
        <pt x="1017" y="462" on="0"/>
        <pt x="1006" y="586" on="1"/>
        <pt x="903" y="522" on="0"/>
        <pt x="566" y="530" on="1"/>
        <pt x="405" y="309" on="0"/>
        <pt x="209" y="135" on="1"/>
        <pt x="219" y="136" on="0"/>
        <pt x="325" y="136" on="0"/>
        <pt x="399" y="141" on="0"/>
        <pt x="437" y="148" on="1"/>
        <pt x="523" y="162" on="0"/>
        <pt x="573" y="190" on="1"/>
        <pt x="396" y="71" on="0"/>
        <pt x="277" y="25" on="0"/>
        <pt x="234" y="16" on="1"/>
        <pt x="149" y="0" on="0"/>
        <pt x="20" y="0" on="1"/>
        <pt x="-18" y="0" on="1"/>
        <pt x="-15" y="4" on="1"/>
        <pt x="18" y="33" on="0"/>
        <pt x="84" y="90" on="0"/>
        <pt x="196" y="203" on="0"/>
        <pt x="338" y="382" on="0"/>
        <pt x="469" y="570" on="0"/>
        <pt x="594" y="761" on="0"/>
        <pt x="724" y="956" on="0"/>
        <pt x="859" y="1151" on="0"/>
        <pt x="929" y="1267" on="0"/>
        <pt x="943" y="1292" on="0"/>
        <pt x="953" y="1303" on="1"/>
        <pt x="877" y="1303" on="1"/>
        <pt x="690" y="1303" on="0"/>
      </contour>
      <contour>
        <pt x="873" y="665" on="1"/>
        <pt x="936" y="665" on="0"/>
        <pt x="1000" y="669" on="1"/>
        <pt x="981" y="901" on="0"/>
        <pt x="966" y="1116" on="1"/>
        <pt x="823" y="898" on="0"/>
        <pt x="661" y="666" on="1"/>
        <pt x="673" y="669" on="0"/>
        <pt x="676" y="669" on="1"/>
      </contour>
      <contour>
        <pt x="1180" y="1439" on="1"/>
        <pt x="1215" y="1496" on="0"/>
        <pt x="1215" y="1555" on="1"/>
        <pt x="1215" y="1621" on="0"/>
        <pt x="1174" y="1668" on="1"/>
        <pt x="1131" y="1717" on="0"/>
        <pt x="1065" y="1717" on="1"/>
        <pt x="1038" y="1717" on="0"/>
        <pt x="1024" y="1670" on="1"/>
        <pt x="1016" y="1642" on="0"/>
        <pt x="1016" y="1564" on="0"/>
        <pt x="1040" y="1505" on="0"/>
        <pt x="1062" y="1484" on="1"/>
        <pt x="1107" y="1441" on="0"/>
      </contour>
    </TTGlyph>
    <TTGlyph name="Atilde" xMin="-16" yMin="-18" xMax="1571" yMax="1800">
      <component glyphName="A" x="0" y="0" flags="0x1004"/>
      <component glyphName="tilde" x="589" y="277" flags="0x1004"/>
    </TTGlyph>
    <TTGlyph name="B" xMin="202" yMin="0" xMax="1354" yMax="1440">
      <contour>
        <pt x="352" y="1303" on="1"/>
        <pt x="556" y="1439" on="0"/>
        <pt x="578" y="1439" on="1"/>
        <pt x="1050" y="1440" on="1"/>
        <pt x="1182" y="1440" on="0"/>
        <pt x="1296" y="1392" on="0"/>
        <pt x="1354" y="1318" on="0"/>
        <pt x="1354" y="1176" on="0"/>
        <pt x="1292" y="1055" on="0"/>
        <pt x="1242" y="1006" on="1"/>
        <pt x="1177" y="942" on="0"/>
        <pt x="1012" y="846" on="1"/>
        <pt x="1203" y="825" on="0"/>
        <pt x="1268" y="698" on="1"/>
        <pt x="1291" y="653" on="0"/>
        <pt x="1291" y="523" on="0"/>
        <pt x="1228" y="392" on="0"/>
        <pt x="1123" y="273" on="0"/>
        <pt x="988" y="169" on="0"/>
        <pt x="916" y="128" on="1"/>
        <pt x="709" y="10" on="0"/>
        <pt x="538" y="2" on="1"/>
        <pt x="484" y="0" on="0"/>
        <pt x="430" y="0" on="1"/>
        <pt x="202" y="0" on="1"/>
        <pt x="262" y="66" on="0"/>
        <pt x="276" y="91" on="1"/>
        <pt x="298" y="129" on="0"/>
        <pt x="316" y="206" on="1"/>
        <pt x="572" y="1303" on="1"/>
      </contour>
      <contour>
        <pt x="659" y="845" on="1"/>
        <pt x="753" y="849" on="0"/>
        <pt x="917" y="849" on="0"/>
        <pt x="952" y="845" on="1"/>
        <pt x="1129" y="897" on="0"/>
        <pt x="1129" y="1115" on="1"/>
        <pt x="1129" y="1310" on="0"/>
        <pt x="837" y="1310" on="1"/>
        <pt x="801" y="1310" on="0"/>
        <pt x="767" y="1308" on="1"/>
      </contour>
      <contour>
        <pt x="1037" y="321" on="1"/>
        <pt x="1063" y="383" on="0"/>
        <pt x="1063" y="525" on="0"/>
        <pt x="1023" y="607" on="0"/>
        <pt x="955" y="661" on="0"/>
        <pt x="867" y="693" on="0"/>
        <pt x="818" y="701" on="1"/>
        <pt x="746" y="713" on="0"/>
        <pt x="629" y="713" on="1"/>
        <pt x="607" y="621" on="0"/>
        <pt x="565" y="439" on="0"/>
        <pt x="537" y="320" on="0"/>
        <pt x="514" y="263" on="0"/>
        <pt x="500" y="235" on="1"/>
        <pt x="473" y="183" on="0"/>
        <pt x="430" y="136" on="1"/>
        <pt x="709" y="136" on="1"/>
        <pt x="959" y="136" on="0"/>
      </contour>
    </TTGlyph>
    <TTGlyph name="C" xMin="219" yMin="-43" xMax="1698" yMax="1478">
      <contour>
        <pt x="1663" y="1442" on="0"/>
        <pt x="1698" y="1423" on="0"/>
        <pt x="1698" y="1407" on="0"/>
        <pt x="1662" y="1379" on="0"/>
        <pt x="1606" y="1342" on="0"/>
        <pt x="1539" y="1301" on="0"/>
        <pt x="1508" y="1283" on="1"/>
        <pt x="1434" y="1240" on="0"/>
        <pt x="1419" y="1235" on="1"/>
        <pt x="1422" y="1238" on="0"/>
        <pt x="1438" y="1249" on="0"/>
        <pt x="1447" y="1256" on="1"/>
        <pt x="1469" y="1273" on="0"/>
        <pt x="1469" y="1280" on="1"/>
        <pt x="1469" y="1287" on="0"/>
        <pt x="1424" y="1305" on="1"/>
        <pt x="1333" y="1341" on="0"/>
        <pt x="1011" y="1341" on="0"/>
        <pt x="739" y="1227" on="0"/>
        <pt x="644" y="1126" on="1"/>
        <pt x="448" y="919" on="0"/>
        <pt x="448" y="587" on="1"/>
        <pt x="448" y="368" on="0"/>
        <pt x="564" y="236" on="1"/>
        <pt x="686" y="97" on="0"/>
        <pt x="902" y="97" on="1"/>
        <pt x="1080" y="97" on="0"/>
        <pt x="1368" y="211" on="1"/>
        <pt x="1147" y="38" on="0"/>
        <pt x="848" y="-24" on="1"/>
        <pt x="753" y="-43" on="0"/>
        <pt x="556" y="-43" on="0"/>
        <pt x="389" y="27" on="0"/>
        <pt x="333" y="90" on="1"/>
        <pt x="219" y="217" on="0"/>
        <pt x="219" y="432" on="1"/>
        <pt x="219" y="712" on="0"/>
        <pt x="410" y="964" on="1"/>
        <pt x="585" y="1195" on="0"/>
        <pt x="868" y="1338" on="1"/>
        <pt x="1147" y="1478" on="0"/>
        <pt x="1421" y="1478" on="1"/>
        <pt x="1522" y="1478" on="0"/>
      </contour>
    </TTGlyph>
    <TTGlyph name="Cacute" xMin="219" yMin="-43" xMax="1698" yMax="1916">
      <component glyphName="C" x="0" y="0" flags="0x1204"/>
      <component glyphName="acute" x="966" y="213" flags="0x1004"/>
    </TTGlyph>
    <TTGlyph name="Ccaron" xMin="219" yMin="-43" xMax="1698" yMax="1891">
      <component glyphName="C" x="0" y="0" flags="0x1204"/>
      <component glyphName="caron" x="891" y="263" flags="0x1004"/>
    </TTGlyph>
    <TTGlyph name="Ccedilla" xMin="219" yMin="-501" xMax="1698" yMax="1478">
      <contour>
        <pt x="754" y="-38" on="1"/>
        <pt x="696" y="-43" on="0"/>
        <pt x="665" y="-43" on="1"/>
        <pt x="452" y="-43" on="0"/>
        <pt x="333" y="90" on="1"/>
        <pt x="219" y="217" on="0"/>
        <pt x="219" y="432" on="1"/>
        <pt x="219" y="712" on="0"/>
        <pt x="410" y="964" on="1"/>
        <pt x="585" y="1195" on="0"/>
        <pt x="868" y="1338" on="1"/>
        <pt x="1147" y="1478" on="0"/>
        <pt x="1421" y="1478" on="1"/>
        <pt x="1522" y="1478" on="0"/>
        <pt x="1663" y="1442" on="0"/>
        <pt x="1698" y="1423" on="0"/>
        <pt x="1698" y="1407" on="0"/>
        <pt x="1662" y="1379" on="0"/>
        <pt x="1606" y="1342" on="0"/>
        <pt x="1539" y="1301" on="0"/>
        <pt x="1508" y="1283" on="1"/>
        <pt x="1434" y="1240" on="0"/>
        <pt x="1419" y="1235" on="1"/>
        <pt x="1422" y="1238" on="0"/>
        <pt x="1438" y="1249" on="0"/>
        <pt x="1447" y="1256" on="1"/>
        <pt x="1469" y="1273" on="0"/>
        <pt x="1469" y="1280" on="1"/>
        <pt x="1469" y="1287" on="0"/>
        <pt x="1424" y="1305" on="1"/>
        <pt x="1333" y="1341" on="0"/>
        <pt x="1011" y="1341" on="0"/>
        <pt x="739" y="1227" on="0"/>
        <pt x="644" y="1126" on="1"/>
        <pt x="448" y="919" on="0"/>
        <pt x="448" y="587" on="1"/>
        <pt x="448" y="368" on="0"/>
        <pt x="564" y="236" on="1"/>
        <pt x="686" y="97" on="0"/>
        <pt x="902" y="97" on="1"/>
        <pt x="1080" y="97" on="0"/>
        <pt x="1368" y="211" on="1"/>
        <pt x="1190" y="71" on="0"/>
        <pt x="946" y="0" on="1"/>
        <pt x="867" y="-22" on="0"/>
        <pt x="791" y="-33" on="1"/>
        <pt x="702" y="-108" on="1"/>
        <pt x="726" y="-92" on="0"/>
        <pt x="806" y="-92" on="0"/>
        <pt x="842" y="-98" on="0"/>
        <pt x="858" y="-105" on="1"/>
        <pt x="894" y="-121" on="0"/>
        <pt x="894" y="-189" on="0"/>
        <pt x="844" y="-258" on="0"/>
        <pt x="764" y="-326" on="0"/>
        <pt x="665" y="-391" on="0"/>
        <pt x="616" y="-418" on="1"/>
        <pt x="537" y="-463" on="0"/>
        <pt x="459" y="-501" on="1"/>
        <pt x="491" y="-475" on="0"/>
        <pt x="561" y="-436" on="0"/>
        <pt x="610" y="-405" on="0"/>
        <pt x="637" y="-377" on="0"/>
        <pt x="647" y="-360" on="1"/>
        <pt x="669" y="-321" on="0"/>
        <pt x="669" y="-288" on="1"/>
        <pt x="669" y="-226" on="0"/>
        <pt x="574" y="-226" on="1"/>
        <pt x="543" y="-226" on="0"/>
        <pt x="479" y="-242" on="1"/>
        <pt x="521" y="-209" on="0"/>
        <pt x="608" y="-146" on="0"/>
        <pt x="705" y="-73" on="0"/>
      </contour>
    </TTGlyph>
    <TTGlyph name="Ccircumflex" xMin="219" yMin="-43" xMax="1698" yMax="1909">
      <component glyphName="C" x="0" y="0" flags="0x1204"/>
      <component glyphName="circumflex" x="867" y="281" flags="0x1004"/>
    </TTGlyph>
    <TTGlyph name="Cdotaccent" xMin="219" yMin="-43" xMax="1698" yMax="1837">
      <component glyphName="C" x="0" y="0" flags="0x1204"/>
      <component glyphName="dotaccent" x="1036" y="315" flags="0x1004"/>
    </TTGlyph>
    <TTGlyph name="D" xMin="193" yMin="0" xMax="1682" yMax="1440">
      <contour>
        <pt x="515" y="0" on="1"/>
        <pt x="193" y="0" on="1"/>
        <pt x="277" y="69" on="0"/>
        <pt x="315" y="206" on="1"/>
        <pt x="326" y="245" on="0"/>
        <pt x="335" y="285" on="1"/>
        <pt x="573" y="1303" on="1"/>
        <pt x="353" y="1303" on="1"/>
        <pt x="375" y="1311" on="0"/>
        <pt x="437" y="1356" on="0"/>
        <pt x="470" y="1380" on="1"/>
        <pt x="552" y="1439" on="0"/>
        <pt x="579" y="1439" on="1"/>
        <pt x="1023" y="1440" on="1"/>
        <pt x="1293" y="1440" on="0"/>
        <pt x="1470" y="1337" on="1"/>
        <pt x="1682" y="1213" on="0"/>
        <pt x="1682" y="956" on="1"/>
        <pt x="1682" y="675" on="0"/>
        <pt x="1497" y="447" on="1"/>
        <pt x="1327" y="238" on="0"/>
        <pt x="1052" y="117" on="1"/>
        <pt x="787" y="0" on="0"/>
      </contour>
      <contour>
        <pt x="1371" y="422" on="0"/>
        <pt x="1461" y="687" on="0"/>
        <pt x="1461" y="950" on="0"/>
        <pt x="1402" y="1095" on="0"/>
        <pt x="1301" y="1196" on="0"/>
        <pt x="1166" y="1258" on="0"/>
        <pt x="1089" y="1275" on="1"/>
        <pt x="962" y="1303" on="0"/>
        <pt x="767" y="1303" on="1"/>
        <pt x="542" y="339" on="1"/>
        <pt x="524" y="262" on="0"/>
        <pt x="508" y="233" on="1"/>
        <pt x="482" y="186" on="0"/>
        <pt x="431" y="133" on="1"/>
        <pt x="763" y="133" on="1"/>
        <pt x="1099" y="133" on="0"/>
        <pt x="1283" y="328" on="1"/>
      </contour>
    </TTGlyph>
    <TTGlyph name="Dcaron" xMin="193" yMin="0" xMax="1682" yMax="1913">
      <component glyphName="D" x="0" y="0" flags="0x1204"/>
      <component glyphName="caron" x="868" y="285" flags="0x1004"/>
    </TTGlyph>
    <TTGlyph name="Dcroat" xMin="194" yMin="0" xMax="1683" yMax="1440">
      <component glyphName="Eth" x="0" y="0" flags="0x1204"/>
    </TTGlyph>
    <TTGlyph name="E" xMin="174" yMin="0" xMax="1432" yMax="1439">
      <contour>
        <pt x="380" y="1303" on="1"/>
        <pt x="584" y="1439" on="0"/>
        <pt x="606" y="1439" on="1"/>
        <pt x="1432" y="1439" on="1"/>
        <pt x="1410" y="1435" on="0"/>
        <pt x="1300" y="1351" on="0"/>
        <pt x="1278" y="1336" on="1"/>
        <pt x="1227" y="1303" on="0"/>
        <pt x="1206" y="1303" on="1"/>
        <pt x="761" y="1303" on="1"/>
        <pt x="648" y="818" on="1"/>
        <pt x="1134" y="818" on="1"/>
        <pt x="1112" y="814" on="0"/>
        <pt x="1002" y="730" on="0"/>
        <pt x="980" y="716" on="1"/>
        <pt x="929" y="682" on="0"/>
        <pt x="908" y="682" on="1"/>
        <pt x="617" y="682" on="1"/>
        <pt x="541" y="356" on="1"/>
        <pt x="517" y="246" on="0"/>
        <pt x="464" y="173" on="1"/>
        <pt x="445" y="146" on="0"/>
        <pt x="422" y="136" on="1"/>
        <pt x="978" y="136" on="1"/>
        <pt x="1037" y="136" on="0"/>
        <pt x="1171" y="188" on="1"/>
        <pt x="1102" y="125" on="0"/>
        <pt x="920" y="39" on="1"/>
        <pt x="837" y="0" on="0"/>
        <pt x="811" y="0" on="1"/>
        <pt x="174" y="0" on="1"/>
        <pt x="249" y="75" on="0"/>
        <pt x="296" y="176" on="1"/>
        <pt x="312" y="209" on="0"/>
        <pt x="345" y="351" on="0"/>
        <pt x="396" y="570" on="0"/>
        <pt x="422" y="682" on="1"/>
        <pt x="282" y="682" on="1"/>
        <pt x="324" y="710" on="0"/>
        <pt x="406" y="765" on="0"/>
        <pt x="448" y="791" on="1"/>
        <pt x="567" y="1303" on="1"/>
      </contour>
    </TTGlyph>
    <TTGlyph name="Eacute" xMin="174" yMin="0" xMax="1456" yMax="1946">
      <component glyphName="E" x="0" y="0" flags="0x1004"/>
      <component glyphName="acute" x="868" y="243" flags="0x1004"/>
    </TTGlyph>
    <TTGlyph name="Ebreve" xMin="174" yMin="0" xMax="1445" yMax="1908">
      <component glyphName="E" x="0" y="0" flags="0x1204"/>
      <component glyphName="breve" x="646" y="281" flags="0x1004"/>
    </TTGlyph>
    <TTGlyph name="Ecaron" xMin="174" yMin="0" xMax="1432" yMax="1875">
      <component glyphName="E" x="0" y="0" flags="0x1204"/>
      <component glyphName="caron" x="733" y="247" flags="0x1004"/>
    </TTGlyph>
    <TTGlyph name="Ecircumflex" xMin="174" yMin="0" xMax="1432" yMax="1906">
      <component glyphName="E" x="0" y="0" flags="0x1004"/>
      <component glyphName="circumflex" x="683" y="278" flags="0x1004"/>
    </TTGlyph>
    <TTGlyph name="Edieresis" xMin="174" yMin="0" xMax="1432" yMax="1818">
      <component glyphName="E" x="0" y="0" flags="0x1004"/>
      <component glyphName="dieresis" x="577" y="296" flags="0x1004"/>
    </TTGlyph>
    <TTGlyph name="Edotaccent" xMin="174" yMin="0" xMax="1432" yMax="1794">
      <component glyphName="E" x="0" y="0" flags="0x1204"/>
      <component glyphName="dotaccent" x="815" y="272" flags="0x1004"/>
    </TTGlyph>
    <TTGlyph name="Egrave" xMin="174" yMin="0" xMax="1432" yMax="1990">
      <component glyphName="E" x="0" y="0" flags="0x1004"/>
      <component glyphName="grave" x="682" y="284" flags="0x1004"/>
    </TTGlyph>
    <TTGlyph name="Emacron" xMin="174" yMin="0" xMax="1449" yMax="1671">
      <component glyphName="E" x="0" y="0" flags="0x1204"/>
      <component glyphName="macron" x="501" y="208" flags="0x1004"/>
    </TTGlyph>
    <TTGlyph name="Eng" xMin="181" yMin="-536" xMax="2154" yMax="1439">
      <contour>
        <pt x="1551" y="1303" on="1"/>
        <pt x="1755" y="1439" on="0"/>
        <pt x="1777" y="1439" on="1"/>
        <pt x="2154" y="1439" on="1"/>
        <pt x="2125" y="1431" on="0"/>
        <pt x="2073" y="1390" on="1"/>
        <pt x="1975" y="1315" on="0"/>
        <pt x="1933" y="1304" on="1"/>
        <pt x="1850" y="827" on="0"/>
        <pt x="1700" y="386" on="1"/>
        <pt x="1649" y="235" on="0"/>
        <pt x="1561" y="32" on="0"/>
        <pt x="1444" y="-116" on="0"/>
        <pt x="1290" y="-258" on="0"/>
        <pt x="1110" y="-385" on="0"/>
        <pt x="1018" y="-432" on="1"/>
        <pt x="818" y="-536" on="0"/>
        <pt x="669" y="-536" on="1"/>
        <pt x="618" y="-536" on="0"/>
        <pt x="500" y="-496" on="0"/>
        <pt x="476" y="-484" on="1"/>
        <pt x="424" y="-457" on="0"/>
        <pt x="424" y="-428" on="1"/>
        <pt x="424" y="-416" on="0"/>
        <pt x="433" y="-407" on="1"/>
        <pt x="450" y="-390" on="1"/>
        <pt x="572" y="-279" on="0"/>
        <pt x="710" y="-229" on="1"/>
        <pt x="642" y="-272" on="0"/>
        <pt x="642" y="-320" on="0"/>
        <pt x="674" y="-352" on="0"/>
        <pt x="723" y="-375" on="0"/>
        <pt x="784" y="-389" on="0"/>
        <pt x="814" y="-393" on="1"/>
        <pt x="865" y="-400" on="0"/>
        <pt x="991" y="-400" on="0"/>
        <pt x="1141" y="-338" on="0"/>
        <pt x="1201" y="-285" on="1"/>
        <pt x="1325" y="-176" on="0"/>
        <pt x="1366" y="-12" on="1"/>
        <pt x="1367" y="-9" on="0"/>
        <pt x="1367" y="17" on="0"/>
        <pt x="1350" y="66" on="0"/>
        <pt x="1326" y="117" on="0"/>
        <pt x="1299" y="164" on="0"/>
        <pt x="1262" y="230" on="1"/>
        <pt x="1214" y="314" on="0"/>
        <pt x="1019" y="633" on="1"/>
        <pt x="884" y="854" on="0"/>
        <pt x="732" y="1077" on="1"/>
        <pt x="582" y="326" on="0"/>
        <pt x="485" y="205" on="1"/>
        <pt x="454" y="165" on="0"/>
        <pt x="423" y="136" on="1"/>
        <pt x="746" y="136" on="1"/>
        <pt x="542" y="0" on="0"/>
        <pt x="520" y="0" on="1"/>
        <pt x="181" y="0" on="1"/>
        <pt x="299" y="101" on="0"/>
        <pt x="350" y="284" on="1"/>
        <pt x="474" y="730" on="0"/>
        <pt x="574" y="1303" on="1"/>
        <pt x="347" y="1303" on="1"/>
        <pt x="551" y="1439" on="0"/>
        <pt x="573" y="1439" on="1"/>
        <pt x="950" y="1439" on="1"/>
        <pt x="922" y="1430" on="0"/>
        <pt x="859" y="1380" on="0"/>
        <pt x="848" y="1372" on="1"/>
        <pt x="1065" y="1064" on="0"/>
        <pt x="1322" y="641" on="0"/>
        <pt x="1445" y="446" on="0"/>
        <pt x="1502" y="343" on="1"/>
        <pt x="1655" y="821" on="0"/>
        <pt x="1730" y="1303" on="1"/>
      </contour>
    </TTGlyph>
    <TTGlyph name="Eogonek" xMin="174" yMin="-471" xMax="1432" yMax="1439">
      <contour>
        <pt x="782" y="0" on="1"/>
        <pt x="681" y="-101" on="0"/>
        <pt x="681" y="-191" on="1"/>
        <pt x="681" y="-250" on="0"/>
        <pt x="722" y="-292" on="1"/>
        <pt x="761" y="-334" on="0"/>
        <pt x="822" y="-334" on="1"/>
        <pt x="873" y="-334" on="0"/>
        <pt x="976" y="-277" on="1"/>
        <pt x="1002" y="-263" on="0"/>
        <pt x="1024" y="-253" on="1"/>
        <pt x="1024" y="-254" on="1"/>
        <pt x="1012" y="-277" on="0"/>
        <pt x="846" y="-370" on="1"/>
        <pt x="818" y="-385" on="0"/>
        <pt x="774" y="-410" on="0"/>
        <pt x="750" y="-423" on="1"/>
        <pt x="659" y="-471" on="0"/>
        <pt x="562" y="-471" on="0"/>
        <pt x="514" y="-449" on="0"/>
        <pt x="496" y="-430" on="1"/>
        <pt x="460" y="-389" on="0"/>
        <pt x="460" y="-280" on="0"/>
        <pt x="507" y="-185" on="0"/>
        <pt x="545" y="-142" on="1"/>
        <pt x="615" y="-64" on="0"/>
        <pt x="727" y="0" on="1"/>
        <pt x="174" y="0" on="1"/>
        <pt x="249" y="75" on="0"/>
        <pt x="296" y="176" on="1"/>
        <pt x="312" y="209" on="0"/>
        <pt x="345" y="351" on="0"/>
        <pt x="396" y="570" on="0"/>
        <pt x="422" y="682" on="1"/>
        <pt x="282" y="682" on="1"/>
        <pt x="324" y="710" on="0"/>
        <pt x="406" y="765" on="0"/>
        <pt x="448" y="791" on="1"/>
        <pt x="567" y="1303" on="1"/>
        <pt x="380" y="1303" on="1"/>
        <pt x="584" y="1439" on="0"/>
        <pt x="606" y="1439" on="1"/>
        <pt x="1432" y="1439" on="1"/>
        <pt x="1410" y="1435" on="0"/>
        <pt x="1300" y="1351" on="0"/>
        <pt x="1278" y="1336" on="1"/>
        <pt x="1227" y="1303" on="0"/>
        <pt x="1206" y="1303" on="1"/>
        <pt x="761" y="1303" on="1"/>
        <pt x="648" y="818" on="1"/>
        <pt x="1134" y="818" on="1"/>
        <pt x="1112" y="814" on="0"/>
        <pt x="1002" y="730" on="0"/>
        <pt x="980" y="716" on="1"/>
        <pt x="929" y="682" on="0"/>
        <pt x="908" y="682" on="1"/>
        <pt x="617" y="682" on="1"/>
        <pt x="541" y="356" on="1"/>
        <pt x="517" y="246" on="0"/>
        <pt x="464" y="173" on="1"/>
        <pt x="445" y="146" on="0"/>
        <pt x="422" y="136" on="1"/>
        <pt x="978" y="136" on="1"/>
        <pt x="1037" y="136" on="0"/>
        <pt x="1171" y="188" on="1"/>
        <pt x="1102" y="125" on="0"/>
        <pt x="920" y="39" on="1"/>
        <pt x="837" y="0" on="0"/>
        <pt x="811" y="0" on="1"/>
      </contour>
    </TTGlyph>
    <TTGlyph name="Eth" xMin="194" yMin="0" xMax="1683" yMax="1440">
      <contour>
        <pt x="516" y="0" on="1"/>
        <pt x="194" y="0" on="1"/>
        <pt x="254" y="49" on="0"/>
        <pt x="279" y="107" on="1"/>
        <pt x="314" y="186" on="0"/>
        <pt x="336" y="285" on="1"/>
        <pt x="414" y="619" on="1"/>
        <pt x="195" y="619" on="1"/>
        <pt x="223" y="628" on="0"/>
        <pt x="341" y="718" on="0"/>
        <pt x="400" y="755" on="0"/>
        <pt x="421" y="755" on="1"/>
        <pt x="446" y="755" on="1"/>
        <pt x="574" y="1303" on="1"/>
        <pt x="354" y="1303" on="1"/>
        <pt x="380" y="1313" on="0"/>
        <pt x="502" y="1402" on="0"/>
        <pt x="560" y="1439" on="0"/>
        <pt x="580" y="1439" on="1"/>
        <pt x="1024" y="1440" on="1"/>
        <pt x="1294" y="1440" on="0"/>
        <pt x="1470" y="1337" on="1"/>
        <pt x="1683" y="1213" on="0"/>
        <pt x="1683" y="956" on="1"/>
        <pt x="1683" y="675" on="0"/>
        <pt x="1498" y="447" on="1"/>
        <pt x="1328" y="238" on="0"/>
        <pt x="1054" y="117" on="1"/>
        <pt x="788" y="0" on="0"/>
      </contour>
      <contour>
        <pt x="1372" y="422" on="0"/>
        <pt x="1462" y="687" on="0"/>
        <pt x="1462" y="950" on="0"/>
        <pt x="1403" y="1095" on="0"/>
        <pt x="1302" y="1196" on="0"/>
        <pt x="1167" y="1257" on="0"/>
        <pt x="1090" y="1274" on="1"/>
        <pt x="959" y="1303" on="0"/>
        <pt x="768" y="1303" on="1"/>
        <pt x="640" y="755" on="1"/>
        <pt x="942" y="755" on="1"/>
        <pt x="915" y="748" on="0"/>
        <pt x="796" y="657" on="0"/>
        <pt x="737" y="619" on="0"/>
        <pt x="716" y="619" on="1"/>
        <pt x="609" y="619" on="1"/>
        <pt x="543" y="339" on="1"/>
        <pt x="526" y="263" on="0"/>
        <pt x="509" y="234" on="1"/>
        <pt x="484" y="189" on="0"/>
        <pt x="432" y="133" on="1"/>
        <pt x="764" y="133" on="1"/>
        <pt x="1100" y="133" on="0"/>
        <pt x="1284" y="328" on="1"/>
      </contour>
    </TTGlyph>
    <TTGlyph name="Euro" xMin="201" yMin="-3" xMax="1923" yMax="1438">
      <contour>
        <pt x="255" y="737" on="1"/>
        <pt x="459" y="873" on="0"/>
        <pt x="481" y="873" on="1"/>
        <pt x="595" y="873" on="1"/>
        <pt x="763" y="1114" on="0"/>
        <pt x="1058" y="1274" on="1"/>
        <pt x="1360" y="1438" on="0"/>
        <pt x="1647" y="1438" on="1"/>
        <pt x="1747" y="1438" on="0"/>
        <pt x="1888" y="1402" on="0"/>
        <pt x="1923" y="1383" on="0"/>
        <pt x="1923" y="1372" on="1"/>
        <pt x="1923" y="1365" on="0"/>
        <pt x="1877" y="1320" on="0"/>
        <pt x="1815" y="1276" on="0"/>
        <pt x="1780" y="1256" on="1"/>
        <pt x="1706" y="1214" on="0"/>
        <pt x="1644" y="1195" on="1"/>
        <pt x="1666" y="1206" on="0"/>
        <pt x="1695" y="1235" on="0"/>
        <pt x="1695" y="1238" on="1"/>
        <pt x="1695" y="1279" on="0"/>
        <pt x="1442" y="1299" on="1"/>
        <pt x="1417" y="1301" on="0"/>
        <pt x="1407" y="1301" on="1"/>
        <pt x="1154" y="1301" on="0"/>
        <pt x="849" y="1104" on="0"/>
        <pt x="743" y="873" on="1"/>
        <pt x="949" y="873" on="1"/>
        <pt x="1033" y="873" on="0"/>
        <pt x="1124" y="932" on="1"/>
        <pt x="1011" y="807" on="0"/>
        <pt x="811" y="758" on="1"/>
        <pt x="751" y="744" on="0"/>
        <pt x="696" y="741" on="1"/>
        <pt x="685" y="689" on="0"/>
        <pt x="682" y="641" on="1"/>
        <pt x="895" y="640" on="1"/>
        <pt x="972" y="640" on="0"/>
        <pt x="1070" y="700" on="1"/>
        <pt x="971" y="580" on="0"/>
        <pt x="791" y="532" on="1"/>
        <pt x="737" y="517" on="0"/>
        <pt x="686" y="514" on="1"/>
        <pt x="711" y="324" on="0"/>
        <pt x="834" y="228" on="1"/>
        <pt x="949" y="137" on="0"/>
        <pt x="1146" y="137" on="1"/>
        <pt x="1323" y="137" on="0"/>
        <pt x="1504" y="202" on="1"/>
        <pt x="1563" y="223" on="0"/>
        <pt x="1612" y="250" on="1"/>
        <pt x="1478" y="138" on="0"/>
        <pt x="1280" y="66" on="1"/>
        <pt x="1087" y="-3" on="0"/>
        <pt x="909" y="-3" on="1"/>
        <pt x="703" y="-3" on="0"/>
        <pt x="454" y="246" on="0"/>
        <pt x="454" y="453" on="1"/>
        <pt x="454" y="477" on="0"/>
        <pt x="456" y="505" on="1"/>
        <pt x="201" y="505" on="1"/>
        <pt x="405" y="641" on="0"/>
        <pt x="427" y="641" on="1"/>
        <pt x="481" y="641" on="1"/>
        <pt x="496" y="690" on="0"/>
        <pt x="517" y="737" on="1"/>
      </contour>
    </TTGlyph>
    <TTGlyph name="F" xMin="177" yMin="0" xMax="1481" yMax="1439">
      <contour>
        <pt x="1481" y="1439" on="1"/>
        <pt x="1459" y="1435" on="0"/>
        <pt x="1349" y="1351" on="0"/>
        <pt x="1327" y="1336" on="1"/>
        <pt x="1276" y="1303" on="0"/>
        <pt x="1255" y="1303" on="1"/>
        <pt x="764" y="1303" on="1"/>
        <pt x="638" y="759" on="1"/>
        <pt x="1123" y="759" on="1"/>
        <pt x="1103" y="755" on="0"/>
        <pt x="991" y="670" on="0"/>
        <pt x="969" y="656" on="1"/>
        <pt x="918" y="622" on="0"/>
        <pt x="897" y="622" on="1"/>
        <pt x="606" y="622" on="1"/>
        <pt x="551" y="388" on="1"/>
        <pt x="526" y="274" on="0"/>
        <pt x="468" y="184" on="1"/>
        <pt x="447" y="153" on="0"/>
        <pt x="422" y="136" on="1"/>
        <pt x="742" y="136" on="1"/>
        <pt x="720" y="132" on="0"/>
        <pt x="610" y="48" on="0"/>
        <pt x="588" y="34" on="1"/>
        <pt x="537" y="0" on="0"/>
        <pt x="516" y="0" on="1"/>
        <pt x="177" y="0" on="1"/>
        <pt x="253" y="79" on="0"/>
        <pt x="300" y="178" on="1"/>
        <pt x="317" y="213" on="0"/>
        <pt x="389" y="526" on="0"/>
        <pt x="412" y="622" on="1"/>
        <pt x="271" y="622" on="1"/>
        <pt x="313" y="650" on="0"/>
        <pt x="395" y="705" on="0"/>
        <pt x="437" y="732" on="1"/>
        <pt x="570" y="1303" on="1"/>
        <pt x="383" y="1303" on="1"/>
        <pt x="392" y="1309" on="0"/>
        <pt x="428" y="1334" on="0"/>
        <pt x="473" y="1364" on="0"/>
        <pt x="522" y="1396" on="0"/>
        <pt x="544" y="1409" on="1"/>
        <pt x="595" y="1439" on="0"/>
        <pt x="609" y="1439" on="1"/>
      </contour>
    </TTGlyph>
    <TTGlyph name="G" xMin="225" yMin="-38" xMax="1826" yMax="1497">
      <contour>
        <pt x="1715" y="1446" on="1"/>
        <pt x="1768" y="1429" on="0"/>
        <pt x="1826" y="1394" on="0"/>
        <pt x="1826" y="1374" on="0"/>
        <pt x="1790" y="1347" on="0"/>
        <pt x="1736" y="1311" on="0"/>
        <pt x="1669" y="1272" on="0"/>
        <pt x="1639" y="1254" on="1"/>
        <pt x="1575" y="1217" on="0"/>
        <pt x="1552" y="1207" on="1"/>
        <pt x="1556" y="1211" on="0"/>
        <pt x="1573" y="1223" on="0"/>
        <pt x="1580" y="1230" on="1"/>
        <pt x="1600" y="1246" on="0"/>
        <pt x="1600" y="1277" on="0"/>
        <pt x="1545" y="1309" on="0"/>
        <pt x="1460" y="1332" on="0"/>
        <pt x="1356" y="1348" on="0"/>
        <pt x="1306" y="1353" on="1"/>
        <pt x="1217" y="1362" on="0"/>
        <pt x="1044" y="1362" on="0"/>
        <pt x="853" y="1305" on="0"/>
        <pt x="697" y="1203" on="0"/>
        <pt x="576" y="1060" on="0"/>
        <pt x="536" y="974" on="1"/>
        <pt x="453" y="799" on="0"/>
        <pt x="453" y="588" on="1"/>
        <pt x="453" y="364" on="0"/>
        <pt x="584" y="232" on="1"/>
        <pt x="717" y="100" on="0"/>
        <pt x="941" y="100" on="1"/>
        <pt x="1112" y="100" on="0"/>
        <pt x="1250" y="146" on="1"/>
        <pt x="1300" y="162" on="0"/>
        <pt x="1335" y="187" on="1"/>
        <pt x="1437" y="622" on="1"/>
        <pt x="1150" y="622" on="1"/>
        <pt x="1159" y="628" on="0"/>
        <pt x="1195" y="653" on="0"/>
        <pt x="1240" y="684" on="0"/>
        <pt x="1290" y="716" on="0"/>
        <pt x="1312" y="729" on="1"/>
        <pt x="1363" y="759" on="0"/>
        <pt x="1376" y="759" on="1"/>
        <pt x="1784" y="759" on="1"/>
        <pt x="1740" y="742" on="0"/>
        <pt x="1654" y="675" on="0"/>
        <pt x="1638" y="664" on="1"/>
        <pt x="1558" y="317" on="1"/>
        <pt x="1414" y="176" on="0"/>
        <pt x="1184" y="70" on="1"/>
        <pt x="948" y="-38" on="0"/>
        <pt x="752" y="-38" on="1"/>
        <pt x="511" y="-38" on="0"/>
        <pt x="372" y="84" on="1"/>
        <pt x="225" y="213" on="0"/>
        <pt x="225" y="448" on="1"/>
        <pt x="225" y="725" on="0"/>
        <pt x="406" y="976" on="1"/>
        <pt x="574" y="1209" on="0"/>
        <pt x="846" y="1354" on="1"/>
        <pt x="1118" y="1497" on="0"/>
        <pt x="1390" y="1497" on="1"/>
        <pt x="1556" y="1497" on="0"/>
      </contour>
    </TTGlyph>
    <TTGlyph name="Gbreve" xMin="225" yMin="-38" xMax="1826" yMax="1920">
      <component glyphName="G" x="0" y="0" flags="0x1204"/>
      <component glyphName="breve" x="789" y="293" flags="0x1004"/>
    </TTGlyph>
    <TTGlyph name="Gcircumflex" xMin="225" yMin="-38" xMax="1826" yMax="1934">
      <component glyphName="G" x="0" y="0" flags="0x1204"/>
      <component glyphName="circumflex" x="864" y="306" flags="0x1004"/>
    </TTGlyph>
    <TTGlyph name="Gcommaaccent" xMin="225" yMin="-578" xMax="1826" yMax="1497">
      <component glyphName="G" x="0" y="0" flags="0x1204"/>
      <component glyphName="uni0326" x="603" y="0" flags="0x1004"/>
    </TTGlyph>
    <TTGlyph name="Gdotaccent" xMin="225" yMin="-38" xMax="1826" yMax="1815">
      <component glyphName="G" x="0" y="0" flags="0x1204"/>
      <component glyphName="dotaccent" x="988" y="293" flags="0x1004"/>
    </TTGlyph>
    <TTGlyph name="H" xMin="176" yMin="0" xMax="1983" yMax="1439">
      <contour>
        <pt x="1321" y="1303" on="1"/>
        <pt x="1525" y="1439" on="0"/>
        <pt x="1547" y="1439" on="1"/>
        <pt x="1983" y="1439" on="1"/>
        <pt x="1967" y="1436" on="0"/>
        <pt x="1851" y="1352" on="0"/>
        <pt x="1829" y="1337" on="1"/>
        <pt x="1779" y="1303" on="0"/>
        <pt x="1757" y="1303" on="1"/>
        <pt x="1703" y="1303" on="1"/>
        <pt x="1490" y="388" on="1"/>
        <pt x="1468" y="294" on="0"/>
        <pt x="1450" y="259" on="1"/>
        <pt x="1422" y="201" on="0"/>
        <pt x="1360" y="136" on="1"/>
        <pt x="1680" y="136" on="1"/>
        <pt x="1664" y="133" on="0"/>
        <pt x="1548" y="49" on="0"/>
        <pt x="1526" y="34" on="1"/>
        <pt x="1476" y="0" on="0"/>
        <pt x="1454" y="0" on="1"/>
        <pt x="1115" y="0" on="1"/>
        <pt x="1184" y="62" on="0"/>
        <pt x="1205" y="97" on="1"/>
        <pt x="1239" y="151" on="0"/>
        <pt x="1261" y="239" on="1"/>
        <pt x="1364" y="682" on="1"/>
        <pt x="619" y="682" on="1"/>
        <pt x="550" y="388" on="1"/>
        <pt x="527" y="290" on="0"/>
        <pt x="511" y="257" on="1"/>
        <pt x="483" y="201" on="0"/>
        <pt x="421" y="136" on="1"/>
        <pt x="741" y="136" on="1"/>
        <pt x="725" y="133" on="0"/>
        <pt x="609" y="49" on="0"/>
        <pt x="587" y="34" on="1"/>
        <pt x="537" y="0" on="0"/>
        <pt x="515" y="0" on="1"/>
        <pt x="176" y="0" on="1"/>
        <pt x="266" y="61" on="0"/>
        <pt x="301" y="166" on="1"/>
        <pt x="312" y="200" on="0"/>
        <pt x="321" y="239" on="1"/>
        <pt x="569" y="1303" on="1"/>
        <pt x="382" y="1303" on="1"/>
        <pt x="586" y="1439" on="0"/>
        <pt x="608" y="1439" on="1"/>
        <pt x="1044" y="1439" on="1"/>
        <pt x="1028" y="1436" on="0"/>
        <pt x="912" y="1352" on="0"/>
        <pt x="890" y="1337" on="1"/>
        <pt x="840" y="1303" on="0"/>
        <pt x="818" y="1303" on="1"/>
        <pt x="763" y="1303" on="1"/>
        <pt x="650" y="818" on="1"/>
        <pt x="1395" y="818" on="1"/>
        <pt x="1508" y="1303" on="1"/>
      </contour>
    </TTGlyph>
    <TTGlyph name="Hbar" xMin="176" yMin="0" xMax="1983" yMax="1439">
      <contour>
        <pt x="1321" y="1303" on="1"/>
        <pt x="1525" y="1439" on="0"/>
        <pt x="1547" y="1439" on="1"/>
        <pt x="1983" y="1439" on="1"/>
        <pt x="1967" y="1436" on="0"/>
        <pt x="1851" y="1352" on="0"/>
        <pt x="1829" y="1337" on="1"/>
        <pt x="1779" y="1303" on="0"/>
        <pt x="1757" y="1303" on="1"/>
        <pt x="1703" y="1303" on="1"/>
        <pt x="1649" y="1074" on="1"/>
        <pt x="1859" y="1074" on="1"/>
        <pt x="1843" y="1071" on="0"/>
        <pt x="1727" y="987" on="0"/>
        <pt x="1705" y="972" on="1"/>
        <pt x="1655" y="938" on="0"/>
        <pt x="1633" y="938" on="1"/>
        <pt x="1618" y="938" on="1"/>
        <pt x="1490" y="388" on="1"/>
        <pt x="1468" y="294" on="0"/>
        <pt x="1450" y="259" on="1"/>
        <pt x="1422" y="201" on="0"/>
        <pt x="1360" y="136" on="1"/>
        <pt x="1680" y="136" on="1"/>
        <pt x="1664" y="133" on="0"/>
        <pt x="1548" y="49" on="0"/>
        <pt x="1526" y="34" on="1"/>
        <pt x="1476" y="0" on="0"/>
        <pt x="1454" y="0" on="1"/>
        <pt x="1115" y="0" on="1"/>
        <pt x="1184" y="62" on="0"/>
        <pt x="1205" y="97" on="1"/>
        <pt x="1239" y="151" on="0"/>
        <pt x="1261" y="239" on="1"/>
        <pt x="1364" y="682" on="1"/>
        <pt x="619" y="682" on="1"/>
        <pt x="550" y="388" on="1"/>
        <pt x="527" y="290" on="0"/>
        <pt x="511" y="257" on="1"/>
        <pt x="483" y="201" on="0"/>
        <pt x="421" y="136" on="1"/>
        <pt x="741" y="136" on="1"/>
        <pt x="725" y="133" on="0"/>
        <pt x="609" y="49" on="0"/>
        <pt x="587" y="34" on="1"/>
        <pt x="537" y="0" on="0"/>
        <pt x="515" y="0" on="1"/>
        <pt x="176" y="0" on="1"/>
        <pt x="266" y="61" on="0"/>
        <pt x="301" y="166" on="1"/>
        <pt x="312" y="200" on="0"/>
        <pt x="321" y="239" on="1"/>
        <pt x="484" y="938" on="1"/>
        <pt x="276" y="938" on="1"/>
        <pt x="292" y="940" on="0"/>
        <pt x="407" y="1025" on="0"/>
        <pt x="429" y="1040" on="1"/>
        <pt x="479" y="1074" on="0"/>
        <pt x="502" y="1074" on="1"/>
        <pt x="515" y="1074" on="1"/>
        <pt x="569" y="1303" on="1"/>
        <pt x="382" y="1303" on="1"/>
        <pt x="586" y="1439" on="0"/>
        <pt x="608" y="1439" on="1"/>
        <pt x="1044" y="1439" on="1"/>
        <pt x="1028" y="1436" on="0"/>
        <pt x="912" y="1352" on="0"/>
        <pt x="890" y="1337" on="1"/>
        <pt x="840" y="1303" on="0"/>
        <pt x="818" y="1303" on="1"/>
        <pt x="763" y="1303" on="1"/>
        <pt x="709" y="1074" on="1"/>
        <pt x="1454" y="1074" on="1"/>
        <pt x="1508" y="1303" on="1"/>
      </contour>
      <contour>
        <pt x="1395" y="818" on="1"/>
        <pt x="1423" y="938" on="1"/>
        <pt x="678" y="938" on="1"/>
        <pt x="650" y="818" on="1"/>
      </contour>
    </TTGlyph>
    <TTGlyph name="Hcircumflex" xMin="176" yMin="0" xMax="1983" yMax="1896">
      <component glyphName="H" x="0" y="0" flags="0x1204"/>
      <component glyphName="circumflex" x="987" y="268" flags="0x1004"/>
    </TTGlyph>
    <TTGlyph name="I" xMin="177" yMin="0" xMax="1065" yMax="1439">
      <contour>
        <pt x="383" y="1303" on="1"/>
        <pt x="587" y="1439" on="0"/>
        <pt x="609" y="1439" on="1"/>
        <pt x="1065" y="1439" on="1"/>
        <pt x="1048" y="1437" on="0"/>
        <pt x="922" y="1344" on="0"/>
        <pt x="858" y="1303" on="0"/>
        <pt x="839" y="1303" on="1"/>
        <pt x="764" y="1303" on="1"/>
        <pt x="551" y="388" on="1"/>
        <pt x="523" y="273" on="0"/>
        <pt x="466" y="187" on="1"/>
        <pt x="446" y="156" on="0"/>
        <pt x="422" y="136" on="1"/>
        <pt x="742" y="136" on="1"/>
        <pt x="720" y="132" on="0"/>
        <pt x="610" y="48" on="0"/>
        <pt x="588" y="34" on="1"/>
        <pt x="537" y="0" on="0"/>
        <pt x="516" y="0" on="1"/>
        <pt x="177" y="0" on="1"/>
        <pt x="245" y="56" on="0"/>
        <pt x="267" y="94" on="1"/>
        <pt x="301" y="150" on="0"/>
        <pt x="322" y="239" on="1"/>
        <pt x="570" y="1303" on="1"/>
      </contour>
    </TTGlyph>
    <TTGlyph name="IJ" xMin="177" yMin="-543" xMax="1801" yMax="1439">
      <component glyphName="I" x="0" y="0" flags="0x1004"/>
      <component glyphName="J" x="740" y="0" flags="0x1004"/>
    </TTGlyph>
    <TTGlyph name="Iacute" xMin="177" yMin="0" xMax="1199" yMax="1990">
      <component glyphName="I" x="0" y="0" flags="0x1204"/>
      <component glyphName="acute" x="611" y="287" flags="0x1004"/>
    </TTGlyph>
    <TTGlyph name="Ibreve" xMin="177" yMin="0" xMax="1216" yMax="1933">
      <component glyphName="I" x="0" y="0" flags="0x1204"/>
      <component glyphName="breve" x="417" y="306" flags="0x1004"/>
    </TTGlyph>
    <TTGlyph name="Icircumflex" xMin="177" yMin="0" xMax="1122" yMax="1915">
      <component glyphName="I" x="0" y="0" flags="0x1204"/>
      <component glyphName="circumflex" x="425" y="287" flags="0x1004"/>
    </TTGlyph>
    <TTGlyph name="Idieresis" xMin="177" yMin="0" xMax="1184" yMax="1818">
      <component glyphName="I" x="0" y="0" flags="0x1204"/>
      <component glyphName="dieresis" x="383" y="296" flags="0x1004"/>
    </TTGlyph>
    <TTGlyph name="Idotaccent" xMin="177" yMin="0" xMax="1065" yMax="1815">
      <component glyphName="I" x="0" y="0" flags="0x1204"/>
      <component glyphName="dotaccent" x="618" y="293" flags="0x1004"/>
    </TTGlyph>
    <TTGlyph name="Igrave" xMin="177" yMin="0" xMax="1065" yMax="1992">
      <component glyphName="I" x="0" y="0" flags="0x1204"/>
      <component glyphName="grave" x="444" y="286" flags="0x1004"/>
    </TTGlyph>
    <TTGlyph name="Imacron" xMin="177" yMin="0" xMax="1282" yMax="1667">
      <component glyphName="I" x="0" y="0" flags="0x1204"/>
      <component glyphName="macron" x="334" y="204" flags="0x1004"/>
    </TTGlyph>
    <TTGlyph name="Iogonek" xMin="108" yMin="-471" xMax="1065" yMax="1439">
      <contour>
        <pt x="430" y="0" on="1"/>
        <pt x="329" y="-101" on="0"/>
        <pt x="329" y="-191" on="1"/>
        <pt x="329" y="-250" on="0"/>
        <pt x="370" y="-292" on="1"/>
        <pt x="409" y="-334" on="0"/>
        <pt x="470" y="-334" on="1"/>
        <pt x="521" y="-334" on="0"/>
        <pt x="624" y="-277" on="1"/>
        <pt x="650" y="-263" on="0"/>
        <pt x="672" y="-253" on="1"/>
        <pt x="672" y="-254" on="1"/>
        <pt x="660" y="-277" on="0"/>
        <pt x="494" y="-370" on="1"/>
        <pt x="466" y="-385" on="0"/>
        <pt x="422" y="-410" on="0"/>
        <pt x="398" y="-423" on="1"/>
        <pt x="307" y="-471" on="0"/>
        <pt x="210" y="-471" on="0"/>
        <pt x="162" y="-449" on="0"/>
        <pt x="144" y="-430" on="1"/>
        <pt x="108" y="-389" on="0"/>
        <pt x="108" y="-280" on="0"/>
        <pt x="155" y="-185" on="0"/>
        <pt x="193" y="-142" on="1"/>
        <pt x="263" y="-64" on="0"/>
        <pt x="375" y="0" on="1"/>
        <pt x="177" y="0" on="1"/>
        <pt x="245" y="56" on="0"/>
        <pt x="267" y="94" on="1"/>
        <pt x="301" y="150" on="0"/>
        <pt x="322" y="239" on="1"/>
        <pt x="570" y="1303" on="1"/>
        <pt x="383" y="1303" on="1"/>
        <pt x="587" y="1439" on="0"/>
        <pt x="609" y="1439" on="1"/>
        <pt x="1065" y="1439" on="1"/>
        <pt x="1048" y="1437" on="0"/>
        <pt x="922" y="1344" on="0"/>
        <pt x="858" y="1303" on="0"/>
        <pt x="839" y="1303" on="1"/>
        <pt x="764" y="1303" on="1"/>
        <pt x="551" y="388" on="1"/>
        <pt x="523" y="273" on="0"/>
        <pt x="466" y="187" on="1"/>
        <pt x="446" y="156" on="0"/>
        <pt x="422" y="136" on="1"/>
        <pt x="742" y="136" on="1"/>
        <pt x="720" y="132" on="0"/>
        <pt x="610" y="48" on="0"/>
        <pt x="588" y="34" on="1"/>
        <pt x="537" y="0" on="0"/>
        <pt x="516" y="0" on="1"/>
      </contour>
    </TTGlyph>
    <TTGlyph name="Itilde" xMin="177" yMin="0" xMax="1294" yMax="1766">
      <component glyphName="I" x="0" y="0" flags="0x1204"/>
      <component glyphName="tilde" x="312" y="243" flags="0x1004"/>
    </TTGlyph>
    <TTGlyph name="J" xMin="-546" yMin="-543" xMax="1061" yMax="1439">
      <contour>
        <pt x="379" y="1303" on="1"/>
        <pt x="583" y="1439" on="0"/>
        <pt x="605" y="1439" on="1"/>
        <pt x="1061" y="1439" on="1"/>
        <pt x="1033" y="1430" on="0"/>
        <pt x="914" y="1340" on="0"/>
        <pt x="856" y="1303" on="0"/>
        <pt x="835" y="1303" on="1"/>
        <pt x="760" y="1303" on="1"/>
        <pt x="697" y="1031" on="0"/>
        <pt x="572" y="495" on="0"/>
        <pt x="509" y="223" on="1"/>
        <pt x="445" y="-49" on="0"/>
        <pt x="208" y="-288" on="1"/>
        <pt x="51" y="-446" on="0"/>
        <pt x="-128" y="-510" on="1"/>
        <pt x="-219" y="-543" on="0"/>
        <pt x="-312" y="-543" on="1"/>
        <pt x="-356" y="-543" on="0"/>
        <pt x="-474" y="-497" on="0"/>
        <pt x="-496" y="-484" on="1"/>
        <pt x="-546" y="-454" on="0"/>
        <pt x="-546" y="-427" on="1"/>
        <pt x="-546" y="-383" on="0"/>
        <pt x="-296" y="-248" on="1"/>
        <pt x="-270" y="-234" on="0"/>
        <pt x="-259" y="-229" on="1"/>
        <pt x="-325" y="-273" on="0"/>
        <pt x="-325" y="-293" on="1"/>
        <pt x="-325" y="-304" on="0"/>
        <pt x="-241" y="-361" on="0"/>
        <pt x="-209" y="-376" on="1"/>
        <pt x="-141" y="-408" on="0"/>
        <pt x="-21" y="-408" on="0"/>
        <pt x="71" y="-360" on="0"/>
        <pt x="145" y="-280" on="0"/>
        <pt x="201" y="-177" on="0"/>
        <pt x="222" y="-122" on="1"/>
        <pt x="250" y="-48" on="0"/>
        <pt x="283" y="86" on="1"/>
        <pt x="566" y="1303" on="1"/>
      </contour>
    </TTGlyph>
    <TTGlyph name="Jcircumflex" xMin="-546" yMin="-543" xMax="1116" yMax="1896">
      <component glyphName="J" x="0" y="0" flags="0x1204"/>
      <component glyphName="circumflex" x="419" y="268" flags="0x1004"/>
    </TTGlyph>
    <TTGlyph name="K" xMin="178" yMin="-5" xMax="1814" yMax="1439">
      <contour>
        <pt x="1440" y="1303" on="1"/>
        <pt x="1236" y="1130" on="0"/>
        <pt x="892" y="869" on="1"/>
        <pt x="1296" y="351" on="0"/>
        <pt x="1405" y="242" on="1"/>
        <pt x="1511" y="134" on="0"/>
        <pt x="1617" y="134" on="1"/>
        <pt x="1678" y="134" on="0"/>
        <pt x="1779" y="181" on="1"/>
        <pt x="1630" y="64" on="0"/>
        <pt x="1473" y="13" on="1"/>
        <pt x="1417" y="-5" on="0"/>
        <pt x="1328" y="-5" on="0"/>
        <pt x="1262" y="26" on="0"/>
        <pt x="1204" y="74" on="0"/>
        <pt x="1153" y="132" on="0"/>
        <pt x="1078" y="215" on="1"/>
        <pt x="952" y="356" on="0"/>
        <pt x="650" y="727" on="1"/>
        <pt x="949" y="964" on="0"/>
        <pt x="1173" y="1143" on="0"/>
        <pt x="1304" y="1247" on="0"/>
        <pt x="1367" y="1303" on="1"/>
        <pt x="1192" y="1303" on="1"/>
        <pt x="1201" y="1309" on="0"/>
        <pt x="1237" y="1334" on="0"/>
        <pt x="1282" y="1364" on="0"/>
        <pt x="1331" y="1396" on="0"/>
        <pt x="1354" y="1409" on="1"/>
        <pt x="1405" y="1439" on="0"/>
        <pt x="1418" y="1439" on="1"/>
        <pt x="1814" y="1439" on="1"/>
        <pt x="1788" y="1431" on="0"/>
        <pt x="1667" y="1340" on="0"/>
        <pt x="1608" y="1303" on="0"/>
        <pt x="1588" y="1303" on="1"/>
      </contour>
      <contour>
        <pt x="384" y="1303" on="1"/>
        <pt x="588" y="1439" on="0"/>
        <pt x="610" y="1439" on="1"/>
        <pt x="1066" y="1439" on="1"/>
        <pt x="1044" y="1435" on="0"/>
        <pt x="934" y="1351" on="0"/>
        <pt x="912" y="1336" on="1"/>
        <pt x="861" y="1303" on="0"/>
        <pt x="840" y="1303" on="1"/>
        <pt x="765" y="1303" on="1"/>
        <pt x="552" y="388" on="1"/>
        <pt x="528" y="288" on="0"/>
        <pt x="512" y="256" on="1"/>
        <pt x="485" y="201" on="0"/>
        <pt x="423" y="136" on="1"/>
        <pt x="743" y="136" on="1"/>
        <pt x="721" y="132" on="0"/>
        <pt x="611" y="48" on="0"/>
        <pt x="589" y="34" on="1"/>
        <pt x="538" y="0" on="0"/>
        <pt x="517" y="0" on="1"/>
        <pt x="178" y="0" on="1"/>
        <pt x="290" y="96" on="0"/>
        <pt x="349" y="348" on="1"/>
        <pt x="571" y="1303" on="1"/>
      </contour>
    </TTGlyph>
    <TTGlyph name="Kcommaaccent" xMin="178" yMin="-531" xMax="1814" yMax="1439">
      <component glyphName="K" x="0" y="0" flags="0x1204"/>
      <component glyphName="uni0326" x="623" y="47" flags="0x1004"/>
    </TTGlyph>
    <TTGlyph name="L" xMin="168" yMin="0" xMax="1176" yMax="1439">
      <contour>
        <pt x="384" y="1303" on="1"/>
        <pt x="588" y="1439" on="0"/>
        <pt x="610" y="1439" on="1"/>
        <pt x="1066" y="1439" on="1"/>
        <pt x="1044" y="1435" on="0"/>
        <pt x="934" y="1351" on="0"/>
        <pt x="912" y="1336" on="1"/>
        <pt x="861" y="1303" on="0"/>
        <pt x="840" y="1303" on="1"/>
        <pt x="765" y="1303" on="1"/>
        <pt x="708" y="1055" on="0"/>
        <pt x="597" y="555" on="0"/>
        <pt x="534" y="307" on="1"/>
        <pt x="517" y="241" on="0"/>
        <pt x="436" y="153" on="0"/>
        <pt x="410" y="136" on="1"/>
        <pt x="979" y="136" on="1"/>
        <pt x="1099" y="136" on="0"/>
        <pt x="1176" y="190" on="1"/>
        <pt x="1053" y="67" on="0"/>
        <pt x="911" y="18" on="1"/>
        <pt x="861" y="0" on="0"/>
        <pt x="815" y="0" on="1"/>
        <pt x="168" y="0" on="1"/>
        <pt x="267" y="76" on="0"/>
        <pt x="300" y="164" on="1"/>
        <pt x="313" y="197" on="0"/>
        <pt x="323" y="239" on="1"/>
        <pt x="571" y="1303" on="1"/>
      </contour>
    </TTGlyph>
    <TTGlyph name="Lacute" xMin="168" yMin="0" xMax="1235" yMax="1937">
      <component glyphName="L" x="0" y="0" flags="0x1204"/>
      <component glyphName="acute" x="647" y="234" flags="0x1004"/>
    </TTGlyph>
    <TTGlyph name="Lcaron" xMin="168" yMin="0" xMax="1362" yMax="1536">
      <component glyphName="L" x="0" y="0" flags="0x1204"/>
      <component glyphName="uni0315" x="1134" y="-148" flags="0x1004"/>
    </TTGlyph>
    <TTGlyph name="Lcommaaccent" xMin="168" yMin="-578" xMax="1176" yMax="1439">
      <component glyphName="L" x="0" y="0" flags="0x1204"/>
      <component glyphName="uni0326" x="351" y="0" flags="0x1004"/>
    </TTGlyph>
    <TTGlyph name="Ldot" xMin="168" yMin="0" xMax="1425" yMax="1439">
      <component glyphName="L" x="0" y="0" flags="0x1004"/>
      <component glyphName="periodcentered" x="863" y="0" flags="0x1004"/>
    </TTGlyph>
    <TTGlyph name="Lslash" xMin="167" yMin="0" xMax="1175" yMax="1439">
      <contour>
        <pt x="829" y="872" on="1"/>
        <pt x="850" y="866" on="0"/>
        <pt x="892" y="866" on="1"/>
        <pt x="978" y="866" on="0"/>
        <pt x="1050" y="901" on="1"/>
        <pt x="852" y="759" on="0"/>
        <pt x="612" y="646" on="1"/>
        <pt x="592" y="561" on="0"/>
        <pt x="553" y="392" on="0"/>
        <pt x="527" y="283" on="0"/>
        <pt x="505" y="233" on="0"/>
        <pt x="490" y="210" on="1"/>
        <pt x="459" y="163" on="0"/>
        <pt x="414" y="136" on="1"/>
        <pt x="978" y="136" on="1"/>
        <pt x="1098" y="136" on="0"/>
        <pt x="1175" y="190" on="1"/>
        <pt x="1052" y="67" on="0"/>
        <pt x="910" y="18" on="1"/>
        <pt x="860" y="0" on="0"/>
        <pt x="814" y="0" on="1"/>
        <pt x="167" y="0" on="1"/>
        <pt x="236" y="55" on="0"/>
        <pt x="261" y="93" on="1"/>
        <pt x="302" y="155" on="0"/>
        <pt x="322" y="239" on="1"/>
        <pt x="396" y="555" on="1"/>
        <pt x="312" y="524" on="0"/>
        <pt x="241" y="504" on="1"/>
        <pt x="236" y="527" on="1"/>
        <pt x="359" y="597" on="0"/>
        <pt x="412" y="624" on="1"/>
        <pt x="570" y="1303" on="1"/>
        <pt x="383" y="1303" on="1"/>
        <pt x="587" y="1439" on="0"/>
        <pt x="609" y="1439" on="1"/>
        <pt x="1065" y="1439" on="1"/>
        <pt x="1049" y="1437" on="0"/>
        <pt x="934" y="1352" on="0"/>
        <pt x="912" y="1337" on="1"/>
        <pt x="862" y="1303" on="0"/>
        <pt x="839" y="1303" on="1"/>
        <pt x="764" y="1303" on="1"/>
        <pt x="634" y="743" on="1"/>
        <pt x="716" y="790" on="0"/>
      </contour>
    </TTGlyph>
    <TTGlyph name="M" xMin="128" yMin="0" xMax="2276" yMax="1469">
      <contour>
        <pt x="683" y="136" on="1"/>
        <pt x="479" y="0" on="0"/>
        <pt x="457" y="0" on="1"/>
        <pt x="128" y="0" on="1"/>
        <pt x="209" y="65" on="0"/>
        <pt x="290" y="270" on="1"/>
        <pt x="412" y="576" on="0"/>
        <pt x="632" y="1303" on="1"/>
        <pt x="380" y="1303" on="1"/>
        <pt x="486" y="1383" on="0"/>
        <pt x="599" y="1439" on="0"/>
        <pt x="606" y="1439" on="1"/>
        <pt x="858" y="1439" on="1"/>
        <pt x="909" y="1300" on="0"/>
        <pt x="1011" y="1025" on="0"/>
        <pt x="1088" y="814" on="0"/>
        <pt x="1142" y="674" on="0"/>
        <pt x="1167" y="604" on="1"/>
        <pt x="1222" y="450" on="0"/>
        <pt x="1249" y="316" on="1"/>
        <pt x="1388" y="489" on="0"/>
        <pt x="1655" y="834" on="0"/>
        <pt x="1855" y="1090" on="0"/>
        <pt x="1981" y="1256" on="0"/>
        <pt x="2065" y="1350" on="0"/>
        <pt x="2123" y="1387" on="0"/>
        <pt x="2189" y="1423" on="0"/>
        <pt x="2254" y="1456" on="0"/>
        <pt x="2276" y="1469" on="1"/>
        <pt x="2236" y="1243" on="0"/>
        <pt x="2152" y="797" on="0"/>
        <pt x="2101" y="520" on="0"/>
        <pt x="2085" y="417" on="0"/>
        <pt x="2072" y="360" on="1"/>
        <pt x="2040" y="219" on="0"/>
        <pt x="1968" y="136" on="1"/>
        <pt x="2264" y="136" on="1"/>
        <pt x="2237" y="127" on="0"/>
        <pt x="2115" y="36" on="0"/>
        <pt x="2058" y="0" on="0"/>
        <pt x="2038" y="0" on="1"/>
        <pt x="1740" y="0" on="1"/>
        <pt x="1799" y="64" on="0"/>
        <pt x="1824" y="152" on="1"/>
        <pt x="1858" y="271" on="0"/>
        <pt x="1977" y="921" on="0"/>
        <pt x="2013" y="1127" on="1"/>
        <pt x="1883" y="966" on="0"/>
        <pt x="1630" y="645" on="0"/>
        <pt x="1463" y="436" on="0"/>
        <pt x="1390" y="341" on="0"/>
        <pt x="1333" y="266" on="0"/>
        <pt x="1292" y="210" on="0"/>
        <pt x="1260" y="176" on="0"/>
        <pt x="1199" y="138" on="0"/>
        <pt x="1127" y="96" on="0"/>
        <pt x="1059" y="58" on="0"/>
        <pt x="1043" y="49" on="1"/>
        <pt x="1028" y="210" on="0"/>
        <pt x="929" y="504" on="0"/>
        <pt x="861" y="679" on="0"/>
        <pt x="829" y="768" on="1"/>
        <pt x="732" y="1033" on="1"/>
        <pt x="571" y="527" on="0"/>
        <pt x="471" y="288" on="0"/>
        <pt x="403" y="169" on="0"/>
        <pt x="363" y="136" on="1"/>
      </contour>
    </TTGlyph>
    <TTGlyph name="N" xMin="188" yMin="-34" xMax="2151" yMax="1439">
      <contour>
        <pt x="1548" y="1303" on="1"/>
        <pt x="1752" y="1439" on="0"/>
        <pt x="1774" y="1439" on="1"/>
        <pt x="2151" y="1439" on="1"/>
        <pt x="2112" y="1427" on="0"/>
        <pt x="2065" y="1388" on="1"/>
        <pt x="1977" y="1318" on="0"/>
        <pt x="1930" y="1304" on="1"/>
        <pt x="1916" y="1223" on="0"/>
        <pt x="1874" y="1065" on="0"/>
        <pt x="1840" y="924" on="1"/>
        <pt x="1773" y="639" on="0"/>
        <pt x="1595" y="207" on="1"/>
        <pt x="1584" y="181" on="0"/>
        <pt x="1564" y="126" on="0"/>
        <pt x="1539" y="88" on="0"/>
        <pt x="1491" y="49" on="0"/>
        <pt x="1434" y="10" on="0"/>
        <pt x="1379" y="-24" on="0"/>
        <pt x="1363" y="-34" on="1"/>
        <pt x="1363" y="-17" on="1"/>
        <pt x="1363" y="48" on="0"/>
        <pt x="1314" y="134" on="1"/>
        <pt x="1300" y="158" on="0"/>
        <pt x="1228" y="285" on="1"/>
        <pt x="1043" y="608" on="0"/>
        <pt x="729" y="1077" on="1"/>
        <pt x="630" y="645" on="1"/>
        <pt x="615" y="582" on="0"/>
        <pt x="584" y="441" on="0"/>
        <pt x="560" y="372" on="1"/>
        <pt x="506" y="213" on="0"/>
        <pt x="420" y="136" on="1"/>
        <pt x="743" y="136" on="1"/>
        <pt x="539" y="0" on="0"/>
        <pt x="517" y="0" on="1"/>
        <pt x="188" y="0" on="1"/>
        <pt x="269" y="88" on="0"/>
        <pt x="306" y="175" on="1"/>
        <pt x="361" y="302" on="0"/>
        <pt x="403" y="480" on="1"/>
        <pt x="501" y="903" on="0"/>
        <pt x="571" y="1303" on="1"/>
        <pt x="344" y="1303" on="1"/>
        <pt x="548" y="1439" on="0"/>
        <pt x="570" y="1439" on="1"/>
        <pt x="947" y="1439" on="1"/>
        <pt x="914" y="1426" on="0"/>
        <pt x="845" y="1372" on="1"/>
        <pt x="1062" y="1064" on="0"/>
        <pt x="1319" y="641" on="0"/>
        <pt x="1442" y="446" on="0"/>
        <pt x="1499" y="343" on="1"/>
        <pt x="1652" y="817" on="0"/>
        <pt x="1727" y="1303" on="1"/>
      </contour>
    </TTGlyph>
    <TTGlyph name="Nacute" xMin="188" yMin="-34" xMax="2151" yMax="1848">
      <component glyphName="N" x="0" y="0" flags="0x1204"/>
      <component glyphName="acute" x="1287" y="145" flags="0x1004"/>
    </TTGlyph>
    <TTGlyph name="Ncaron" xMin="188" yMin="-34" xMax="2151" yMax="1795">
      <component glyphName="N" x="0" y="0" flags="0x1204"/>
      <component glyphName="caron" x="1129" y="167" flags="0x1004"/>
    </TTGlyph>
    <TTGlyph name="Ncommaaccent" xMin="188" yMin="-578" xMax="2151" yMax="1439">
      <component glyphName="N" x="0" y="0" flags="0x1204"/>
      <component glyphName="uni0326" x="700" y="0" flags="0x1004"/>
    </TTGlyph>
    <TTGlyph name="Ntilde" xMin="188" yMin="-34" xMax="2151" yMax="1803">
      <component glyphName="N" x="0" y="0" flags="0x1004"/>
      <component glyphName="tilde" x="954" y="280" flags="0x1004"/>
    </TTGlyph>
    <TTGlyph name="O" xMin="214" yMin="-81" xMax="1896" yMax="1483">
      <contour>
        <pt x="752" y="-81" on="1"/>
        <pt x="647" y="-81" on="0"/>
        <pt x="445" y="-24" on="0"/>
        <pt x="372" y="36" on="1"/>
        <pt x="214" y="163" on="0"/>
        <pt x="214" y="404" on="1"/>
        <pt x="214" y="678" on="0"/>
        <pt x="388" y="934" on="1"/>
        <pt x="553" y="1178" on="0"/>
        <pt x="816" y="1328" on="1"/>
        <pt x="1085" y="1483" on="0"/>
        <pt x="1355" y="1483" on="1"/>
        <pt x="1583" y="1483" on="0"/>
        <pt x="1736" y="1351" on="1"/>
        <pt x="1896" y="1213" on="0"/>
        <pt x="1896" y="987" on="1"/>
        <pt x="1896" y="715" on="0"/>
        <pt x="1667" y="428" on="1"/>
        <pt x="1451" y="159" on="0"/>
        <pt x="1148" y="16" on="1"/>
        <pt x="943" y="-81" on="0"/>
      </contour>
      <contour>
        <pt x="1665" y="863" on="1"/>
        <pt x="1665" y="973" on="0"/>
        <pt x="1583" y="1159" on="0"/>
        <pt x="1510" y="1220" on="1"/>
        <pt x="1365" y="1343" on="0"/>
        <pt x="1119" y="1343" on="1"/>
        <pt x="901" y="1343" on="0"/>
        <pt x="741" y="1228" on="1"/>
        <pt x="597" y="1124" on="0"/>
        <pt x="518" y="937" on="1"/>
        <pt x="445" y="763" on="0"/>
        <pt x="445" y="549" on="1"/>
        <pt x="445" y="302" on="0"/>
        <pt x="598" y="172" on="1"/>
        <pt x="741" y="51" on="0"/>
        <pt x="992" y="51" on="1"/>
        <pt x="1194" y="51" on="0"/>
        <pt x="1355" y="172" on="1"/>
        <pt x="1500" y="282" on="0"/>
        <pt x="1584" y="472" on="1"/>
        <pt x="1665" y="652" on="0"/>
      </contour>
    </TTGlyph>
    <TTGlyph name="OE" xMin="214" yMin="-81" xMax="2656" yMax="1483">
      <contour>
        <pt x="1355" y="1483" on="1"/>
        <pt x="1562" y="1483" on="0"/>
        <pt x="1709" y="1373" on="1"/>
        <pt x="1716" y="1377" on="0"/>
        <pt x="1749" y="1399" on="0"/>
        <pt x="1768" y="1410" on="1"/>
        <pt x="1817" y="1439" on="0"/>
        <pt x="1831" y="1439" on="1"/>
        <pt x="2656" y="1439" on="1"/>
        <pt x="2627" y="1431" on="0"/>
        <pt x="2522" y="1349" on="0"/>
        <pt x="2502" y="1335" on="1"/>
        <pt x="2455" y="1303" on="0"/>
        <pt x="2430" y="1303" on="1"/>
        <pt x="1986" y="1303" on="1"/>
        <pt x="1873" y="818" on="1"/>
        <pt x="2358" y="818" on="1"/>
        <pt x="2331" y="811" on="0"/>
        <pt x="2223" y="728" on="0"/>
        <pt x="2203" y="714" on="1"/>
        <pt x="2157" y="682" on="0"/>
        <pt x="2132" y="682" on="1"/>
        <pt x="1842" y="682" on="1"/>
        <pt x="1766" y="356" on="1"/>
        <pt x="1737" y="238" on="0"/>
        <pt x="1690" y="173" on="1"/>
        <pt x="1670" y="146" on="0"/>
        <pt x="1647" y="136" on="1"/>
        <pt x="2203" y="136" on="1"/>
        <pt x="2261" y="136" on="0"/>
        <pt x="2395" y="188" on="1"/>
        <pt x="2357" y="153" on="0"/>
        <pt x="2181" y="56" on="0"/>
        <pt x="2145" y="39" on="1"/>
        <pt x="2062" y="0" on="0"/>
        <pt x="2036" y="0" on="1"/>
        <pt x="1399" y="0" on="1"/>
        <pt x="1498" y="102" on="0"/>
        <pt x="1538" y="221" on="1"/>
        <pt x="1551" y="262" on="0"/>
        <pt x="1561" y="310" on="1"/>
        <pt x="1298" y="44" on="0"/>
        <pt x="984" y="-48" on="1"/>
        <pt x="874" y="-81" on="0"/>
        <pt x="647" y="-81" on="0"/>
        <pt x="445" y="-24" on="0"/>
        <pt x="372" y="36" on="1"/>
        <pt x="214" y="163" on="0"/>
        <pt x="214" y="404" on="1"/>
        <pt x="214" y="678" on="0"/>
        <pt x="388" y="934" on="1"/>
        <pt x="553" y="1178" on="0"/>
        <pt x="816" y="1328" on="1"/>
        <pt x="1085" y="1483" on="0"/>
      </contour>
      <contour>
        <pt x="1507" y="682" on="1"/>
        <pt x="1568" y="724" on="0"/>
        <pt x="1662" y="784" on="1"/>
        <pt x="1665" y="817" on="0"/>
        <pt x="1665" y="849" on="1"/>
        <pt x="1665" y="1090" on="0"/>
        <pt x="1510" y="1220" on="1"/>
        <pt x="1365" y="1343" on="0"/>
        <pt x="1119" y="1343" on="1"/>
        <pt x="901" y="1343" on="0"/>
        <pt x="741" y="1228" on="1"/>
        <pt x="597" y="1124" on="0"/>
        <pt x="518" y="937" on="1"/>
        <pt x="445" y="763" on="0"/>
        <pt x="445" y="549" on="1"/>
        <pt x="445" y="302" on="0"/>
        <pt x="598" y="172" on="1"/>
        <pt x="741" y="51" on="0"/>
        <pt x="992" y="51" on="1"/>
        <pt x="1257" y="51" on="0"/>
        <pt x="1434" y="240" on="1"/>
        <pt x="1588" y="404" on="0"/>
        <pt x="1647" y="682" on="1"/>
      </contour>
    </TTGlyph>
    <TTGlyph name="Oacute" xMin="214" yMin="-81" xMax="1896" yMax="2016">
      <component glyphName="O" x="0" y="0" flags="0x1204"/>
      <component glyphName="acute" x="1022" y="313" flags="0x1004"/>
    </TTGlyph>
    <TTGlyph name="Obreve" xMin="214" yMin="-81" xMax="1896" yMax="1937">
      <component glyphName="O" x="0" y="0" flags="0x1204"/>
      <component glyphName="breve" x="902" y="310" flags="0x1004"/>
    </TTGlyph>
    <TTGlyph name="Ocircumflex" xMin="214" yMin="-81" xMax="1896" yMax="1933">
      <component glyphName="O" x="0" y="0" flags="0x1204"/>
      <component glyphName="circumflex" x="903" y="305" flags="0x1004"/>
    </TTGlyph>
    <TTGlyph name="Odieresis" xMin="214" yMin="-81" xMax="1896" yMax="1855">
      <component glyphName="O" x="0" y="0" flags="0x1204"/>
      <component glyphName="dieresis" x="987" y="333" flags="0x1004"/>
    </TTGlyph>
    <TTGlyph name="Ograve" xMin="214" yMin="-81" xMax="1896" yMax="2025">
      <component glyphName="O" x="0" y="0" flags="0x1204"/>
      <component glyphName="grave" x="894" y="319" flags="0x1004"/>
    </TTGlyph>
    <TTGlyph name="Ohungarumlaut" xMin="214" yMin="-81" xMax="1896" yMax="2005">
      <component glyphName="O" x="0" y="0" flags="0x1204"/>
      <component glyphName="hungarumlaut" x="998" y="302" flags="0x1004"/>
    </TTGlyph>
    <TTGlyph name="Omacron" xMin="214" yMin="-81" xMax="1896" yMax="1718">
      <component glyphName="O" x="0" y="0" flags="0x1204"/>
      <component glyphName="macron" x="869" y="255" flags="0x1004"/>
    </TTGlyph>
    <TTGlyph name="Oslash" xMin="214" yMin="-160" xMax="1896" yMax="1624">
      <contour>
        <pt x="1727" y="1624" on="1"/>
        <pt x="1685" y="1548" on="0"/>
        <pt x="1614" y="1429" on="1"/>
        <pt x="1817" y="1338" on="0"/>
        <pt x="1877" y="1127" on="1"/>
        <pt x="1896" y="1060" on="0"/>
        <pt x="1896" y="893" on="0"/>
        <pt x="1839" y="701" on="0"/>
        <pt x="1737" y="516" on="0"/>
        <pt x="1597" y="341" on="0"/>
        <pt x="1431" y="188" on="0"/>
        <pt x="1244" y="61" on="0"/>
        <pt x="1148" y="16" on="1"/>
        <pt x="943" y="-81" on="0"/>
        <pt x="636" y="-81" on="0"/>
        <pt x="541" y="-51" on="1"/>
        <pt x="511" y="-72" on="0"/>
        <pt x="464" y="-94" on="1"/>
        <pt x="376" y="-135" on="0"/>
        <pt x="346" y="-160" on="1"/>
        <pt x="375" y="-125" on="0"/>
        <pt x="432" y="-56" on="0"/>
        <pt x="461" y="-21" on="1"/>
        <pt x="214" y="99" on="0"/>
        <pt x="214" y="404" on="1"/>
        <pt x="214" y="678" on="0"/>
        <pt x="388" y="934" on="1"/>
        <pt x="553" y="1178" on="0"/>
        <pt x="816" y="1328" on="1"/>
        <pt x="1085" y="1483" on="0"/>
        <pt x="1355" y="1483" on="1"/>
        <pt x="1418" y="1483" on="0"/>
        <pt x="1489" y="1470" on="1"/>
        <pt x="1508" y="1509" on="0"/>
        <pt x="1596" y="1554" on="1"/>
        <pt x="1632" y="1572" on="0"/>
        <pt x="1703" y="1606" on="0"/>
      </contour>
      <contour>
        <pt x="686" y="114" on="1"/>
        <pt x="814" y="51" on="0"/>
        <pt x="992" y="51" on="1"/>
        <pt x="1194" y="51" on="0"/>
        <pt x="1355" y="172" on="1"/>
        <pt x="1500" y="282" on="0"/>
        <pt x="1584" y="472" on="1"/>
        <pt x="1665" y="652" on="0"/>
        <pt x="1665" y="849" on="1"/>
        <pt x="1665" y="969" on="0"/>
        <pt x="1634" y="1040" on="1"/>
        <pt x="1580" y="1167" on="0"/>
        <pt x="1493" y="1233" on="1"/>
        <pt x="1119" y="642" on="0"/>
        <pt x="810" y="265" on="1"/>
        <pt x="748" y="190" on="0"/>
      </contour>
      <contour>
        <pt x="1382" y="1296" on="1"/>
        <pt x="1268" y="1343" on="0"/>
        <pt x="1004" y="1343" on="0"/>
        <pt x="816" y="1282" on="0"/>
        <pt x="666" y="1174" on="0"/>
        <pt x="555" y="1025" on="0"/>
        <pt x="518" y="936" on="1"/>
        <pt x="445" y="762" on="0"/>
        <pt x="445" y="549" on="1"/>
        <pt x="445" y="294" on="0"/>
        <pt x="608" y="164" on="1"/>
        <pt x="928" y="574" on="0"/>
        <pt x="1116" y="868" on="1"/>
        <pt x="1232" y="1050" on="0"/>
      </contour>
    </TTGlyph>
    <TTGlyph name="Oslashacute" xMin="214" yMin="-160" xMax="1896" yMax="1971">
      <component glyphName="Oslash" x="0" y="0" flags="0x1204"/>
      <component glyphName="acute" x="1066" y="268" flags="0x1004"/>
    </TTGlyph>
    <TTGlyph name="Otilde" xMin="214" yMin="-81" xMax="1896" yMax="1836">
      <component glyphName="O" x="0" y="0" flags="0x1204"/>
      <component glyphName="tilde" x="796" y="313" flags="0x1004"/>
    </TTGlyph>
    <TTGlyph name="P" xMin="166" yMin="0" xMax="1470" yMax="1439">
      <contour>
        <pt x="347" y="1303" on="1"/>
        <pt x="551" y="1439" on="0"/>
        <pt x="573" y="1439" on="1"/>
        <pt x="1110" y="1439" on="1"/>
        <pt x="1348" y="1439" on="0"/>
        <pt x="1438" y="1293" on="1"/>
        <pt x="1470" y="1241" on="0"/>
        <pt x="1470" y="1097" on="0"/>
        <pt x="1425" y="975" on="0"/>
        <pt x="1349" y="868" on="0"/>
        <pt x="1248" y="775" on="0"/>
        <pt x="1192" y="736" on="1"/>
        <pt x="1100" y="671" on="0"/>
        <pt x="994" y="619" on="1"/>
        <pt x="807" y="527" on="0"/>
        <pt x="647" y="527" on="1"/>
        <pt x="620" y="527" on="0"/>
        <pt x="592" y="529" on="1"/>
        <pt x="554" y="365" on="0"/>
        <pt x="533" y="315" on="1"/>
        <pt x="489" y="207" on="0"/>
        <pt x="394" y="136" on="1"/>
        <pt x="709" y="136" on="1"/>
        <pt x="683" y="129" on="0"/>
        <pt x="563" y="38" on="0"/>
        <pt x="504" y="0" on="0"/>
        <pt x="483" y="0" on="1"/>
        <pt x="166" y="0" on="1"/>
        <pt x="248" y="60" on="0"/>
        <pt x="274" y="103" on="1"/>
        <pt x="311" y="162" on="0"/>
        <pt x="336" y="268" on="1"/>
        <pt x="577" y="1303" on="1"/>
      </contour>
      <contour>
        <pt x="634" y="711" on="1"/>
        <pt x="815" y="664" on="0"/>
        <pt x="985" y="664" on="0"/>
        <pt x="1116" y="721" on="0"/>
        <pt x="1160" y="772" on="1"/>
        <pt x="1247" y="875" on="0"/>
        <pt x="1247" y="1042" on="1"/>
        <pt x="1247" y="1303" on="0"/>
        <pt x="815" y="1303" on="1"/>
        <pt x="772" y="1303" on="1"/>
      </contour>
    </TTGlyph>
    <TTGlyph name="Q" xMin="222" yMin="-295" xMax="2191" yMax="1483">
      <contour>
        <pt x="1118" y="33" on="1"/>
        <pt x="956" y="-41" on="0"/>
        <pt x="774" y="-41" on="1"/>
        <pt x="530" y="-41" on="0"/>
        <pt x="382" y="76" on="1"/>
        <pt x="222" y="205" on="0"/>
        <pt x="222" y="442" on="1"/>
        <pt x="222" y="708" on="0"/>
        <pt x="399" y="958" on="1"/>
        <pt x="565" y="1191" on="0"/>
        <pt x="827" y="1336" on="1"/>
        <pt x="1094" y="1483" on="0"/>
        <pt x="1356" y="1483" on="1"/>
        <pt x="1584" y="1483" on="0"/>
        <pt x="1737" y="1351" on="1"/>
        <pt x="1897" y="1213" on="0"/>
        <pt x="1897" y="987" on="1"/>
        <pt x="1897" y="751" on="0"/>
        <pt x="1723" y="516" on="1"/>
        <pt x="1577" y="317" on="0"/>
        <pt x="1349" y="165" on="1"/>
        <pt x="1415" y="111" on="0"/>
        <pt x="1553" y="-4" on="0"/>
        <pt x="1628" y="-51" on="1"/>
        <pt x="1797" y="-158" on="0"/>
        <pt x="1956" y="-158" on="1"/>
        <pt x="2033" y="-158" on="0"/>
        <pt x="2191" y="-103" on="1"/>
        <pt x="2034" y="-232" on="0"/>
        <pt x="1846" y="-279" on="1"/>
        <pt x="1782" y="-295" on="0"/>
        <pt x="1716" y="-295" on="1"/>
        <pt x="1590" y="-295" on="0"/>
        <pt x="1368" y="-164" on="0"/>
        <pt x="1200" y="-33" on="0"/>
      </contour>
      <contour>
        <pt x="1669" y="866" on="1"/>
        <pt x="1669" y="973" on="0"/>
        <pt x="1583" y="1157" on="0"/>
        <pt x="1508" y="1218" on="1"/>
        <pt x="1356" y="1343" on="0"/>
        <pt x="1119" y="1343" on="1"/>
        <pt x="805" y="1343" on="0"/>
        <pt x="621" y="1114" on="1"/>
        <pt x="451" y="903" on="0"/>
        <pt x="451" y="586" on="1"/>
        <pt x="451" y="346" on="0"/>
        <pt x="609" y="214" on="1"/>
        <pt x="758" y="91" on="0"/>
        <pt x="1002" y="91" on="1"/>
        <pt x="1195" y="91" on="0"/>
        <pt x="1353" y="206" on="1"/>
        <pt x="1498" y="312" on="0"/>
        <pt x="1585" y="490" on="1"/>
        <pt x="1669" y="664" on="0"/>
      </contour>
    </TTGlyph>
    <TTGlyph name="R" xMin="191" yMin="-5" xMax="1559" yMax="1439">
      <contour>
        <pt x="1067" y="1439" on="1"/>
        <pt x="1468" y="1439" on="0"/>
        <pt x="1468" y="1210" on="1"/>
        <pt x="1468" y="993" on="0"/>
        <pt x="1194" y="810" on="1"/>
        <pt x="1095" y="743" on="0"/>
        <pt x="977" y="692" on="1"/>
        <pt x="1029" y="669" on="0"/>
        <pt x="1088" y="601" on="0"/>
        <pt x="1120" y="553" on="0"/>
        <pt x="1137" y="528" on="1"/>
        <pt x="1331" y="240" on="1"/>
        <pt x="1343" y="223" on="0"/>
        <pt x="1368" y="185" on="0"/>
        <pt x="1383" y="169" on="1"/>
        <pt x="1417" y="133" on="0"/>
        <pt x="1449" y="133" on="1"/>
        <pt x="1501" y="133" on="0"/>
        <pt x="1559" y="165" on="1"/>
        <pt x="1455" y="51" on="0"/>
        <pt x="1314" y="9" on="1"/>
        <pt x="1266" y="-5" on="0"/>
        <pt x="1202" y="-5" on="0"/>
        <pt x="1175" y="9" on="0"/>
        <pt x="1153" y="32" on="0"/>
        <pt x="1136" y="59" on="0"/>
        <pt x="1127" y="72" on="1"/>
        <pt x="928" y="367" on="1"/>
        <pt x="890" y="423" on="0"/>
        <pt x="834" y="507" on="0"/>
        <pt x="801" y="535" on="1"/>
        <pt x="736" y="590" on="0"/>
        <pt x="602" y="590" on="1"/>
        <pt x="555" y="388" on="1"/>
        <pt x="531" y="288" on="0"/>
        <pt x="515" y="256" on="1"/>
        <pt x="488" y="201" on="0"/>
        <pt x="426" y="136" on="1"/>
        <pt x="746" y="136" on="1"/>
        <pt x="727" y="132" on="0"/>
        <pt x="665" y="86" on="1"/>
        <pt x="549" y="0" on="0"/>
        <pt x="520" y="0" on="1"/>
        <pt x="191" y="0" on="1"/>
        <pt x="291" y="86" on="0"/>
        <pt x="326" y="239" on="1"/>
        <pt x="574" y="1303" on="1"/>
        <pt x="358" y="1303" on="1"/>
        <pt x="562" y="1439" on="0"/>
        <pt x="584" y="1439" on="1"/>
      </contour>
      <contour>
        <pt x="1126" y="805" on="0"/>
        <pt x="1212" y="908" on="0"/>
        <pt x="1240" y="1031" on="0"/>
        <pt x="1240" y="1111" on="0"/>
        <pt x="1209" y="1183" on="0"/>
        <pt x="1157" y="1236" on="0"/>
        <pt x="1088" y="1272" on="0"/>
        <pt x="1050" y="1283" on="1"/>
        <pt x="980" y="1303" on="0"/>
        <pt x="892" y="1303" on="1"/>
        <pt x="768" y="1303" on="1"/>
        <pt x="635" y="730" on="1"/>
        <pt x="791" y="730" on="1"/>
        <pt x="972" y="730" on="0"/>
        <pt x="1068" y="776" on="1"/>
      </contour>
    </TTGlyph>
    <TTGlyph name="Racute" xMin="191" yMin="-5" xMax="1559" yMax="1954">
      <component glyphName="R" x="0" y="0" flags="0x1204"/>
      <component glyphName="acute" x="967" y="251" flags="0x1004"/>
    </TTGlyph>
    <TTGlyph name="Rcaron" xMin="191" yMin="-5" xMax="1559" yMax="1883">
      <component glyphName="R" x="0" y="0" flags="0x1204"/>
      <component glyphName="caron" x="783" y="255" flags="0x1004"/>
    </TTGlyph>
    <TTGlyph name="Rcommaaccent" xMin="191" yMin="-519" xMax="1559" yMax="1439">
      <component glyphName="R" x="0" y="0" flags="0x1204"/>
      <component glyphName="uni0326" x="531" y="59" flags="0x1004"/>
    </TTGlyph>
    <TTGlyph name="S" xMin="92" yMin="-24" xMax="1359" yMax="1467">
      <contour>
        <pt x="370" y="319" on="1"/>
        <pt x="323" y="280" on="0"/>
        <pt x="323" y="211" on="0"/>
        <pt x="359" y="173" on="0"/>
        <pt x="416" y="146" on="0"/>
        <pt x="486" y="128" on="0"/>
        <pt x="520" y="123" on="1"/>
        <pt x="583" y="114" on="0"/>
        <pt x="705" y="114" on="0"/>
        <pt x="838" y="147" on="0"/>
        <pt x="890" y="182" on="1"/>
        <pt x="1004" y="260" on="0"/>
        <pt x="1004" y="410" on="1"/>
        <pt x="1004" y="558" on="0"/>
        <pt x="801" y="638" on="1"/>
        <pt x="743" y="661" on="0"/>
        <pt x="623" y="702" on="0"/>
        <pt x="507" y="747" on="0"/>
        <pt x="462" y="776" on="1"/>
        <pt x="362" y="840" on="0"/>
        <pt x="362" y="942" on="1"/>
        <pt x="362" y="1067" on="0"/>
        <pt x="510" y="1198" on="1"/>
        <pt x="637" y="1309" on="0"/>
        <pt x="830" y="1390" on="1"/>
        <pt x="1012" y="1467" on="0"/>
        <pt x="1129" y="1467" on="1"/>
        <pt x="1222" y="1467" on="0"/>
        <pt x="1331" y="1433" on="0"/>
        <pt x="1359" y="1413" on="0"/>
        <pt x="1359" y="1389" on="0"/>
        <pt x="1324" y="1355" on="0"/>
        <pt x="1270" y="1315" on="0"/>
        <pt x="1205" y="1273" on="0"/>
        <pt x="1174" y="1256" on="1"/>
        <pt x="1099" y="1213" on="0"/>
        <pt x="1082" y="1207" on="1"/>
        <pt x="1128" y="1238" on="0"/>
        <pt x="1128" y="1284" on="0"/>
        <pt x="1071" y="1310" on="0"/>
        <pt x="1034" y="1318" on="1"/>
        <pt x="972" y="1330" on="0"/>
        <pt x="848" y="1330" on="0"/>
        <pt x="732" y="1306" on="0"/>
        <pt x="688" y="1277" on="1"/>
        <pt x="589" y="1213" on="0"/>
        <pt x="589" y="1080" on="1"/>
        <pt x="589" y="930" on="0"/>
        <pt x="790" y="858" on="1"/>
        <pt x="847" y="837" on="0"/>
        <pt x="966" y="800" on="0"/>
        <pt x="1080" y="759" on="0"/>
        <pt x="1124" y="729" on="1"/>
        <pt x="1224" y="662" on="0"/>
        <pt x="1224" y="467" on="0"/>
        <pt x="1142" y="315" on="0"/>
        <pt x="1006" y="186" on="0"/>
        <pt x="832" y="84" on="0"/>
        <pt x="740" y="49" on="1"/>
        <pt x="548" y="-24" on="0"/>
        <pt x="395" y="-24" on="1"/>
        <pt x="317" y="-24" on="0"/>
        <pt x="183" y="13" on="0"/>
        <pt x="155" y="28" on="1"/>
        <pt x="92" y="60" on="0"/>
        <pt x="92" y="103" on="1"/>
        <pt x="92" y="188" on="0"/>
      </contour>
    </TTGlyph>
    <TTGlyph name="Sacute" xMin="92" yMin="-24" xMax="1359" yMax="1925">
      <component glyphName="S" x="0" y="0" flags="0x1204"/>
      <component glyphName="acute" x="763" y="222" flags="0x1004"/>
    </TTGlyph>
    <TTGlyph name="Scaron" xMin="89" yMin="-24" xMax="1495" yMax="1899">
      <component glyphName="S" x="-3" y="0" flags="0x1204"/>
      <component glyphName="caron" x="806" y="271" flags="0x1004"/>
    </TTGlyph>
    <TTGlyph name="Scedilla" xMin="92" yMin="-501" xMax="1359" yMax="1467">
      <contour>
        <pt x="370" y="319" on="1"/>
        <pt x="323" y="280" on="0"/>
        <pt x="323" y="211" on="0"/>
        <pt x="359" y="173" on="0"/>
        <pt x="416" y="146" on="0"/>
        <pt x="486" y="128" on="0"/>
        <pt x="520" y="123" on="1"/>
        <pt x="583" y="114" on="0"/>
        <pt x="705" y="114" on="0"/>
        <pt x="838" y="147" on="0"/>
        <pt x="890" y="182" on="1"/>
        <pt x="1004" y="260" on="0"/>
        <pt x="1004" y="410" on="1"/>
        <pt x="1004" y="558" on="0"/>
        <pt x="801" y="638" on="1"/>
        <pt x="743" y="661" on="0"/>
        <pt x="623" y="702" on="0"/>
        <pt x="507" y="747" on="0"/>
        <pt x="462" y="776" on="1"/>
        <pt x="362" y="840" on="0"/>
        <pt x="362" y="942" on="1"/>
        <pt x="362" y="1067" on="0"/>
        <pt x="510" y="1198" on="1"/>
        <pt x="637" y="1309" on="0"/>
        <pt x="830" y="1390" on="1"/>
        <pt x="1012" y="1467" on="0"/>
        <pt x="1129" y="1467" on="1"/>
        <pt x="1222" y="1467" on="0"/>
        <pt x="1331" y="1433" on="0"/>
        <pt x="1359" y="1413" on="0"/>
        <pt x="1359" y="1389" on="0"/>
        <pt x="1324" y="1355" on="0"/>
        <pt x="1270" y="1315" on="0"/>
        <pt x="1205" y="1273" on="0"/>
        <pt x="1174" y="1256" on="1"/>
        <pt x="1099" y="1213" on="0"/>
        <pt x="1082" y="1207" on="1"/>
        <pt x="1128" y="1238" on="0"/>
        <pt x="1128" y="1284" on="0"/>
        <pt x="1071" y="1310" on="0"/>
        <pt x="1034" y="1318" on="1"/>
        <pt x="972" y="1330" on="0"/>
        <pt x="848" y="1330" on="0"/>
        <pt x="732" y="1306" on="0"/>
        <pt x="688" y="1277" on="1"/>
        <pt x="589" y="1213" on="0"/>
        <pt x="589" y="1080" on="1"/>
        <pt x="589" y="930" on="0"/>
        <pt x="790" y="858" on="1"/>
        <pt x="847" y="837" on="0"/>
        <pt x="966" y="800" on="0"/>
        <pt x="1080" y="759" on="0"/>
        <pt x="1124" y="729" on="1"/>
        <pt x="1224" y="662" on="0"/>
        <pt x="1224" y="554" on="1"/>
        <pt x="1224" y="413" on="0"/>
        <pt x="1106" y="283" on="1"/>
        <pt x="954" y="115" on="0"/>
        <pt x="672" y="25" on="1"/>
        <pt x="590" y="-1" on="0"/>
        <pt x="515" y="-13" on="1"/>
        <pt x="402" y="-108" on="1"/>
        <pt x="426" y="-92" on="0"/>
        <pt x="506" y="-92" on="0"/>
        <pt x="542" y="-98" on="0"/>
        <pt x="558" y="-105" on="1"/>
        <pt x="594" y="-121" on="0"/>
        <pt x="594" y="-189" on="0"/>
        <pt x="544" y="-258" on="0"/>
        <pt x="464" y="-326" on="0"/>
        <pt x="365" y="-391" on="0"/>
        <pt x="316" y="-418" on="1"/>
        <pt x="237" y="-463" on="0"/>
        <pt x="159" y="-501" on="1"/>
        <pt x="191" y="-475" on="0"/>
        <pt x="261" y="-436" on="0"/>
        <pt x="310" y="-405" on="0"/>
        <pt x="337" y="-377" on="0"/>
        <pt x="347" y="-360" on="1"/>
        <pt x="369" y="-321" on="0"/>
        <pt x="369" y="-288" on="1"/>
        <pt x="369" y="-226" on="0"/>
        <pt x="274" y="-226" on="1"/>
        <pt x="243" y="-226" on="0"/>
        <pt x="179" y="-242" on="1"/>
        <pt x="228" y="-205" on="0"/>
        <pt x="325" y="-133" on="0"/>
        <pt x="430" y="-55" on="0"/>
        <pt x="481" y="-18" on="1"/>
        <pt x="436" y="-24" on="0"/>
        <pt x="377" y="-24" on="0"/>
        <pt x="319" y="-19" on="0"/>
        <pt x="252" y="-6" on="0"/>
        <pt x="183" y="13" on="0"/>
        <pt x="155" y="28" on="1"/>
        <pt x="92" y="60" on="0"/>
        <pt x="92" y="103" on="1"/>
        <pt x="92" y="188" on="0"/>
      </contour>
    </TTGlyph>
    <TTGlyph name="Scircumflex" xMin="92" yMin="-24" xMax="1359" yMax="1900">
      <component glyphName="S" x="0" y="0" flags="0x1204"/>
      <component glyphName="circumflex" x="571" y="272" flags="0x1004"/>
    </TTGlyph>
    <TTGlyph name="T" xMin="300" yMin="0" xMax="1654" yMax="1439">
      <contour>
        <pt x="300" y="1303" on="1"/>
        <pt x="504" y="1439" on="0"/>
        <pt x="526" y="1439" on="1"/>
        <pt x="1654" y="1439" on="1"/>
        <pt x="1638" y="1436" on="0"/>
        <pt x="1522" y="1352" on="0"/>
        <pt x="1500" y="1337" on="1"/>
        <pt x="1450" y="1303" on="0"/>
        <pt x="1428" y="1303" on="1"/>
        <pt x="1018" y="1303" on="1"/>
        <pt x="805" y="388" on="1"/>
        <pt x="774" y="265" on="0"/>
        <pt x="714" y="183" on="1"/>
        <pt x="692" y="152" on="0"/>
        <pt x="665" y="136" on="1"/>
        <pt x="995" y="136" on="1"/>
        <pt x="976" y="132" on="0"/>
        <pt x="863" y="48" on="0"/>
        <pt x="841" y="34" on="1"/>
        <pt x="790" y="0" on="0"/>
        <pt x="769" y="0" on="1"/>
        <pt x="420" y="0" on="1"/>
        <pt x="495" y="56" on="0"/>
        <pt x="519" y="93" on="1"/>
        <pt x="556" y="153" on="0"/>
        <pt x="576" y="239" on="1"/>
        <pt x="823" y="1303" on="1"/>
      </contour>
    </TTGlyph>
    <TTGlyph name="Tbar" xMin="300" yMin="0" xMax="1654" yMax="1439">
      <contour>
        <pt x="300" y="1303" on="1"/>
        <pt x="504" y="1439" on="0"/>
        <pt x="526" y="1439" on="1"/>
        <pt x="1654" y="1439" on="1"/>
        <pt x="1638" y="1436" on="0"/>
        <pt x="1522" y="1352" on="0"/>
        <pt x="1500" y="1337" on="1"/>
        <pt x="1450" y="1303" on="0"/>
        <pt x="1428" y="1303" on="1"/>
        <pt x="1018" y="1303" on="1"/>
        <pt x="878" y="703" on="1"/>
        <pt x="1116" y="703" on="1"/>
        <pt x="1100" y="700" on="0"/>
        <pt x="984" y="616" on="0"/>
        <pt x="962" y="601" on="1"/>
        <pt x="912" y="567" on="0"/>
        <pt x="890" y="567" on="1"/>
        <pt x="846" y="567" on="1"/>
        <pt x="805" y="388" on="1"/>
        <pt x="774" y="265" on="0"/>
        <pt x="714" y="183" on="1"/>
        <pt x="692" y="152" on="0"/>
        <pt x="665" y="136" on="1"/>
        <pt x="995" y="136" on="1"/>
        <pt x="976" y="132" on="0"/>
        <pt x="863" y="48" on="0"/>
        <pt x="841" y="34" on="1"/>
        <pt x="790" y="0" on="0"/>
        <pt x="769" y="0" on="1"/>
        <pt x="420" y="0" on="1"/>
        <pt x="495" y="56" on="0"/>
        <pt x="519" y="93" on="1"/>
        <pt x="556" y="153" on="0"/>
        <pt x="576" y="239" on="1"/>
        <pt x="652" y="567" on="1"/>
        <pt x="424" y="567" on="1"/>
        <pt x="440" y="569" on="0"/>
        <pt x="555" y="654" on="0"/>
        <pt x="577" y="669" on="1"/>
        <pt x="627" y="703" on="0"/>
        <pt x="650" y="703" on="1"/>
        <pt x="683" y="703" on="1"/>
        <pt x="823" y="1303" on="1"/>
      </contour>
    </TTGlyph>
    <TTGlyph name="Tcaron" xMin="300" yMin="0" xMax="1654" yMax="1891">
      <component glyphName="T" x="0" y="0" flags="0x1204"/>
      <component glyphName="caron" x="801" y="263" flags="0x1004"/>
    </TTGlyph>
    <TTGlyph name="Tcommaaccent" xMin="300" yMin="-578" xMax="1654" yMax="1439">
      <component glyphName="T" x="0" y="0" flags="0x1204"/>
      <component glyphName="uni0326" x="351" y="0" flags="0x1004"/>
    </TTGlyph>
    <TTGlyph name="Thorn" xMin="158" yMin="0" xMax="1406" yMax="1477">
      <contour>
        <pt x="899" y="364" on="1"/>
        <pt x="743" y="288" on="0"/>
        <pt x="608" y="288" on="1"/>
        <pt x="549" y="288" on="0"/>
        <pt x="515" y="292" on="1"/>
        <pt x="472" y="199" on="0"/>
        <pt x="386" y="135" on="1"/>
        <pt x="700" y="135" on="1"/>
        <pt x="676" y="130" on="0"/>
        <pt x="567" y="46" on="0"/>
        <pt x="546" y="32" on="1"/>
        <pt x="500" y="0" on="0"/>
        <pt x="475" y="0" on="1"/>
        <pt x="158" y="0" on="1"/>
        <pt x="270" y="75" on="0"/>
        <pt x="304" y="180" on="1"/>
        <pt x="316" y="216" on="0"/>
        <pt x="328" y="266" on="1"/>
        <pt x="514" y="1065" on="1"/>
        <pt x="284" y="1065" on="1"/>
        <pt x="293" y="1071" on="0"/>
        <pt x="329" y="1096" on="0"/>
        <pt x="374" y="1126" on="0"/>
        <pt x="423" y="1158" on="0"/>
        <pt x="445" y="1171" on="1"/>
        <pt x="496" y="1201" on="0"/>
        <pt x="510" y="1201" on="1"/>
        <pt x="545" y="1201" on="1"/>
        <pt x="578" y="1341" on="1"/>
        <pt x="606" y="1360" on="0"/>
        <pt x="660" y="1397" on="0"/>
        <pt x="717" y="1431" on="0"/>
        <pt x="780" y="1457" on="0"/>
        <pt x="804" y="1477" on="1"/>
        <pt x="740" y="1201" on="1"/>
        <pt x="1046" y="1201" on="1"/>
        <pt x="1191" y="1201" on="0"/>
        <pt x="1290" y="1138" on="1"/>
        <pt x="1406" y="1066" on="0"/>
        <pt x="1406" y="927" on="1"/>
        <pt x="1406" y="646" on="0"/>
        <pt x="1012" y="424" on="1"/>
        <pt x="954" y="391" on="0"/>
      </contour>
      <contour>
        <pt x="570" y="472" on="1"/>
        <pt x="710" y="426" on="0"/>
        <pt x="974" y="426" on="0"/>
        <pt x="1132" y="549" on="0"/>
        <pt x="1164" y="685" on="1"/>
        <pt x="1178" y="743" on="0"/>
        <pt x="1178" y="857" on="0"/>
        <pt x="1141" y="943" on="0"/>
        <pt x="1077" y="1003" on="0"/>
        <pt x="992" y="1039" on="0"/>
        <pt x="944" y="1049" on="1"/>
        <pt x="869" y="1065" on="0"/>
        <pt x="751" y="1065" on="1"/>
        <pt x="708" y="1065" on="1"/>
      </contour>
    </TTGlyph>
    <TTGlyph name="U" xMin="324" yMin="-27" xMax="2084" yMax="1440">
      <contour>
        <pt x="2084" y="1440" on="1"/>
        <pt x="2055" y="1430" on="0"/>
        <pt x="1937" y="1341" on="0"/>
        <pt x="1879" y="1304" on="0"/>
        <pt x="1858" y="1304" on="1"/>
        <pt x="1784" y="1304" on="1"/>
        <pt x="1571" y="389" on="1"/>
        <pt x="1528" y="219" on="0"/>
        <pt x="1431" y="137" on="1"/>
        <pt x="1761" y="137" on="1"/>
        <pt x="1732" y="127" on="0"/>
        <pt x="1614" y="38" on="0"/>
        <pt x="1556" y="1" on="0"/>
        <pt x="1535" y="1" on="1"/>
        <pt x="1206" y="1" on="1"/>
        <pt x="1289" y="91" on="0"/>
        <pt x="1327" y="179" on="0"/>
        <pt x="1336" y="215" on="1"/>
        <pt x="1150" y="102" on="0"/>
        <pt x="1045" y="59" on="1"/>
        <pt x="837" y="-27" on="0"/>
        <pt x="677" y="-27" on="1"/>
        <pt x="419" y="-27" on="0"/>
        <pt x="350" y="132" on="1"/>
        <pt x="324" y="190" on="0"/>
        <pt x="324" y="258" on="1"/>
        <pt x="324" y="358" on="0"/>
        <pt x="350" y="474" on="1"/>
        <pt x="543" y="1304" on="1"/>
        <pt x="375" y="1304" on="1"/>
        <pt x="384" y="1310" on="0"/>
        <pt x="420" y="1335" on="0"/>
        <pt x="465" y="1365" on="0"/>
        <pt x="514" y="1397" on="0"/>
        <pt x="536" y="1410" on="1"/>
        <pt x="587" y="1440" on="0"/>
        <pt x="601" y="1440" on="1"/>
        <pt x="1017" y="1440" on="1"/>
        <pt x="988" y="1430" on="0"/>
        <pt x="870" y="1341" on="0"/>
        <pt x="812" y="1304" on="0"/>
        <pt x="791" y="1304" on="1"/>
        <pt x="738" y="1304" on="1"/>
        <pt x="558" y="531" on="1"/>
        <pt x="543" y="467" on="0"/>
        <pt x="543" y="326" on="0"/>
        <pt x="603" y="213" on="0"/>
        <pt x="653" y="178" on="1"/>
        <pt x="747" y="111" on="0"/>
        <pt x="910" y="111" on="1"/>
        <pt x="1059" y="111" on="0"/>
        <pt x="1248" y="200" on="1"/>
        <pt x="1303" y="225" on="0"/>
        <pt x="1344" y="251" on="1"/>
        <pt x="1589" y="1304" on="1"/>
        <pt x="1402" y="1304" on="1"/>
        <pt x="1411" y="1310" on="0"/>
        <pt x="1447" y="1335" on="0"/>
        <pt x="1492" y="1365" on="0"/>
        <pt x="1541" y="1397" on="0"/>
        <pt x="1563" y="1410" on="1"/>
        <pt x="1614" y="1440" on="0"/>
        <pt x="1628" y="1440" on="1"/>
      </contour>
    </TTGlyph>
    <TTGlyph name="Uacute" xMin="324" yMin="-27" xMax="2084" yMax="1803">
      <component glyphName="U" x="0" y="0" flags="0x1204"/>
      <component glyphName="acute" x="1149" y="100" flags="0x1004"/>
    </TTGlyph>
    <TTGlyph name="Ubreve" xMin="324" yMin="-27" xMax="2084" yMax="1887">
      <component glyphName="U" x="0" y="0" flags="0x1204"/>
      <component glyphName="breve" x="958" y="260" flags="0x1004"/>
    </TTGlyph>
    <TTGlyph name="Ucircumflex" xMin="324" yMin="-27" xMax="2084" yMax="1909">
      <component glyphName="U" x="0" y="0" flags="0x1204"/>
      <component glyphName="circumflex" x="1026" y="281" flags="0x1004"/>
    </TTGlyph>
    <TTGlyph name="Udieresis" xMin="324" yMin="-27" xMax="2084" yMax="1814">
      <component glyphName="U" x="0" y="0" flags="0x1204"/>
      <component glyphName="dieresis" x="933" y="292" flags="0x1004"/>
    </TTGlyph>
    <TTGlyph name="Ugrave" xMin="324" yMin="-27" xMax="2084" yMax="1856">
      <component glyphName="U" x="0" y="0" flags="0x1204"/>
      <component glyphName="grave" x="992" y="150" flags="0x1004"/>
    </TTGlyph>
    <TTGlyph name="Uhungarumlaut" xMin="324" yMin="-27" xMax="2084" yMax="1962">
      <component glyphName="U" x="0" y="0" flags="0x1204"/>
      <component glyphName="hungarumlaut" x="1042" y="259" flags="0x1004"/>
    </TTGlyph>
    <TTGlyph name="Umacron" xMin="324" yMin="-27" xMax="2084" yMax="1672">
      <component glyphName="U" x="0" y="0" flags="0x1204"/>
      <component glyphName="macron" x="871" y="209" flags="0x1004"/>
    </TTGlyph>
    <TTGlyph name="Uogonek" xMin="324" yMin="-471" xMax="2084" yMax="1440">
      <contour>
        <pt x="1443" y="1" on="1"/>
        <pt x="1341" y="-101" on="0"/>
        <pt x="1341" y="-191" on="1"/>
        <pt x="1341" y="-250" on="0"/>
        <pt x="1382" y="-292" on="1"/>
        <pt x="1421" y="-334" on="0"/>
        <pt x="1482" y="-334" on="1"/>
        <pt x="1533" y="-334" on="0"/>
        <pt x="1636" y="-277" on="1"/>
        <pt x="1662" y="-263" on="0"/>
        <pt x="1684" y="-253" on="1"/>
        <pt x="1684" y="-254" on="1"/>
        <pt x="1672" y="-277" on="0"/>
        <pt x="1506" y="-370" on="1"/>
        <pt x="1478" y="-385" on="0"/>
        <pt x="1434" y="-410" on="0"/>
        <pt x="1410" y="-423" on="1"/>
        <pt x="1319" y="-471" on="0"/>
        <pt x="1222" y="-471" on="0"/>
        <pt x="1174" y="-449" on="0"/>
        <pt x="1156" y="-430" on="1"/>
        <pt x="1120" y="-389" on="0"/>
        <pt x="1120" y="-280" on="0"/>
        <pt x="1167" y="-185" on="0"/>
        <pt x="1206" y="-142" on="1"/>
        <pt x="1275" y="-64" on="0"/>
        <pt x="1389" y="1" on="1"/>
        <pt x="1206" y="1" on="1"/>
        <pt x="1289" y="91" on="0"/>
        <pt x="1327" y="179" on="0"/>
        <pt x="1336" y="215" on="1"/>
        <pt x="1150" y="102" on="0"/>
        <pt x="1045" y="59" on="1"/>
        <pt x="837" y="-27" on="0"/>
        <pt x="677" y="-27" on="1"/>
        <pt x="419" y="-27" on="0"/>
        <pt x="350" y="132" on="1"/>
        <pt x="324" y="190" on="0"/>
        <pt x="324" y="258" on="1"/>
        <pt x="324" y="358" on="0"/>
        <pt x="350" y="474" on="1"/>
        <pt x="543" y="1304" on="1"/>
        <pt x="375" y="1304" on="1"/>
        <pt x="384" y="1310" on="0"/>
        <pt x="420" y="1335" on="0"/>
        <pt x="465" y="1365" on="0"/>
        <pt x="514" y="1397" on="0"/>
        <pt x="536" y="1410" on="1"/>
        <pt x="587" y="1440" on="0"/>
        <pt x="601" y="1440" on="1"/>
        <pt x="1017" y="1440" on="1"/>
        <pt x="988" y="1430" on="0"/>
        <pt x="870" y="1341" on="0"/>
        <pt x="812" y="1304" on="0"/>
        <pt x="791" y="1304" on="1"/>
        <pt x="738" y="1304" on="1"/>
        <pt x="558" y="531" on="1"/>
        <pt x="543" y="467" on="0"/>
        <pt x="543" y="326" on="0"/>
        <pt x="603" y="213" on="0"/>
        <pt x="653" y="178" on="1"/>
        <pt x="747" y="111" on="0"/>
        <pt x="910" y="111" on="1"/>
        <pt x="1059" y="111" on="0"/>
        <pt x="1248" y="200" on="1"/>
        <pt x="1303" y="225" on="0"/>
        <pt x="1344" y="251" on="1"/>
        <pt x="1589" y="1304" on="1"/>
        <pt x="1402" y="1304" on="1"/>
        <pt x="1411" y="1310" on="0"/>
        <pt x="1447" y="1335" on="0"/>
        <pt x="1492" y="1365" on="0"/>
        <pt x="1541" y="1397" on="0"/>
        <pt x="1563" y="1410" on="1"/>
        <pt x="1614" y="1440" on="0"/>
        <pt x="1628" y="1440" on="1"/>
        <pt x="2084" y="1440" on="1"/>
        <pt x="2055" y="1430" on="0"/>
        <pt x="1937" y="1341" on="0"/>
        <pt x="1879" y="1304" on="0"/>
        <pt x="1858" y="1304" on="1"/>
        <pt x="1784" y="1304" on="1"/>
        <pt x="1571" y="389" on="1"/>
        <pt x="1528" y="219" on="0"/>
        <pt x="1431" y="137" on="1"/>
        <pt x="1761" y="137" on="1"/>
        <pt x="1732" y="127" on="0"/>
        <pt x="1614" y="38" on="0"/>
        <pt x="1556" y="1" on="0"/>
        <pt x="1535" y="1" on="1"/>
      </contour>
    </TTGlyph>
    <TTGlyph name="Uring" xMin="324" yMin="-27" xMax="2084" yMax="2041">
      <component glyphName="U" x="0" y="0" flags="0x1204"/>
      <component glyphName="ring" x="1031" y="327" flags="0x1004"/>
    </TTGlyph>
    <TTGlyph name="Utilde" xMin="324" yMin="-27" xMax="2084" yMax="1778">
      <component glyphName="U" x="0" y="0" flags="0x1204"/>
      <component glyphName="tilde" x="875" y="255" flags="0x1004"/>
    </TTGlyph>
    <TTGlyph name="V" xMin="236" yMin="-59" xMax="1700" yMax="1456">
      <contour>
        <pt x="1594" y="1450" on="1"/>
        <pt x="1700" y="1450" on="0"/>
        <pt x="1700" y="1352" on="1"/>
        <pt x="1700" y="1104" on="0"/>
        <pt x="1008" y="282" on="1"/>
        <pt x="963" y="228" on="0"/>
        <pt x="876" y="119" on="0"/>
        <pt x="800" y="54" on="0"/>
        <pt x="740" y="22" on="0"/>
        <pt x="710" y="7" on="1"/>
        <pt x="629" y="-33" on="0"/>
        <pt x="601" y="-59" on="1"/>
        <pt x="600" y="-16" on="0"/>
        <pt x="600" y="461" on="0"/>
        <pt x="586" y="818" on="0"/>
        <pt x="552" y="1024" on="0"/>
        <pt x="541" y="1092" on="0"/>
        <pt x="522" y="1163" on="0"/>
        <pt x="495" y="1231" on="0"/>
        <pt x="475" y="1258" on="1"/>
        <pt x="430" y="1317" on="0"/>
        <pt x="365" y="1317" on="1"/>
        <pt x="332" y="1317" on="0"/>
        <pt x="308" y="1306" on="1"/>
        <pt x="268" y="1288" on="1"/>
        <pt x="254" y="1282" on="0"/>
        <pt x="236" y="1278" on="1"/>
        <pt x="481" y="1456" on="0"/>
        <pt x="603" y="1456" on="1"/>
        <pt x="689" y="1456" on="0"/>
        <pt x="736" y="1328" on="1"/>
        <pt x="832" y="1062" on="0"/>
        <pt x="826" y="312" on="1"/>
        <pt x="826" y="241" on="0"/>
        <pt x="826" y="195" on="1"/>
        <pt x="856" y="232" on="0"/>
        <pt x="944" y="338" on="0"/>
        <pt x="1046" y="466" on="0"/>
        <pt x="1157" y="611" on="0"/>
        <pt x="1263" y="761" on="0"/>
        <pt x="1358" y="910" on="0"/>
        <pt x="1394" y="978" on="1"/>
        <pt x="1472" y="1125" on="0"/>
        <pt x="1472" y="1210" on="1"/>
        <pt x="1472" y="1316" on="0"/>
        <pt x="1372" y="1316" on="1"/>
        <pt x="1337" y="1316" on="0"/>
        <pt x="1298" y="1303" on="1"/>
        <pt x="1341" y="1319" on="0"/>
        <pt x="1405" y="1369" on="0"/>
        <pt x="1436" y="1392" on="1"/>
        <pt x="1514" y="1450" on="0"/>
      </contour>
    </TTGlyph>
    <TTGlyph name="W" xMin="229" yMin="-49" xMax="2404" yMax="1459">
      <contour>
        <pt x="1237" y="1302" on="1"/>
        <pt x="1344" y="1366" on="0"/>
        <pt x="1459" y="1439" on="1"/>
        <pt x="1570" y="1337" on="0"/>
        <pt x="1610" y="522" on="1"/>
        <pt x="1615" y="415" on="0"/>
        <pt x="1619" y="271" on="1"/>
        <pt x="1655" y="325" on="0"/>
        <pt x="1862" y="622" on="0"/>
        <pt x="1982" y="798" on="0"/>
        <pt x="2033" y="880" on="1"/>
        <pt x="2148" y="1063" on="0"/>
        <pt x="2166" y="1141" on="1"/>
        <pt x="2173" y="1169" on="0"/>
        <pt x="2173" y="1225" on="0"/>
        <pt x="2163" y="1269" on="0"/>
        <pt x="2152" y="1286" on="1"/>
        <pt x="2126" y="1325" on="0"/>
        <pt x="2075" y="1325" on="1"/>
        <pt x="2036" y="1325" on="0"/>
        <pt x="2000" y="1308" on="1"/>
        <pt x="2035" y="1324" on="0"/>
        <pt x="2106" y="1376" on="0"/>
        <pt x="2142" y="1400" on="1"/>
        <pt x="2230" y="1459" on="0"/>
        <pt x="2348" y="1459" on="0"/>
        <pt x="2404" y="1390" on="0"/>
        <pt x="2404" y="1339" on="1"/>
        <pt x="2404" y="1290" on="0"/>
        <pt x="2340" y="1161" on="0"/>
        <pt x="2264" y="1032" on="0"/>
        <pt x="2170" y="884" on="0"/>
        <pt x="2069" y="731" on="0"/>
        <pt x="1966" y="581" on="0"/>
        <pt x="1875" y="448" on="0"/>
        <pt x="1799" y="339" on="0"/>
        <pt x="1758" y="277" on="0"/>
        <pt x="1723" y="220" on="0"/>
        <pt x="1704" y="192" on="1"/>
        <pt x="1662" y="126" on="0"/>
        <pt x="1612" y="76" on="0"/>
        <pt x="1552" y="39" on="0"/>
        <pt x="1481" y="-2" on="0"/>
        <pt x="1414" y="-39" on="0"/>
        <pt x="1397" y="-49" on="1"/>
        <pt x="1394" y="68" on="0"/>
        <pt x="1390" y="302" on="0"/>
        <pt x="1386" y="418" on="1"/>
        <pt x="1375" y="687" on="0"/>
        <pt x="1348" y="884" on="1"/>
        <pt x="1255" y="729" on="0"/>
        <pt x="1053" y="434" on="0"/>
        <pt x="918" y="235" on="0"/>
        <pt x="851" y="130" on="0"/>
        <pt x="798" y="77" on="0"/>
        <pt x="738" y="39" on="0"/>
        <pt x="702" y="19" on="1"/>
        <pt x="610" y="-33" on="0"/>
        <pt x="583" y="-49" on="1"/>
        <pt x="583" y="-29" on="1"/>
        <pt x="585" y="288" on="1"/>
        <pt x="585" y="380" on="1"/>
        <pt x="585" y="1113" on="0"/>
        <pt x="428" y="1280" on="1"/>
        <pt x="392" y="1317" on="0"/>
        <pt x="354" y="1317" on="1"/>
        <pt x="290" y="1317" on="0"/>
        <pt x="229" y="1284" on="1"/>
        <pt x="344" y="1383" on="0"/>
        <pt x="496" y="1438" on="1"/>
        <pt x="546" y="1456" on="0"/>
        <pt x="612" y="1456" on="0"/>
        <pt x="645" y="1439" on="0"/>
        <pt x="693" y="1391" on="0"/>
        <pt x="734" y="1281" on="0"/>
        <pt x="765" y="1135" on="0"/>
        <pt x="785" y="963" on="0"/>
        <pt x="798" y="783" on="0"/>
        <pt x="804" y="604" on="0"/>
        <pt x="807" y="444" on="0"/>
        <pt x="807" y="378" on="1"/>
        <pt x="807" y="269" on="1"/>
        <pt x="842" y="321" on="0"/>
        <pt x="939" y="460" on="0"/>
        <pt x="1044" y="619" on="0"/>
        <pt x="1148" y="790" on="0"/>
        <pt x="1189" y="872" on="1"/>
        <pt x="1281" y="1058" on="0"/>
        <pt x="1281" y="1249" on="0"/>
      </contour>
    </TTGlyph>
    <TTGlyph name="Wacute" xMin="229" yMin="-49" xMax="2404" yMax="1917">
      <component glyphName="W" x="0" y="0" flags="0x1204"/>
      <component glyphName="acute" x="1262" y="214" flags="0x1004"/>
    </TTGlyph>
    <TTGlyph name="Wcircumflex" xMin="229" yMin="-49" xMax="2404" yMax="1866">
      <component glyphName="W" x="0" y="0" flags="0x1204"/>
      <component glyphName="circumflex" x="1154" y="238" flags="0x1004"/>
    </TTGlyph>
    <TTGlyph name="Wdieresis" xMin="229" yMin="-49" xMax="2404" yMax="1761">
      <component glyphName="W" x="0" y="0" flags="0x1204"/>
      <component glyphName="dieresis" x="1096" y="239" flags="0x1004"/>
    </TTGlyph>
    <TTGlyph name="Wgrave" xMin="229" yMin="-49" xMax="2404" yMax="1885">
      <component glyphName="W" x="0" y="0" flags="0x1204"/>
      <component glyphName="grave" x="1035" y="179" flags="0x1004"/>
    </TTGlyph>
    <TTGlyph name="X" xMin="14" yMin="-21" xMax="1994" yMax="1458">
      <contour>
        <pt x="1640" y="1304" on="1"/>
        <pt x="1473" y="1148" on="0"/>
        <pt x="1110" y="837" on="1"/>
        <pt x="1147" y="754" on="0"/>
        <pt x="1334" y="379" on="0"/>
        <pt x="1371" y="310" on="1"/>
        <pt x="1456" y="149" on="0"/>
        <pt x="1475" y="137" on="1"/>
        <pt x="1515" y="113" on="0"/>
        <pt x="1560" y="113" on="0"/>
        <pt x="1598" y="124" on="0"/>
        <pt x="1638" y="139" on="0"/>
        <pt x="1676" y="156" on="0"/>
        <pt x="1688" y="161" on="1"/>
        <pt x="1552" y="47" on="0"/>
        <pt x="1421" y="-2" on="1"/>
        <pt x="1372" y="-21" on="0"/>
        <pt x="1304" y="-21" on="0"/>
        <pt x="1264" y="-5" on="0"/>
        <pt x="1248" y="8" on="1"/>
        <pt x="1198" y="51" on="0"/>
        <pt x="972" y="517" on="0"/>
        <pt x="902" y="665" on="1"/>
        <pt x="247" y="137" on="1"/>
        <pt x="608" y="137" on="1"/>
        <pt x="587" y="128" on="0"/>
        <pt x="524" y="82" on="0"/>
        <pt x="492" y="59" on="1"/>
        <pt x="408" y="0" on="0"/>
        <pt x="382" y="0" on="1"/>
        <pt x="14" y="0" on="1"/>
        <pt x="885" y="699" on="1"/>
        <pt x="807" y="855" on="0"/>
        <pt x="658" y="1148" on="0"/>
        <pt x="627" y="1217" on="0"/>
        <pt x="606" y="1248" on="1"/>
        <pt x="558" y="1319" on="0"/>
        <pt x="493" y="1319" on="1"/>
        <pt x="431" y="1319" on="0"/>
        <pt x="359" y="1280" on="1"/>
        <pt x="498" y="1388" on="0"/>
        <pt x="638" y="1440" on="1"/>
        <pt x="688" y="1458" on="0"/>
        <pt x="759" y="1458" on="0"/>
        <pt x="801" y="1430" on="0"/>
        <pt x="832" y="1388" on="0"/>
        <pt x="855" y="1337" on="0"/>
        <pt x="890" y="1271" on="1"/>
        <pt x="981" y="1095" on="0"/>
        <pt x="1090" y="876" on="1"/>
        <pt x="1405" y="1175" on="0"/>
        <pt x="1557" y="1304" on="1"/>
        <pt x="1312" y="1304" on="1"/>
        <pt x="1339" y="1312" on="0"/>
        <pt x="1458" y="1403" on="0"/>
        <pt x="1517" y="1440" on="0"/>
        <pt x="1538" y="1440" on="1"/>
        <pt x="1994" y="1440" on="1"/>
        <pt x="1966" y="1431" on="0"/>
        <pt x="1847" y="1341" on="0"/>
        <pt x="1789" y="1304" on="0"/>
        <pt x="1768" y="1304" on="1"/>
      </contour>
    </TTGlyph>
    <TTGlyph name="Y" xMin="215" yMin="0" xMax="1509" yMax="1464">
      <contour>
        <pt x="905" y="623" on="1"/>
        <pt x="843" y="343" on="0"/>
        <pt x="812" y="266" on="0"/>
        <pt x="796" y="237" on="1"/>
        <pt x="765" y="178" on="0"/>
        <pt x="722" y="135" on="1"/>
        <pt x="1043" y="135" on="1"/>
        <pt x="1024" y="131" on="0"/>
        <pt x="962" y="85" on="1"/>
        <pt x="846" y="0" on="0"/>
        <pt x="817" y="0" on="1"/>
        <pt x="468" y="0" on="1"/>
        <pt x="537" y="58" on="0"/>
        <pt x="563" y="101" on="1"/>
        <pt x="609" y="174" on="0"/>
        <pt x="628" y="257" on="1"/>
        <pt x="687" y="510" on="1"/>
        <pt x="692" y="535" on="0"/>
        <pt x="692" y="580" on="1"/>
        <pt x="692" y="737" on="0"/>
        <pt x="605" y="988" on="1"/>
        <pt x="524" y="1220" on="0"/>
        <pt x="428" y="1302" on="1"/>
        <pt x="390" y="1333" on="0"/>
        <pt x="334" y="1333" on="0"/>
        <pt x="297" y="1324" on="0"/>
        <pt x="279" y="1317" on="1"/>
        <pt x="251" y="1306" on="0"/>
        <pt x="215" y="1284" on="1"/>
        <pt x="331" y="1396" on="0"/>
        <pt x="472" y="1443" on="1"/>
        <pt x="521" y="1459" on="0"/>
        <pt x="566" y="1459" on="1"/>
        <pt x="646" y="1459" on="0"/>
        <pt x="698" y="1382" on="1"/>
        <pt x="805" y="1217" on="0"/>
        <pt x="874" y="924" on="1"/>
        <pt x="903" y="798" on="0"/>
        <pt x="909" y="696" on="1"/>
        <pt x="1184" y="961" on="0"/>
        <pt x="1262" y="1142" on="1"/>
        <pt x="1282" y="1189" on="0"/>
        <pt x="1282" y="1275" on="0"/>
        <pt x="1228" y="1328" on="0"/>
        <pt x="1149" y="1328" on="0"/>
        <pt x="1124" y="1321" on="1"/>
        <pt x="1155" y="1330" on="0"/>
        <pt x="1214" y="1376" on="0"/>
        <pt x="1246" y="1401" on="1"/>
        <pt x="1328" y="1464" on="0"/>
        <pt x="1387" y="1464" on="1"/>
        <pt x="1509" y="1464" on="0"/>
        <pt x="1509" y="1368" on="1"/>
        <pt x="1509" y="1202" on="0"/>
        <pt x="998" y="713" on="1"/>
        <pt x="940" y="657" on="0"/>
      </contour>
    </TTGlyph>
    <TTGlyph name="Yacute" xMin="215" yMin="0" xMax="1521" yMax="1803">
      <component glyphName="Y" x="0" y="0" flags="0x1204"/>
      <component glyphName="acute" x="933" y="100" flags="0x1004"/>
    </TTGlyph>
    <TTGlyph name="Ycircumflex" xMin="215" yMin="0" xMax="1509" yMax="1871">
      <component glyphName="Y" x="0" y="0" flags="0x1204"/>
      <component glyphName="circumflex" x="681" y="243" flags="0x1004"/>
    </TTGlyph>
    <TTGlyph name="Ydieresis" xMin="215" yMin="0" xMax="1509" yMax="1782">
      <component glyphName="Y" x="0" y="0" flags="0x1204"/>
      <component glyphName="dieresis" x="662" y="260" flags="0x1004"/>
    </TTGlyph>
    <TTGlyph name="Ygrave" xMin="215" yMin="0" xMax="1509" yMax="1868">
      <component glyphName="Y" x="0" y="0" flags="0x1204"/>
      <component glyphName="grave" x="721" y="162" flags="0x1004"/>
    </TTGlyph>
    <TTGlyph name="Z" xMin="11" yMin="0" xMax="1475" yMax="1446">
      <contour>
        <pt x="753" y="1446" on="1"/>
        <pt x="1296" y="1430" on="1"/>
        <pt x="1403" y="1430" on="0"/>
        <pt x="1475" y="1438" on="1"/>
        <pt x="1401" y="1383" on="0"/>
        <pt x="1279" y="1244" on="0"/>
        <pt x="1131" y="1074" on="0"/>
        <pt x="959" y="873" on="0"/>
        <pt x="797" y="685" on="0"/>
        <pt x="647" y="511" on="0"/>
        <pt x="568" y="428" on="1"/>
        <pt x="390" y="241" on="0"/>
        <pt x="225" y="125" on="1"/>
        <pt x="424" y="149" on="0"/>
        <pt x="589" y="149" on="1"/>
        <pt x="589" y="149" on="0"/>
        <pt x="1070" y="135" on="1"/>
        <pt x="1144" y="135" on="0"/>
        <pt x="1274" y="187" on="1"/>
        <pt x="1149" y="66" on="0"/>
        <pt x="990" y="16" on="1"/>
        <pt x="936" y="0" on="0"/>
        <pt x="886" y="0" on="1"/>
        <pt x="11" y="0" on="1"/>
        <pt x="246" y="170" on="0"/>
        <pt x="577" y="556" on="1"/>
        <pt x="785" y="798" on="0"/>
        <pt x="960" y="1008" on="0"/>
        <pt x="1085" y="1148" on="0"/>
        <pt x="1188" y="1257" on="0"/>
        <pt x="1247" y="1302" on="1"/>
        <pt x="1175" y="1294" on="0"/>
        <pt x="1070" y="1294" on="1"/>
        <pt x="590" y="1310" on="1"/>
        <pt x="483" y="1310" on="0"/>
        <pt x="411" y="1302" on="1"/>
        <pt x="593" y="1430" on="0"/>
        <pt x="629" y="1437" on="1"/>
        <pt x="677" y="1446" on="0"/>
      </contour>
    </TTGlyph>
    <TTGlyph name="Zacute" xMin="11" yMin="0" xMax="1554" yMax="1967">
      <component glyphName="Z" x="0" y="0" flags="0x1204"/>
      <component glyphName="acute" x="966" y="264" flags="0x1004"/>
    </TTGlyph>
    <TTGlyph name="Zcaron" xMin="8" yMin="0" xMax="1535" yMax="1921">
      <component glyphName="Z" x="-3" y="0" flags="0x1004"/>
      <component glyphName="caron" x="846" y="293" flags="0x1004"/>
    </TTGlyph>
    <TTGlyph name="Zdotaccent" xMin="11" yMin="0" xMax="1475" yMax="1820">
      <component glyphName="Z" x="0" y="0" flags="0x1204"/>
      <component glyphName="dotaccent" x="880" y="298" flags="0x1004"/>
    </TTGlyph>
    <TTGlyph name="a" xMin="157" yMin="-20" xMax="1145" yMax="992">
      <contour>
        <pt x="428" y="-20" on="1"/>
        <pt x="157" y="-20" on="0"/>
        <pt x="157" y="248" on="1"/>
        <pt x="157" y="431" on="0"/>
        <pt x="265" y="607" on="1"/>
        <pt x="369" y="776" on="0"/>
        <pt x="538" y="882" on="1"/>
        <pt x="712" y="992" on="0"/>
        <pt x="896" y="992" on="1"/>
        <pt x="977" y="992" on="0"/>
        <pt x="1112" y="943" on="0"/>
        <pt x="1145" y="933" on="1"/>
        <pt x="992" y="277" on="1"/>
        <pt x="981" y="225" on="0"/>
        <pt x="981" y="199" on="1"/>
        <pt x="981" y="120" on="0"/>
        <pt x="1077" y="120" on="1"/>
        <pt x="1108" y="120" on="0"/>
        <pt x="1137" y="126" on="1"/>
        <pt x="1106" y="105" on="0"/>
        <pt x="1038" y="55" on="0"/>
        <pt x="1002" y="34" on="1"/>
        <pt x="915" y="-16" on="0"/>
        <pt x="849" y="-16" on="1"/>
        <pt x="777" y="-16" on="0"/>
        <pt x="758" y="20" on="1"/>
        <pt x="751" y="35" on="0"/>
        <pt x="751" y="56" on="1"/>
        <pt x="751" y="89" on="0"/>
        <pt x="763" y="132" on="1"/>
        <pt x="726" y="108" on="0"/>
        <pt x="647" y="55" on="0"/>
        <pt x="605" y="32" on="1"/>
        <pt x="507" y="-20" on="0"/>
      </contour>
      <contour>
        <pt x="375" y="347" on="1"/>
        <pt x="375" y="115" on="0"/>
        <pt x="611" y="115" on="1"/>
        <pt x="649" y="115" on="0"/>
        <pt x="694" y="138" on="1"/>
        <pt x="774" y="180" on="0"/>
        <pt x="784" y="217" on="1"/>
        <pt x="899" y="712" on="1"/>
        <pt x="871" y="787" on="0"/>
        <pt x="771" y="858" on="0"/>
        <pt x="636" y="858" on="0"/>
        <pt x="548" y="807" on="0"/>
        <pt x="478" y="723" on="0"/>
        <pt x="426" y="616" on="0"/>
        <pt x="409" y="559" on="1"/>
        <pt x="375" y="445" on="0"/>
      </contour>
    </TTGlyph>
    <TTGlyph name="aacute" xMin="157" yMin="-20" xMax="1239" yMax="1491">
      <component glyphName="a" x="0" y="0" flags="0x1204"/>
      <component glyphName="acute" x="651" y="-212" flags="0x1004"/>
    </TTGlyph>
    <TTGlyph name="abreve" xMin="157" yMin="-20" xMax="1310" yMax="1451">
      <component glyphName="a" x="0" y="0" flags="0x1204"/>
      <component glyphName="breve" x="511" y="-176" flags="0x1004"/>
    </TTGlyph>
    <TTGlyph name="acircumflex" xMin="157" yMin="-20" xMax="1219" yMax="1458">
      <component glyphName="a" x="0" y="0" flags="0x1204"/>
      <component glyphName="circumflex" x="522" y="-170" flags="0x1004"/>
    </TTGlyph>
    <TTGlyph name="acute" xMin="0" yMin="1247" xMax="588" yMax="1703">
      <contour>
        <pt x="588" y="1703" on="1"/>
        <pt x="390" y="1493" on="0"/>
        <pt x="152" y="1334" on="1"/>
        <pt x="71" y="1279" on="0"/>
        <pt x="0" y="1247" on="1"/>
        <pt x="3" y="1259" on="1"/>
        <pt x="84" y="1304" on="0"/>
        <pt x="223" y="1427" on="0"/>
        <pt x="308" y="1512" on="0"/>
        <pt x="328" y="1533" on="1"/>
        <pt x="370" y="1577" on="0"/>
        <pt x="409" y="1603" on="0"/>
        <pt x="450" y="1628" on="0"/>
        <pt x="496" y="1654" on="0"/>
        <pt x="518" y="1666" on="1"/>
        <pt x="548" y="1683" on="0"/>
      </contour>
    </TTGlyph>
    <TTGlyph name="adieresis" xMin="157" yMin="-20" xMax="1254" yMax="1382">
      <component glyphName="a" x="0" y="0" flags="0x1204"/>
      <component glyphName="dieresis" x="453" y="-140" flags="0x1004"/>
    </TTGlyph>
    <TTGlyph name="ae" xMin="68" yMin="-15" xMax="1440" yMax="1001">
      <contour>
        <pt x="1440" y="868" on="1"/>
        <pt x="1440" y="658" on="0"/>
        <pt x="870" y="373" on="1"/>
        <pt x="874" y="249" on="0"/>
        <pt x="1009" y="121" on="0"/>
        <pt x="1133" y="121" on="1"/>
        <pt x="1242" y="121" on="0"/>
        <pt x="1370" y="185" on="1"/>
        <pt x="1228" y="49" on="0"/>
        <pt x="1015" y="1" on="1"/>
        <pt x="949" y="-14" on="0"/>
        <pt x="886" y="-14" on="1"/>
        <pt x="709" y="-14" on="0"/>
        <pt x="661" y="149" on="1"/>
        <pt x="611" y="122" on="0"/>
        <pt x="509" y="64" on="0"/>
        <pt x="456" y="40" on="1"/>
        <pt x="333" y="-15" on="0"/>
        <pt x="232" y="-15" on="1"/>
        <pt x="125" y="-15" on="0"/>
        <pt x="84" y="42" on="1"/>
        <pt x="68" y="64" on="0"/>
        <pt x="68" y="137" on="0"/>
        <pt x="106" y="215" on="0"/>
        <pt x="169" y="286" on="0"/>
        <pt x="250" y="349" on="0"/>
        <pt x="292" y="375" on="1"/>
        <pt x="434" y="462" on="0"/>
        <pt x="564" y="484" on="1"/>
        <pt x="621" y="493" on="0"/>
        <pt x="682" y="495" on="1"/>
        <pt x="717" y="644" on="0"/>
        <pt x="717" y="705" on="1"/>
        <pt x="717" y="863" on="0"/>
        <pt x="538" y="863" on="1"/>
        <pt x="452" y="863" on="0"/>
        <pt x="361" y="822" on="1"/>
        <pt x="482" y="908" on="0"/>
        <pt x="544" y="939" on="1"/>
        <pt x="670" y="1001" on="0"/>
        <pt x="771" y="1001" on="1"/>
        <pt x="958" y="1001" on="0"/>
        <pt x="940" y="793" on="1"/>
        <pt x="1163" y="980" on="0"/>
        <pt x="1332" y="980" on="1"/>
        <pt x="1382" y="980" on="0"/>
        <pt x="1440" y="917" on="0"/>
      </contour>
      <contour>
        <pt x="1215" y="736" on="1"/>
        <pt x="1215" y="772" on="0"/>
        <pt x="1163" y="840" on="0"/>
        <pt x="1072" y="840" on="0"/>
        <pt x="1007" y="795" on="0"/>
        <pt x="954" y="723" on="0"/>
        <pt x="915" y="632" on="0"/>
        <pt x="901" y="586" on="1"/>
        <pt x="875" y="499" on="0"/>
        <pt x="870" y="421" on="1"/>
        <pt x="971" y="448" on="0"/>
        <pt x="1094" y="551" on="1"/>
        <pt x="1215" y="654" on="0"/>
      </contour>
      <contour>
        <pt x="296" y="225" on="1"/>
        <pt x="296" y="119" on="0"/>
        <pt x="443" y="119" on="1"/>
        <pt x="532" y="119" on="0"/>
        <pt x="594" y="184" on="1"/>
        <pt x="614" y="205" on="0"/>
        <pt x="620" y="231" on="1"/>
        <pt x="650" y="359" on="1"/>
        <pt x="483" y="359" on="1"/>
        <pt x="398" y="359" on="0"/>
        <pt x="333" y="347" on="1"/>
        <pt x="296" y="280" on="0"/>
      </contour>
    </TTGlyph>
    <TTGlyph name="aeacute" xMin="68" yMin="-15" xMax="1547" yMax="1485">
      <component glyphName="ae" x="0" y="0" flags="0x1204"/>
      <component glyphName="acute" x="959" y="-218" flags="0x1004"/>
    </TTGlyph>
    <TTGlyph name="agrave" xMin="157" yMin="-20" xMax="1145" yMax="1544">
      <component glyphName="a" x="0" y="0" flags="0x1204"/>
      <component glyphName="grave" x="494" y="-162" flags="0x1004"/>
    </TTGlyph>
    <TTGlyph name="amacron" xMin="157" yMin="-20" xMax="1385" yMax="1199">
      <component glyphName="a" x="0" y="0" flags="0x1204"/>
      <component glyphName="macron" x="437" y="-264" flags="0x1004"/>
    </TTGlyph>
    <TTGlyph name="ampersand" xMin="173" yMin="-22" xMax="2417" yMax="1470">
      <contour>
        <pt x="1522" y="442" on="1"/>
        <pt x="1744" y="684" on="0"/>
        <pt x="1744" y="919" on="1"/>
        <pt x="1744" y="971" on="0"/>
        <pt x="1736" y="1006" on="1"/>
        <pt x="1678" y="1014" on="0"/>
        <pt x="1623" y="1014" on="1"/>
        <pt x="1502" y="1014" on="0"/>
        <pt x="1413" y="972" on="1"/>
        <pt x="1557" y="1071" on="0"/>
        <pt x="1610" y="1096" on="1"/>
        <pt x="1720" y="1149" on="0"/>
        <pt x="1844" y="1149" on="1"/>
        <pt x="1905" y="1149" on="0"/>
        <pt x="2005" y="1138" on="1"/>
        <pt x="2202" y="1115" on="0"/>
        <pt x="2252" y="1115" on="1"/>
        <pt x="2346" y="1115" on="0"/>
        <pt x="2417" y="1128" on="1"/>
        <pt x="2389" y="1119" on="0"/>
        <pt x="2318" y="1063" on="0"/>
        <pt x="2268" y="1029" on="0"/>
        <pt x="2211" y="999" on="0"/>
        <pt x="2182" y="991" on="1"/>
        <pt x="2136" y="978" on="0"/>
        <pt x="2003" y="978" on="0"/>
        <pt x="1965" y="980" on="1"/>
        <pt x="1917" y="680" on="0"/>
        <pt x="1557" y="401" on="1"/>
        <pt x="1721" y="203" on="0"/>
        <pt x="1759" y="176" on="1"/>
        <pt x="1898" y="75" on="0"/>
        <pt x="2103" y="172" on="1"/>
        <pt x="1915" y="40" on="0"/>
        <pt x="1794" y="4" on="1"/>
        <pt x="1738" y="-12" on="0"/>
        <pt x="1621" y="-12" on="0"/>
        <pt x="1525" y="42" on="0"/>
        <pt x="1444" y="123" on="0"/>
        <pt x="1373" y="216" on="0"/>
        <pt x="1340" y="255" on="1"/>
        <pt x="901" y="-22" on="0"/>
        <pt x="577" y="-22" on="1"/>
        <pt x="426" y="-22" on="0"/>
        <pt x="312" y="36" on="1"/>
        <pt x="173" y="106" on="0"/>
        <pt x="173" y="248" on="1"/>
        <pt x="173" y="492" on="0"/>
        <pt x="576" y="706" on="1"/>
        <pt x="633" y="736" on="0"/>
        <pt x="681" y="760" on="1"/>
        <pt x="520" y="804" on="0"/>
        <pt x="520" y="936" on="1"/>
        <pt x="520" y="1046" on="0"/>
        <pt x="647" y="1177" on="1"/>
        <pt x="762" y="1296" on="0"/>
        <pt x="1084" y="1470" on="0"/>
        <pt x="1186" y="1470" on="1"/>
        <pt x="1343" y="1470" on="0"/>
        <pt x="1403" y="1358" on="1"/>
        <pt x="1423" y="1320" on="0"/>
        <pt x="1423" y="1270" on="1"/>
        <pt x="1423" y="1043" on="0"/>
        <pt x="1074" y="847" on="1"/>
        <pt x="1238" y="776" on="0"/>
        <pt x="1424" y="556" on="1"/>
        <pt x="1474" y="497" on="0"/>
      </contour>
      <contour>
        <pt x="971" y="1335" on="1"/>
        <pt x="926" y="1335" on="0"/>
        <pt x="882" y="1325" on="1"/>
        <pt x="744" y="1197" on="0"/>
        <pt x="744" y="1062" on="1"/>
        <pt x="744" y="965" on="0"/>
        <pt x="847" y="920" on="1"/>
        <pt x="898" y="898" on="0"/>
        <pt x="1004" y="873" on="0"/>
        <pt x="1031" y="864" on="1"/>
        <pt x="1102" y="877" on="0"/>
        <pt x="1150" y="973" on="1"/>
        <pt x="1192" y="1056" on="0"/>
        <pt x="1192" y="1122" on="1"/>
        <pt x="1192" y="1232" on="0"/>
        <pt x="1071" y="1335" on="0"/>
      </contour>
      <contour>
        <pt x="1330" y="268" on="1"/>
        <pt x="1273" y="335" on="0"/>
        <pt x="1158" y="474" on="0"/>
        <pt x="1094" y="536" on="1"/>
        <pt x="949" y="680" on="0"/>
        <pt x="798" y="730" on="1"/>
        <pt x="722" y="713" on="0"/>
        <pt x="579" y="676" on="0"/>
        <pt x="524" y="642" on="1"/>
        <pt x="401" y="565" on="0"/>
        <pt x="401" y="394" on="1"/>
        <pt x="401" y="255" on="0"/>
        <pt x="531" y="178" on="1"/>
        <pt x="639" y="115" on="0"/>
        <pt x="788" y="115" on="1"/>
        <pt x="995" y="115" on="0"/>
        <pt x="1210" y="204" on="1"/>
        <pt x="1277" y="232" on="0"/>
      </contour>
    </TTGlyph>
    <TTGlyph name="aogonek" xMin="157" yMin="-471" xMax="1145" yMax="992">
      <contour>
        <pt x="981" y="199" on="1"/>
        <pt x="981" y="120" on="0"/>
        <pt x="1077" y="120" on="1"/>
        <pt x="1108" y="120" on="0"/>
        <pt x="1137" y="126" on="1"/>
        <pt x="1110" y="108" on="0"/>
        <pt x="1052" y="66" on="0"/>
        <pt x="1022" y="46" on="1"/>
        <pt x="951" y="1" on="0"/>
        <pt x="893" y="-11" on="1"/>
        <pt x="802" y="-104" on="0"/>
        <pt x="802" y="-191" on="1"/>
        <pt x="802" y="-250" on="0"/>
        <pt x="842" y="-292" on="1"/>
        <pt x="882" y="-334" on="0"/>
        <pt x="943" y="-334" on="1"/>
        <pt x="994" y="-334" on="0"/>
        <pt x="1098" y="-277" on="1"/>
        <pt x="1123" y="-263" on="0"/>
        <pt x="1145" y="-253" on="1"/>
        <pt x="1145" y="-254" on="1"/>
        <pt x="1133" y="-277" on="0"/>
        <pt x="967" y="-370" on="1"/>
        <pt x="939" y="-385" on="0"/>
        <pt x="896" y="-410" on="0"/>
        <pt x="871" y="-423" on="1"/>
        <pt x="779" y="-471" on="0"/>
        <pt x="683" y="-471" on="0"/>
        <pt x="635" y="-449" on="0"/>
        <pt x="618" y="-430" on="1"/>
        <pt x="581" y="-389" on="0"/>
        <pt x="581" y="-283" on="0"/>
        <pt x="622" y="-194" on="0"/>
        <pt x="656" y="-154" on="1"/>
        <pt x="719" y="-78" on="0"/>
        <pt x="823" y="-15" on="1"/>
        <pt x="751" y="-8" on="0"/>
        <pt x="751" y="58" on="1"/>
        <pt x="751" y="89" on="0"/>
        <pt x="763" y="132" on="1"/>
        <pt x="726" y="108" on="0"/>
        <pt x="647" y="55" on="0"/>
        <pt x="605" y="32" on="1"/>
        <pt x="507" y="-20" on="0"/>
        <pt x="428" y="-20" on="1"/>
        <pt x="157" y="-20" on="0"/>
        <pt x="157" y="248" on="1"/>
        <pt x="157" y="431" on="0"/>
        <pt x="265" y="607" on="1"/>
        <pt x="369" y="776" on="0"/>
        <pt x="538" y="882" on="1"/>
        <pt x="712" y="992" on="0"/>
        <pt x="896" y="992" on="1"/>
        <pt x="977" y="992" on="0"/>
        <pt x="1112" y="943" on="0"/>
        <pt x="1145" y="933" on="1"/>
        <pt x="992" y="277" on="1"/>
        <pt x="981" y="225" on="0"/>
      </contour>
      <contour>
        <pt x="375" y="347" on="1"/>
        <pt x="375" y="115" on="0"/>
        <pt x="611" y="115" on="1"/>
        <pt x="649" y="115" on="0"/>
        <pt x="694" y="138" on="1"/>
        <pt x="774" y="180" on="0"/>
        <pt x="784" y="217" on="1"/>
        <pt x="899" y="712" on="1"/>
        <pt x="871" y="787" on="0"/>
        <pt x="771" y="858" on="0"/>
        <pt x="636" y="858" on="0"/>
        <pt x="548" y="807" on="0"/>
        <pt x="478" y="723" on="0"/>
        <pt x="426" y="616" on="0"/>
        <pt x="409" y="559" on="1"/>
        <pt x="375" y="445" on="0"/>
      </contour>
    </TTGlyph>
    <TTGlyph name="approxequal" xMin="181" yMin="161" xMax="1276" yMax="917">
      <contour>
        <pt x="551" y="778" on="1"/>
        <pt x="539" y="765" on="0"/>
        <pt x="517" y="738" on="0"/>
        <pt x="486" y="702" on="0"/>
        <pt x="421" y="664" on="0"/>
        <pt x="386" y="648" on="1"/>
        <pt x="294" y="605" on="0"/>
        <pt x="280" y="589" on="1"/>
        <pt x="351" y="683" on="0"/>
        <pt x="510" y="796" on="1"/>
        <pt x="681" y="916" on="0"/>
        <pt x="784" y="916" on="1"/>
        <pt x="826" y="916" on="0"/>
        <pt x="883" y="864" on="0"/>
        <pt x="916" y="828" on="0"/>
        <pt x="935" y="812" on="1"/>
        <pt x="980" y="776" on="0"/>
        <pt x="1031" y="776" on="1"/>
        <pt x="1040" y="776" on="0"/>
        <pt x="1045" y="777" on="1"/>
        <pt x="1084" y="816" on="0"/>
        <pt x="1140" y="842" on="1"/>
        <pt x="1250" y="893" on="0"/>
        <pt x="1276" y="917" on="1"/>
        <pt x="1138" y="779" on="0"/>
        <pt x="966" y="690" on="1"/>
        <pt x="867" y="639" on="0"/>
        <pt x="777" y="639" on="0"/>
        <pt x="736" y="660" on="0"/>
        <pt x="701" y="691" on="0"/>
        <pt x="669" y="727" on="0"/>
        <pt x="652" y="742" on="1"/>
        <pt x="607" y="782" on="0"/>
      </contour>
      <contour>
        <pt x="1176" y="490" on="1"/>
        <pt x="1037" y="351" on="0"/>
        <pt x="866" y="263" on="1"/>
        <pt x="768" y="212" on="0"/>
        <pt x="665" y="212" on="0"/>
        <pt x="610" y="255" on="0"/>
        <pt x="561" y="308" on="0"/>
        <pt x="505" y="351" on="0"/>
        <pt x="456" y="351" on="0"/>
        <pt x="451" y="350" on="1"/>
        <pt x="440" y="337" on="0"/>
        <pt x="418" y="311" on="0"/>
        <pt x="387" y="274" on="0"/>
        <pt x="321" y="237" on="0"/>
        <pt x="287" y="221" on="1"/>
        <pt x="196" y="178" on="0"/>
        <pt x="181" y="161" on="1"/>
        <pt x="254" y="259" on="0"/>
        <pt x="410" y="368" on="1"/>
        <pt x="585" y="489" on="0"/>
        <pt x="685" y="489" on="1"/>
        <pt x="727" y="489" on="0"/>
        <pt x="784" y="437" on="0"/>
        <pt x="816" y="401" on="0"/>
        <pt x="835" y="386" on="1"/>
        <pt x="880" y="349" on="0"/>
        <pt x="932" y="349" on="1"/>
        <pt x="938" y="349" on="1"/>
        <pt x="942" y="349" on="0"/>
        <pt x="945" y="350" on="1"/>
        <pt x="984" y="389" on="0"/>
        <pt x="1097" y="440" on="0"/>
        <pt x="1155" y="469" on="0"/>
      </contour>
    </TTGlyph>
    <TTGlyph name="aring" xMin="157" yMin="-20" xMax="1198" yMax="1611">
      <component glyphName="a" x="0" y="0" flags="0x1204"/>
      <component glyphName="ring" x="544" y="-103" flags="0x1004"/>
    </TTGlyph>
    <TTGlyph name="asciicircum" xMin="0" yMin="738" xMax="696" yMax="1408">
      <contour>
        <pt x="696" y="874" on="1"/>
        <pt x="699" y="856" on="0"/>
        <pt x="594" y="806" on="1"/>
        <pt x="481" y="751" on="0"/>
        <pt x="470" y="738" on="1"/>
        <pt x="401" y="1123" on="1"/>
        <pt x="226" y="874" on="1"/>
        <pt x="206" y="845" on="0"/>
        <pt x="76" y="784" on="0"/>
        <pt x="13" y="753" on="0"/>
        <pt x="0" y="738" on="1"/>
        <pt x="374" y="1272" on="1"/>
        <pt x="382" y="1285" on="0"/>
        <pt x="505" y="1354" on="0"/>
        <pt x="528" y="1368" on="1"/>
        <pt x="570" y="1391" on="0"/>
        <pt x="600" y="1408" on="1"/>
      </contour>
    </TTGlyph>
    <TTGlyph name="asciitilde" xMin="242" yMin="557" xMax="1237" yMax="886">
      <contour>
        <pt x="993" y="744" on="1"/>
        <pt x="1006" y="745" on="1"/>
        <pt x="1043" y="782" on="0"/>
        <pt x="1158" y="836" on="0"/>
        <pt x="1216" y="865" on="0"/>
        <pt x="1237" y="886" on="1"/>
        <pt x="1098" y="747" on="0"/>
        <pt x="928" y="659" on="1"/>
        <pt x="829" y="608" on="0"/>
        <pt x="726" y="608" on="0"/>
        <pt x="671" y="651" on="0"/>
        <pt x="622" y="704" on="0"/>
        <pt x="566" y="747" on="0"/>
        <pt x="517" y="747" on="0"/>
        <pt x="512" y="746" on="1"/>
        <pt x="501" y="733" on="0"/>
        <pt x="479" y="707" on="0"/>
        <pt x="448" y="670" on="0"/>
        <pt x="382" y="633" on="0"/>
        <pt x="348" y="617" on="1"/>
        <pt x="257" y="574" on="0"/>
        <pt x="242" y="557" on="1"/>
        <pt x="315" y="655" on="0"/>
        <pt x="472" y="764" on="1"/>
        <pt x="646" y="885" on="0"/>
        <pt x="746" y="885" on="1"/>
        <pt x="788" y="885" on="0"/>
        <pt x="845" y="833" on="0"/>
        <pt x="877" y="796" on="0"/>
        <pt x="896" y="780" on="1"/>
        <pt x="941" y="744" on="0"/>
      </contour>
    </TTGlyph>
    <TTGlyph name="asterisk" xMin="306" yMin="590" xMax="1175" yMax="1444">
      <contour>
        <pt x="726" y="1033" on="1"/>
        <pt x="733" y="1094" on="0"/>
        <pt x="733" y="1157" on="1"/>
        <pt x="733" y="1312" on="0"/>
        <pt x="711" y="1371" on="1"/>
        <pt x="708" y="1379" on="0"/>
        <pt x="708" y="1398" on="0"/>
        <pt x="764" y="1418" on="0"/>
        <pt x="800" y="1426" on="1"/>
        <pt x="881" y="1444" on="0"/>
        <pt x="922" y="1444" on="0"/>
        <pt x="946" y="1442" on="0"/>
        <pt x="946" y="1412" on="0"/>
        <pt x="930" y="1353" on="0"/>
        <pt x="904" y="1280" on="0"/>
        <pt x="872" y="1200" on="0"/>
        <pt x="856" y="1164" on="1"/>
        <pt x="818" y="1079" on="0"/>
        <pt x="803" y="1052" on="1"/>
        <pt x="974" y="1153" on="0"/>
        <pt x="1068" y="1252" on="1"/>
        <pt x="1076" y="1260" on="0"/>
        <pt x="1090" y="1260" on="0"/>
        <pt x="1110" y="1240" on="0"/>
        <pt x="1130" y="1210" on="0"/>
        <pt x="1150" y="1172" on="0"/>
        <pt x="1158" y="1154" on="1"/>
        <pt x="1175" y="1114" on="0"/>
        <pt x="1175" y="1089" on="0"/>
        <pt x="1126" y="1064" on="0"/>
        <pt x="1051" y="1037" on="0"/>
        <pt x="961" y="1012" on="0"/>
        <pt x="919" y="1002" on="1"/>
        <pt x="830" y="981" on="0"/>
        <pt x="796" y="976" on="1"/>
        <pt x="872" y="888" on="0"/>
        <pt x="990" y="801" on="0"/>
        <pt x="1019" y="788" on="0"/>
        <pt x="1031" y="784" on="0"/>
        <pt x="1036" y="782" on="1"/>
        <pt x="1051" y="775" on="0"/>
        <pt x="1051" y="761" on="0"/>
        <pt x="1028" y="730" on="0"/>
        <pt x="993" y="690" on="0"/>
        <pt x="951" y="648" on="0"/>
        <pt x="931" y="630" on="1"/>
        <pt x="885" y="590" on="0"/>
        <pt x="859" y="590" on="0"/>
        <pt x="830" y="637" on="0"/>
        <pt x="799" y="709" on="0"/>
        <pt x="769" y="796" on="0"/>
        <pt x="758" y="836" on="1"/>
        <pt x="732" y="926" on="0"/>
        <pt x="732" y="954" on="1"/>
        <pt x="564" y="793" on="0"/>
        <pt x="479" y="637" on="1"/>
        <pt x="477" y="634" on="0"/>
        <pt x="472" y="626" on="0"/>
        <pt x="453" y="626" on="0"/>
        <pt x="400" y="654" on="0"/>
        <pt x="373" y="674" on="1"/>
        <pt x="306" y="722" on="0"/>
        <pt x="306" y="748" on="1"/>
        <pt x="306" y="765" on="0"/>
        <pt x="418" y="841" on="0"/>
        <pt x="500" y="893" on="0"/>
        <pt x="538" y="915" on="1"/>
        <pt x="627" y="966" on="0"/>
        <pt x="648" y="977" on="1"/>
        <pt x="604" y="985" on="0"/>
        <pt x="458" y="1033" on="0"/>
        <pt x="430" y="1046" on="1"/>
        <pt x="367" y="1074" on="0"/>
        <pt x="367" y="1092" on="1"/>
        <pt x="367" y="1108" on="0"/>
        <pt x="459" y="1200" on="0"/>
        <pt x="478" y="1216" on="1"/>
        <pt x="520" y="1253" on="0"/>
        <pt x="528" y="1253" on="1"/>
        <pt x="537" y="1253" on="0"/>
        <pt x="555" y="1216" on="0"/>
        <pt x="597" y="1158" on="0"/>
        <pt x="622" y="1130" on="1"/>
        <pt x="665" y="1082" on="0"/>
      </contour>
    </TTGlyph>
    <TTGlyph name="at" xMin="147" yMin="-250" xMax="1628" yMax="1148">
      <contour>
        <pt x="1179" y="202" on="1"/>
        <pt x="1185" y="202" on="1"/>
        <pt x="1330" y="376" on="0"/>
        <pt x="1385" y="576" on="1"/>
        <pt x="1404" y="645" on="0"/>
        <pt x="1404" y="779" on="0"/>
        <pt x="1360" y="889" on="0"/>
        <pt x="1320" y="927" on="1"/>
        <pt x="1236" y="1005" on="0"/>
        <pt x="1097" y="1005" on="1"/>
        <pt x="915" y="1005" on="0"/>
        <pt x="743" y="887" on="1"/>
        <pt x="579" y="774" on="0"/>
        <pt x="480" y="598" on="1"/>
        <pt x="377" y="418" on="0"/>
        <pt x="377" y="237" on="1"/>
        <pt x="377" y="-3" on="0"/>
        <pt x="548" y="-84" on="1"/>
        <pt x="606" y="-112" on="0"/>
        <pt x="685" y="-114" on="1"/>
        <pt x="659" y="-121" on="0"/>
        <pt x="540" y="-212" on="0"/>
        <pt x="480" y="-250" on="0"/>
        <pt x="459" y="-250" on="1"/>
        <pt x="307" y="-250" on="0"/>
        <pt x="224" y="-142" on="1"/>
        <pt x="147" y="-44" on="0"/>
        <pt x="147" y="111" on="1"/>
        <pt x="147" y="363" on="0"/>
        <pt x="340" y="608" on="1"/>
        <pt x="514" y="829" on="0"/>
        <pt x="878" y="1008" on="1"/>
        <pt x="1163" y="1148" on="0"/>
        <pt x="1345" y="1148" on="1"/>
        <pt x="1481" y="1148" on="0"/>
        <pt x="1556" y="1062" on="1"/>
        <pt x="1628" y="980" on="0"/>
        <pt x="1628" y="842" on="1"/>
        <pt x="1628" y="660" on="0"/>
        <pt x="1479" y="444" on="1"/>
        <pt x="1304" y="190" on="0"/>
        <pt x="1101" y="97" on="1"/>
        <pt x="1031" y="65" on="0"/>
        <pt x="903" y="65" on="0"/>
        <pt x="903" y="125" on="1"/>
        <pt x="903" y="147" on="0"/>
        <pt x="913" y="182" on="1"/>
        <pt x="762" y="83" on="0"/>
        <pt x="667" y="83" on="1"/>
        <pt x="546" y="83" on="0"/>
        <pt x="506" y="166" on="1"/>
        <pt x="493" y="195" on="0"/>
        <pt x="493" y="299" on="0"/>
        <pt x="550" y="432" on="0"/>
        <pt x="646" y="555" on="0"/>
        <pt x="772" y="663" on="0"/>
        <pt x="840" y="704" on="1"/>
        <pt x="987" y="790" on="0"/>
        <pt x="1110" y="790" on="1"/>
        <pt x="1181" y="790" on="0"/>
        <pt x="1216" y="743" on="1"/>
        <pt x="1255" y="764" on="0"/>
        <pt x="1283" y="778" on="1"/>
        <pt x="1343" y="808" on="0"/>
        <pt x="1356" y="821" on="1"/>
        <pt x="1343" y="791" on="0"/>
        <pt x="1299" y="699" on="0"/>
        <pt x="1248" y="590" on="0"/>
        <pt x="1195" y="475" on="0"/>
        <pt x="1174" y="422" on="1"/>
        <pt x="1125" y="301" on="0"/>
        <pt x="1125" y="200" on="0"/>
      </contour>
      <contour>
        <pt x="722" y="371" on="1"/>
        <pt x="722" y="221" on="0"/>
        <pt x="896" y="221" on="1"/>
        <pt x="935" y="221" on="0"/>
        <pt x="994" y="370" on="1"/>
        <pt x="1021" y="440" on="0"/>
        <pt x="1021" y="537" on="0"/>
        <pt x="1008" y="589" on="0"/>
        <pt x="994" y="608" on="1"/>
        <pt x="963" y="651" on="0"/>
        <pt x="860" y="651" on="0"/>
        <pt x="793" y="591" on="0"/>
        <pt x="770" y="548" on="1"/>
        <pt x="722" y="460" on="0"/>
      </contour>
    </TTGlyph>
    <TTGlyph name="atilde" xMin="157" yMin="-20" xMax="1313" yMax="1364">
      <component glyphName="a" x="0" y="0" flags="0x1204"/>
      <component glyphName="tilde" x="331" y="-159" flags="0x1004"/>
    </TTGlyph>
    <TTGlyph name="b" xMin="219" yMin="-32" xMax="1211" yMax="1707">
      <contour>
        <pt x="540" y="807" on="1"/>
        <pt x="777" y="982" on="0"/>
        <pt x="949" y="982" on="1"/>
        <pt x="1143" y="982" on="0"/>
        <pt x="1195" y="810" on="1"/>
        <pt x="1211" y="757" on="0"/>
        <pt x="1211" y="610" on="0"/>
        <pt x="1149" y="437" on="0"/>
        <pt x="1042" y="275" on="0"/>
        <pt x="900" y="134" on="0"/>
        <pt x="819" y="82" on="1"/>
        <pt x="644" y="-32" on="0"/>
        <pt x="485" y="-32" on="1"/>
        <pt x="369" y="-32" on="0"/>
        <pt x="294" y="37" on="1"/>
        <pt x="219" y="107" on="0"/>
        <pt x="219" y="223" on="1"/>
        <pt x="219" y="264" on="0"/>
        <pt x="228" y="303" on="1"/>
        <pt x="459" y="1294" on="1"/>
        <pt x="476" y="1368" on="0"/>
        <pt x="476" y="1398" on="1"/>
        <pt x="476" y="1471" on="0"/>
        <pt x="409" y="1471" on="1"/>
        <pt x="383" y="1471" on="0"/>
        <pt x="323" y="1456" on="1"/>
        <pt x="371" y="1487" on="0"/>
        <pt x="477" y="1556" on="0"/>
        <pt x="532" y="1589" on="1"/>
        <pt x="658" y="1664" on="0"/>
        <pt x="750" y="1707" on="1"/>
      </contour>
      <contour>
        <pt x="973" y="403" on="0"/>
        <pt x="988" y="512" on="0"/>
        <pt x="988" y="623" on="0"/>
        <pt x="959" y="728" on="0"/>
        <pt x="929" y="766" on="1"/>
        <pt x="864" y="848" on="0"/>
        <pt x="739" y="848" on="1"/>
        <pt x="652" y="848" on="0"/>
        <pt x="578" y="764" on="1"/>
        <pt x="514" y="690" on="0"/>
        <pt x="491" y="597" on="1"/>
        <pt x="434" y="350" on="1"/>
        <pt x="427" y="323" on="0"/>
        <pt x="427" y="241" on="0"/>
        <pt x="465" y="168" on="0"/>
        <pt x="496" y="143" on="1"/>
        <pt x="558" y="94" on="0"/>
        <pt x="717" y="94" on="0"/>
        <pt x="813" y="135" on="0"/>
        <pt x="887" y="206" on="0"/>
        <pt x="939" y="299" on="0"/>
      </contour>
    </TTGlyph>
    <TTGlyph name="backslash" xMin="434" yMin="0" xMax="950" yMax="1439">
      <contour>
        <pt x="724" y="0" on="1"/>
        <pt x="498" y="610" on="0"/>
        <pt x="434" y="1303" on="1"/>
        <pt x="492" y="1335" on="0"/>
        <pt x="602" y="1407" on="0"/>
        <pt x="660" y="1439" on="1"/>
        <pt x="721" y="776" on="0"/>
        <pt x="910" y="251" on="1"/>
        <pt x="930" y="194" on="0"/>
        <pt x="950" y="136" on="1"/>
        <pt x="928" y="122" on="0"/>
        <pt x="869" y="82" on="0"/>
        <pt x="838" y="62" on="1"/>
        <pt x="761" y="13" on="0"/>
      </contour>
    </TTGlyph>
    <TTGlyph name="bar" xMin="109" yMin="-312" xMax="772" yMax="1700">
      <contour>
        <pt x="772" y="1700" on="1"/>
        <pt x="335" y="-176" on="1"/>
        <pt x="330" y="-196" on="0"/>
        <pt x="196" y="-263" on="0"/>
        <pt x="172" y="-276" on="1"/>
        <pt x="113" y="-305" on="0"/>
        <pt x="109" y="-312" on="1"/>
        <pt x="546" y="1564" on="1"/>
        <pt x="638" y="1629" on="0"/>
        <pt x="688" y="1654" on="1"/>
        <pt x="769" y="1696" on="0"/>
      </contour>
    </TTGlyph>
    <TTGlyph name="braceleft" xMin="171" yMin="-313" xMax="1310" yMax="1706">
      <contour>
        <pt x="333" y="422" on="1"/>
        <pt x="333" y="549" on="0"/>
        <pt x="171" y="628" on="1"/>
        <pt x="219" y="646" on="0"/>
        <pt x="321" y="720" on="0"/>
        <pt x="349" y="738" on="0"/>
        <pt x="370" y="749" on="0"/>
        <pt x="397" y="772" on="0"/>
        <pt x="429" y="822" on="0"/>
        <pt x="442" y="850" on="1"/>
        <pt x="477" y="932" on="0"/>
        <pt x="506" y="1117" on="0"/>
        <pt x="518" y="1167" on="1"/>
        <pt x="546" y="1283" on="0"/>
        <pt x="664" y="1424" on="0"/>
        <pt x="814" y="1550" on="0"/>
        <pt x="900" y="1599" on="1"/>
        <pt x="1088" y="1706" on="0"/>
        <pt x="1263" y="1706" on="1"/>
        <pt x="1275" y="1706" on="0"/>
        <pt x="1299" y="1706" on="0"/>
        <pt x="1310" y="1704" on="1"/>
        <pt x="1293" y="1700" on="0"/>
        <pt x="1226" y="1651" on="0"/>
        <pt x="1179" y="1617" on="0"/>
        <pt x="1157" y="1602" on="1"/>
        <pt x="1107" y="1568" on="0"/>
        <pt x="1084" y="1568" on="1"/>
        <pt x="999" y="1573" on="1"/>
        <pt x="937" y="1573" on="0"/>
        <pt x="895" y="1560" on="1"/>
        <pt x="794" y="1459" on="0"/>
        <pt x="758" y="1348" on="1"/>
        <pt x="742" y="1297" on="0"/>
        <pt x="723" y="1180" on="0"/>
        <pt x="689" y="1036" on="0"/>
        <pt x="640" y="936" on="0"/>
        <pt x="605" y="896" on="1"/>
        <pt x="549" y="830" on="0"/>
        <pt x="421" y="752" on="1"/>
        <pt x="560" y="678" on="0"/>
        <pt x="560" y="564" on="1"/>
        <pt x="560" y="516" on="0"/>
        <pt x="523" y="415" on="0"/>
        <pt x="501" y="362" on="1"/>
        <pt x="442" y="220" on="0"/>
        <pt x="442" y="65" on="0"/>
        <pt x="489" y="-49" on="0"/>
        <pt x="530" y="-90" on="1"/>
        <pt x="617" y="-177" on="0"/>
        <pt x="756" y="-177" on="1"/>
        <pt x="788" y="-177" on="0"/>
        <pt x="835" y="-170" on="1"/>
        <pt x="818" y="-181" on="0"/>
        <pt x="756" y="-224" on="0"/>
        <pt x="722" y="-246" on="1"/>
        <pt x="635" y="-301" on="0"/>
        <pt x="613" y="-306" on="1"/>
        <pt x="575" y="-313" on="0"/>
        <pt x="466" y="-313" on="0"/>
        <pt x="349" y="-269" on="0"/>
        <pt x="306" y="-228" on="1"/>
        <pt x="213" y="-141" on="0"/>
        <pt x="213" y="-7" on="1"/>
        <pt x="213" y="77" on="0"/>
        <pt x="272" y="215" on="1"/>
        <pt x="295" y="267" on="0"/>
        <pt x="333" y="369" on="0"/>
      </contour>
    </TTGlyph>
    <TTGlyph name="braceright" xMin="-97" yMin="-314" xMax="1042" yMax="1706">
      <contour>
        <pt x="880" y="971" on="1"/>
        <pt x="880" y="843" on="0"/>
        <pt x="1042" y="764" on="1"/>
        <pt x="863" y="702" on="0"/>
        <pt x="777" y="543" on="1"/>
        <pt x="736" y="467" on="0"/>
        <pt x="710" y="284" on="0"/>
        <pt x="679" y="162" on="0"/>
        <pt x="596" y="23" on="0"/>
        <pt x="479" y="-99" on="0"/>
        <pt x="337" y="-201" on="0"/>
        <pt x="260" y="-238" on="1"/>
        <pt x="100" y="-314" on="0"/>
        <pt x="-50" y="-314" on="1"/>
        <pt x="-73" y="-314" on="0"/>
        <pt x="-97" y="-311" on="1"/>
        <pt x="-81" y="-309" on="0"/>
        <pt x="34" y="-224" on="0"/>
        <pt x="56" y="-209" on="1"/>
        <pt x="106" y="-175" on="0"/>
        <pt x="129" y="-175" on="1"/>
        <pt x="214" y="-180" on="1"/>
        <pt x="276" y="-180" on="0"/>
        <pt x="318" y="-167" on="1"/>
        <pt x="421" y="-64" on="0"/>
        <pt x="455" y="44" on="1"/>
        <pt x="471" y="96" on="0"/>
        <pt x="490" y="212" on="0"/>
        <pt x="524" y="356" on="0"/>
        <pt x="573" y="457" on="0"/>
        <pt x="608" y="498" on="1"/>
        <pt x="664" y="563" on="0"/>
        <pt x="792" y="641" on="1"/>
        <pt x="653" y="715" on="0"/>
        <pt x="653" y="829" on="1"/>
        <pt x="653" y="877" on="0"/>
        <pt x="690" y="978" on="0"/>
        <pt x="712" y="1031" on="1"/>
        <pt x="771" y="1173" on="0"/>
        <pt x="771" y="1328" on="0"/>
        <pt x="724" y="1442" on="0"/>
        <pt x="682" y="1484" on="1"/>
        <pt x="596" y="1570" on="0"/>
        <pt x="457" y="1570" on="1"/>
        <pt x="423" y="1570" on="0"/>
        <pt x="379" y="1563" on="1"/>
        <pt x="567" y="1692" on="0"/>
        <pt x="605" y="1699" on="1"/>
        <pt x="636" y="1706" on="0"/>
        <pt x="747" y="1706" on="0"/>
        <pt x="864" y="1662" on="0"/>
        <pt x="907" y="1622" on="1"/>
        <pt x="1000" y="1534" on="0"/>
        <pt x="1000" y="1399" on="1"/>
        <pt x="1000" y="1316" on="0"/>
        <pt x="940" y="1178" on="1"/>
        <pt x="917" y="1126" on="0"/>
        <pt x="880" y="1024" on="0"/>
      </contour>
    </TTGlyph>
    <TTGlyph name="bracketleft" xMin="35" yMin="-312" xMax="1135" yMax="1700">
      <contour>
        <pt x="679" y="-176" on="1"/>
        <pt x="475" y="-312" on="0"/>
        <pt x="453" y="-312" on="1"/>
        <pt x="35" y="-312" on="1"/>
        <pt x="132" y="-236" on="0"/>
        <pt x="177" y="-45" on="1"/>
        <pt x="551" y="1564" on="1"/>
        <pt x="555" y="1590" on="0"/>
        <pt x="706" y="1670" on="1"/>
        <pt x="763" y="1700" on="0"/>
        <pt x="777" y="1700" on="1"/>
        <pt x="1135" y="1700" on="1"/>
        <pt x="1119" y="1697" on="0"/>
        <pt x="1003" y="1613" on="0"/>
        <pt x="981" y="1598" on="1"/>
        <pt x="931" y="1564" on="0"/>
        <pt x="909" y="1564" on="1"/>
        <pt x="746" y="1564" on="1"/>
        <pt x="379" y="-14" on="1"/>
        <pt x="365" y="-79" on="0"/>
        <pt x="303" y="-144" on="1"/>
        <pt x="285" y="-163" on="0"/>
        <pt x="266" y="-176" on="1"/>
      </contour>
    </TTGlyph>
    <TTGlyph name="bracketright" xMin="-77" yMin="-312" xMax="1023" yMax="1700">
      <contour>
        <pt x="379" y="1564" on="1"/>
        <pt x="583" y="1700" on="0"/>
        <pt x="605" y="1700" on="1"/>
        <pt x="1023" y="1700" on="1"/>
        <pt x="915" y="1584" on="0"/>
        <pt x="883" y="1442" on="1"/>
        <pt x="507" y="-176" on="1"/>
        <pt x="497" y="-205" on="0"/>
        <pt x="352" y="-282" on="1"/>
        <pt x="295" y="-312" on="0"/>
        <pt x="281" y="-312" on="1"/>
        <pt x="-77" y="-312" on="1"/>
        <pt x="-55" y="-308" on="0"/>
        <pt x="55" y="-224" on="0"/>
        <pt x="77" y="-210" on="1"/>
        <pt x="128" y="-176" on="0"/>
        <pt x="149" y="-176" on="1"/>
        <pt x="312" y="-176" on="1"/>
        <pt x="679" y="1402" on="1"/>
        <pt x="692" y="1462" on="0"/>
        <pt x="787" y="1564" on="1"/>
      </contour>
    </TTGlyph>
    <TTGlyph name="breve" xMin="0" yMin="1247" xMax="799" yMax="1627">
      <contour>
        <pt x="799" y="1627" on="1"/>
        <pt x="778" y="1542" on="0"/>
        <pt x="677" y="1450" on="1"/>
        <pt x="530" y="1316" on="0"/>
        <pt x="350" y="1263" on="1"/>
        <pt x="296" y="1247" on="0"/>
        <pt x="206" y="1247" on="0"/>
        <pt x="130" y="1275" on="0"/>
        <pt x="100" y="1300" on="1"/>
        <pt x="39" y="1352" on="0"/>
        <pt x="4" y="1464" on="1"/>
        <pt x="0" y="1479" on="0"/>
        <pt x="0" y="1499" on="0"/>
        <pt x="30" y="1521" on="0"/>
        <pt x="76" y="1547" on="0"/>
        <pt x="131" y="1574" on="0"/>
        <pt x="156" y="1586" on="1"/>
        <pt x="212" y="1613" on="0"/>
        <pt x="226" y="1627" on="1"/>
        <pt x="242" y="1531" on="0"/>
        <pt x="321" y="1426" on="0"/>
        <pt x="396" y="1380" on="0"/>
        <pt x="467" y="1380" on="0"/>
        <pt x="506" y="1402" on="0"/>
        <pt x="522" y="1418" on="1"/>
        <pt x="543" y="1440" on="0"/>
        <pt x="584" y="1510" on="0"/>
        <pt x="644" y="1545" on="0"/>
        <pt x="680" y="1562" on="1"/>
        <pt x="780" y="1608" on="0"/>
      </contour>
    </TTGlyph>
    <TTGlyph name="brokenbar" xMin="113" yMin="-312" xMax="776" yMax="1700">
      <contour>
        <pt x="776" y="1700" on="1"/>
        <pt x="592" y="911" on="1"/>
        <pt x="588" y="891" on="0"/>
        <pt x="461" y="829" on="0"/>
        <pt x="436" y="817" on="1"/>
        <pt x="377" y="788" on="0"/>
        <pt x="366" y="775" on="1"/>
        <pt x="550" y="1564" on="1"/>
        <pt x="555" y="1586" on="0"/>
        <pt x="681" y="1646" on="0"/>
        <pt x="705" y="1658" on="1"/>
        <pt x="763" y="1687" on="0"/>
      </contour>
      <contour>
        <pt x="523" y="613" on="1"/>
        <pt x="339" y="-176" on="1"/>
        <pt x="335" y="-196" on="0"/>
        <pt x="208" y="-258" on="0"/>
        <pt x="184" y="-270" on="1"/>
        <pt x="124" y="-301" on="0"/>
        <pt x="113" y="-312" on="1"/>
        <pt x="297" y="477" on="1"/>
        <pt x="302" y="497" on="0"/>
        <pt x="428" y="558" on="0"/>
        <pt x="452" y="570" on="1"/>
        <pt x="511" y="601" on="0"/>
      </contour>
    </TTGlyph>
    <TTGlyph name="bullet" xMin="339" yMin="476" xMax="823" yMax="977">
      <contour>
        <pt x="823" y="701" on="1"/>
        <pt x="448" y="476" on="1"/>
        <pt x="339" y="751" on="1"/>
        <pt x="714" y="977" on="1"/>
      </contour>
    </TTGlyph>
    <TTGlyph name="c" xMin="153" yMin="-16" xMax="1152" yMax="1007">
      <contour>
        <pt x="901" y="774" on="1"/>
        <pt x="908" y="778" on="0"/>
        <pt x="928" y="803" on="0"/>
        <pt x="928" y="815" on="0"/>
        <pt x="903" y="833" on="0"/>
        <pt x="864" y="848" on="0"/>
        <pt x="817" y="861" on="0"/>
        <pt x="794" y="865" on="1"/>
        <pt x="744" y="874" on="0"/>
        <pt x="668" y="874" on="0"/>
        <pt x="571" y="834" on="0"/>
        <pt x="495" y="765" on="0"/>
        <pt x="438" y="673" on="0"/>
        <pt x="420" y="622" on="1"/>
        <pt x="383" y="520" on="0"/>
        <pt x="383" y="337" on="0"/>
        <pt x="429" y="227" on="0"/>
        <pt x="470" y="191" on="1"/>
        <pt x="552" y="120" on="0"/>
        <pt x="700" y="120" on="1"/>
        <pt x="820" y="120" on="0"/>
        <pt x="942" y="180" on="1"/>
        <pt x="789" y="47" on="0"/>
        <pt x="586" y="0" on="1"/>
        <pt x="520" y="-16" on="0"/>
        <pt x="390" y="-16" on="0"/>
        <pt x="277" y="23" on="0"/>
        <pt x="237" y="60" on="1"/>
        <pt x="153" y="139" on="0"/>
        <pt x="153" y="278" on="1"/>
        <pt x="153" y="448" on="0"/>
        <pt x="286" y="625" on="1"/>
        <pt x="410" y="790" on="0"/>
        <pt x="597" y="897" on="1"/>
        <pt x="789" y="1007" on="0"/>
        <pt x="953" y="1007" on="1"/>
        <pt x="1063" y="1007" on="0"/>
        <pt x="1134" y="963" on="1"/>
        <pt x="1152" y="954" on="0"/>
        <pt x="1152" y="932" on="0"/>
        <pt x="1120" y="901" on="0"/>
        <pt x="1071" y="864" on="0"/>
        <pt x="1011" y="826" on="0"/>
        <pt x="983" y="810" on="1"/>
        <pt x="921" y="776" on="0"/>
      </contour>
    </TTGlyph>
    <TTGlyph name="cacute" xMin="153" yMin="-16" xMax="1237" yMax="1464">
      <component glyphName="c" x="0" y="0" flags="0x1204"/>
      <component glyphName="acute" x="649" y="-239" flags="0x1004"/>
    </TTGlyph>
    <TTGlyph name="caron" xMin="-4" yMin="1253" xMax="689" yMax="1628">
      <contour>
        <pt x="218" y="1628" on="1"/>
        <pt x="228" y="1628" on="0"/>
        <pt x="369" y="1416" on="1"/>
        <pt x="470" y="1495" on="1"/>
        <pt x="484" y="1506" on="0"/>
        <pt x="518" y="1522" on="0"/>
        <pt x="546" y="1536" on="1"/>
        <pt x="637" y="1584" on="0"/>
        <pt x="689" y="1624" on="1"/>
        <pt x="384" y="1386" on="1"/>
        <pt x="346" y="1359" on="0"/>
        <pt x="297" y="1328" on="0"/>
        <pt x="247" y="1296" on="0"/>
        <pt x="225" y="1283" on="1"/>
        <pt x="174" y="1253" on="0"/>
        <pt x="163" y="1253" on="0"/>
        <pt x="149" y="1273" on="0"/>
        <pt x="108" y="1328" on="0"/>
        <pt x="34" y="1437" on="0"/>
        <pt x="-4" y="1491" on="1"/>
        <pt x="201" y="1628" on="0"/>
      </contour>
    </TTGlyph>
    <TTGlyph name="ccaron" xMin="153" yMin="-16" xMax="1193" yMax="1401">
      <component glyphName="c" x="0" y="0" flags="0x1204"/>
      <component glyphName="caron" x="504" y="-227" flags="0x1004"/>
    </TTGlyph>
    <TTGlyph name="ccedilla" xMin="123" yMin="-501" xMax="1152" yMax="1007">
      <contour>
        <pt x="333" y="-288" on="1"/>
        <pt x="333" y="-226" on="0"/>
        <pt x="238" y="-226" on="1"/>
        <pt x="207" y="-226" on="0"/>
        <pt x="143" y="-242" on="1"/>
        <pt x="192" y="-204" on="0"/>
        <pt x="290" y="-132" on="0"/>
        <pt x="397" y="-53" on="0"/>
        <pt x="448" y="-16" on="1"/>
        <pt x="239" y="-13" on="0"/>
        <pt x="174" y="154" on="1"/>
        <pt x="153" y="208" on="0"/>
        <pt x="153" y="367" on="0"/>
        <pt x="225" y="544" on="0"/>
        <pt x="347" y="706" on="0"/>
        <pt x="508" y="846" on="0"/>
        <pt x="597" y="897" on="1"/>
        <pt x="789" y="1007" on="0"/>
        <pt x="953" y="1007" on="1"/>
        <pt x="1063" y="1007" on="0"/>
        <pt x="1134" y="963" on="1"/>
        <pt x="1152" y="954" on="0"/>
        <pt x="1152" y="932" on="0"/>
        <pt x="1120" y="901" on="0"/>
        <pt x="1071" y="864" on="0"/>
        <pt x="1011" y="826" on="0"/>
        <pt x="983" y="810" on="1"/>
        <pt x="921" y="776" on="0"/>
        <pt x="901" y="774" on="1"/>
        <pt x="908" y="778" on="0"/>
        <pt x="928" y="803" on="0"/>
        <pt x="928" y="815" on="0"/>
        <pt x="903" y="833" on="0"/>
        <pt x="864" y="848" on="0"/>
        <pt x="817" y="861" on="0"/>
        <pt x="794" y="865" on="1"/>
        <pt x="744" y="874" on="0"/>
        <pt x="668" y="874" on="0"/>
        <pt x="571" y="834" on="0"/>
        <pt x="495" y="765" on="0"/>
        <pt x="438" y="673" on="0"/>
        <pt x="420" y="622" on="1"/>
        <pt x="383" y="520" on="0"/>
        <pt x="383" y="337" on="0"/>
        <pt x="429" y="227" on="0"/>
        <pt x="470" y="191" on="1"/>
        <pt x="552" y="120" on="0"/>
        <pt x="700" y="120" on="1"/>
        <pt x="820" y="120" on="0"/>
        <pt x="942" y="180" on="1"/>
        <pt x="800" y="54" on="0"/>
        <pt x="600" y="2" on="1"/>
        <pt x="536" y="-14" on="0"/>
        <pt x="476" y="-16" on="1"/>
        <pt x="366" y="-108" on="1"/>
        <pt x="390" y="-92" on="0"/>
        <pt x="470" y="-92" on="0"/>
        <pt x="506" y="-98" on="0"/>
        <pt x="522" y="-105" on="1"/>
        <pt x="558" y="-121" on="0"/>
        <pt x="558" y="-189" on="0"/>
        <pt x="508" y="-258" on="0"/>
        <pt x="428" y="-326" on="0"/>
        <pt x="329" y="-391" on="0"/>
        <pt x="280" y="-418" on="1"/>
        <pt x="201" y="-463" on="0"/>
        <pt x="123" y="-501" on="1"/>
        <pt x="155" y="-475" on="0"/>
        <pt x="225" y="-436" on="0"/>
        <pt x="274" y="-405" on="0"/>
        <pt x="301" y="-377" on="0"/>
        <pt x="311" y="-360" on="1"/>
        <pt x="333" y="-321" on="0"/>
      </contour>
    </TTGlyph>
    <TTGlyph name="ccircumflex" xMin="153" yMin="-16" xMax="1181" yMax="1440">
      <component glyphName="c" x="0" y="0" flags="0x1204"/>
      <component glyphName="circumflex" x="484" y="-188" flags="0x1004"/>
    </TTGlyph>
    <TTGlyph name="cdotaccent" xMin="153" yMin="-16" xMax="1152" yMax="1342">
      <component glyphName="c" x="0" y="0" flags="0x1204"/>
      <component glyphName="dotaccent" x="625" y="-180" flags="0x1004"/>
    </TTGlyph>
    <TTGlyph name="cedilla" xMin="0" yMin="-501" xMax="478" yMax="88">
      <contour>
        <pt x="210" y="-288" on="1"/>
        <pt x="210" y="-226" on="0"/>
        <pt x="115" y="-226" on="1"/>
        <pt x="84" y="-226" on="0"/>
        <pt x="20" y="-242" on="1"/>
        <pt x="429" y="66" on="0"/>
        <pt x="478" y="88" on="1"/>
        <pt x="243" y="-108" on="1"/>
        <pt x="267" y="-92" on="0"/>
        <pt x="347" y="-92" on="0"/>
        <pt x="383" y="-98" on="0"/>
        <pt x="398" y="-105" on="1"/>
        <pt x="435" y="-121" on="0"/>
        <pt x="435" y="-189" on="0"/>
        <pt x="385" y="-258" on="0"/>
        <pt x="305" y="-326" on="0"/>
        <pt x="206" y="-391" on="0"/>
        <pt x="158" y="-418" on="1"/>
        <pt x="78" y="-463" on="0"/>
        <pt x="0" y="-501" on="1"/>
        <pt x="32" y="-475" on="0"/>
        <pt x="102" y="-436" on="0"/>
        <pt x="151" y="-405" on="0"/>
        <pt x="178" y="-377" on="0"/>
        <pt x="188" y="-360" on="1"/>
        <pt x="210" y="-321" on="0"/>
      </contour>
    </TTGlyph>
    <TTGlyph name="cent" xMin="210" yMin="-52" xMax="1097" yMax="1272">
      <contour>
        <pt x="848" y="824" on="1"/>
        <pt x="867" y="834" on="0"/>
        <pt x="867" y="852" on="0"/>
        <pt x="838" y="868" on="0"/>
        <pt x="793" y="880" on="0"/>
        <pt x="738" y="891" on="0"/>
        <pt x="712" y="894" on="1"/>
        <pt x="653" y="901" on="0"/>
        <pt x="638" y="901" on="1"/>
        <pt x="549" y="901" on="0"/>
        <pt x="487" y="782" on="1"/>
        <pt x="433" y="680" on="0"/>
        <pt x="433" y="525" on="0"/>
        <pt x="475" y="431" on="0"/>
        <pt x="512" y="398" on="1"/>
        <pt x="588" y="332" on="0"/>
        <pt x="706" y="332" on="1"/>
        <pt x="806" y="332" on="0"/>
        <pt x="904" y="380" on="1"/>
        <pt x="921" y="388" on="0"/>
        <pt x="936" y="390" on="1"/>
        <pt x="935" y="388" on="1"/>
        <pt x="893" y="346" on="0"/>
        <pt x="709" y="254" on="1"/>
        <pt x="687" y="243" on="0"/>
        <pt x="674" y="238" on="1"/>
        <pt x="638" y="84" on="1"/>
        <pt x="542" y="17" on="0"/>
        <pt x="514" y="2" on="1"/>
        <pt x="467" y="-21" on="1"/>
        <pt x="419" y="-45" on="0"/>
        <pt x="412" y="-52" on="1"/>
        <pt x="422" y="-13" on="0"/>
        <pt x="439" y="66" on="0"/>
        <pt x="454" y="126" on="0"/>
        <pt x="462" y="173" on="0"/>
        <pt x="470" y="192" on="1"/>
        <pt x="444" y="191" on="1"/>
        <pt x="337" y="189" on="0"/>
        <pt x="272" y="266" on="1"/>
        <pt x="210" y="339" on="0"/>
        <pt x="210" y="543" on="0"/>
        <pt x="292" y="697" on="0"/>
        <pt x="356" y="760" on="1"/>
        <pt x="453" y="855" on="0"/>
        <pt x="649" y="963" on="1"/>
        <pt x="689" y="1136" on="1"/>
        <pt x="694" y="1154" on="0"/>
        <pt x="821" y="1219" on="0"/>
        <pt x="846" y="1231" on="1"/>
        <pt x="904" y="1260" on="0"/>
        <pt x="915" y="1272" on="1"/>
        <pt x="860" y="1036" on="1"/>
        <pt x="885" y="1039" on="0"/>
        <pt x="924" y="1039" on="0"/>
        <pt x="984" y="1031" on="0"/>
        <pt x="1016" y="1024" on="1"/>
        <pt x="1097" y="1005" on="0"/>
        <pt x="1097" y="980" on="1"/>
        <pt x="1097" y="963" on="0"/>
        <pt x="962" y="875" on="0"/>
        <pt x="934" y="860" on="1"/>
        <pt x="870" y="824" on="0"/>
      </contour>
    </TTGlyph>
    <TTGlyph name="circumflex" xMin="4" yMin="1253" xMax="697" yMax="1628">
      <contour>
        <pt x="475" y="1253" on="1"/>
        <pt x="465" y="1253" on="0"/>
        <pt x="324" y="1465" on="1"/>
        <pt x="223" y="1386" on="1"/>
        <pt x="209" y="1375" on="0"/>
        <pt x="175" y="1360" on="0"/>
        <pt x="147" y="1345" on="1"/>
        <pt x="52" y="1294" on="0"/>
        <pt x="4" y="1258" on="1"/>
        <pt x="309" y="1495" on="1"/>
        <pt x="381" y="1555" on="0"/>
        <pt x="506" y="1620" on="1"/>
        <pt x="523" y="1628" on="0"/>
        <pt x="528" y="1628" on="0"/>
        <pt x="533" y="1622" on="0"/>
        <pt x="536" y="1618" on="1"/>
        <pt x="545" y="1606" on="0"/>
        <pt x="564" y="1580" on="1"/>
        <pt x="590" y="1545" on="0"/>
        <pt x="697" y="1390" on="1"/>
        <pt x="491" y="1253" on="0"/>
      </contour>
    </TTGlyph>
    <TTGlyph name="colon" xMin="165" yMin="-30" xMax="606" yMax="913">
      <contour>
        <pt x="606" y="746" on="1"/>
        <pt x="380" y="610" on="1"/>
        <pt x="314" y="777" on="1"/>
        <pt x="540" y="913" on="1"/>
      </contour>
      <contour>
        <pt x="457" y="106" on="1"/>
        <pt x="231" y="-30" on="1"/>
        <pt x="165" y="137" on="1"/>
        <pt x="391" y="273" on="1"/>
      </contour>
    </TTGlyph>
    <TTGlyph name="comma" xMin="121" yMin="-280" xMax="406" yMax="273">
      <contour>
        <pt x="347" y="273" on="1"/>
        <pt x="404" y="142" on="0"/>
        <pt x="406" y="98" on="1"/>
        <pt x="406" y="92" on="1"/>
        <pt x="406" y="-35" on="0"/>
        <pt x="301" y="-154" on="1"/>
        <pt x="239" y="-225" on="0"/>
        <pt x="151" y="-261" on="0"/>
        <pt x="126" y="-280" on="1"/>
        <pt x="222" y="-204" on="0"/>
        <pt x="266" y="-109" on="1"/>
        <pt x="281" y="-75" on="0"/>
        <pt x="281" y="-2" on="0"/>
        <pt x="251" y="-2" on="1"/>
        <pt x="243" y="-2" on="0"/>
        <pt x="187" y="-30" on="1"/>
        <pt x="121" y="137" on="1"/>
      </contour>
    </TTGlyph>
    <TTGlyph name="copyright" xMin="236" yMin="44" xMax="1759" yMax="1393">
      <contour>
        <pt x="723" y="44" on="1"/>
        <pt x="633" y="44" on="0"/>
        <pt x="451" y="97" on="0"/>
        <pt x="383" y="150" on="1"/>
        <pt x="236" y="266" on="0"/>
        <pt x="236" y="477" on="1"/>
        <pt x="236" y="708" on="0"/>
        <pt x="404" y="928" on="1"/>
        <pt x="561" y="1133" on="0"/>
        <pt x="803" y="1262" on="1"/>
        <pt x="1047" y="1393" on="0"/>
        <pt x="1273" y="1393" on="1"/>
        <pt x="1476" y="1393" on="0"/>
        <pt x="1614" y="1274" on="1"/>
        <pt x="1759" y="1149" on="0"/>
        <pt x="1759" y="947" on="1"/>
        <pt x="1759" y="706" on="0"/>
        <pt x="1545" y="466" on="1"/>
        <pt x="1345" y="241" on="0"/>
        <pt x="1072" y="122" on="1"/>
        <pt x="890" y="44" on="0"/>
      </contour>
      <contour>
        <pt x="1516" y="658" on="1"/>
        <pt x="1534" y="737" on="0"/>
        <pt x="1534" y="922" on="0"/>
        <pt x="1452" y="1085" on="0"/>
        <pt x="1384" y="1140" on="1"/>
        <pt x="1245" y="1253" on="0"/>
        <pt x="1037" y="1253" on="1"/>
        <pt x="773" y="1253" on="0"/>
        <pt x="612" y="1062" on="1"/>
        <pt x="462" y="883" on="0"/>
        <pt x="462" y="617" on="1"/>
        <pt x="462" y="410" on="0"/>
        <pt x="612" y="288" on="1"/>
        <pt x="750" y="176" on="0"/>
        <pt x="962" y="176" on="1"/>
        <pt x="1126" y="176" on="0"/>
        <pt x="1262" y="272" on="1"/>
        <pt x="1456" y="407" on="0"/>
      </contour>
      <contour>
        <pt x="1167" y="917" on="1"/>
        <pt x="1184" y="934" on="0"/>
        <pt x="1184" y="935" on="1"/>
        <pt x="1184" y="968" on="0"/>
        <pt x="1025" y="968" on="1"/>
        <pt x="911" y="968" on="0"/>
        <pt x="842" y="888" on="1"/>
        <pt x="778" y="812" on="0"/>
        <pt x="778" y="697" on="1"/>
        <pt x="778" y="594" on="0"/>
        <pt x="856" y="534" on="1"/>
        <pt x="929" y="479" on="0"/>
        <pt x="1034" y="479" on="1"/>
        <pt x="1151" y="479" on="0"/>
        <pt x="1265" y="534" on="1"/>
        <pt x="1110" y="418" on="0"/>
        <pt x="1011" y="372" on="0"/>
        <pt x="972" y="361" on="1"/>
        <pt x="894" y="339" on="0"/>
        <pt x="736" y="339" on="0"/>
        <pt x="651" y="369" on="0"/>
        <pt x="620" y="398" on="1"/>
        <pt x="554" y="458" on="0"/>
        <pt x="554" y="631" on="0"/>
        <pt x="623" y="767" on="0"/>
        <pt x="736" y="888" on="0"/>
        <pt x="882" y="989" on="0"/>
        <pt x="960" y="1026" on="1"/>
        <pt x="1123" y="1104" on="0"/>
        <pt x="1251" y="1104" on="1"/>
        <pt x="1400" y="1104" on="0"/>
        <pt x="1417" y="1071" on="1"/>
        <pt x="1370" y="1024" on="0"/>
        <pt x="1198" y="932" on="1"/>
        <pt x="1178" y="921" on="0"/>
      </contour>
    </TTGlyph>
    <TTGlyph name="currency" xMin="0" yMin="315" xMax="1066" yMax="1136">
      <contour>
        <pt x="468" y="1008" on="1"/>
        <pt x="609" y="1081" on="0"/>
        <pt x="805" y="1081" on="0"/>
        <pt x="868" y="1018" on="1"/>
        <pt x="1016" y="1113" on="0"/>
        <pt x="1066" y="1131" on="1"/>
        <pt x="1055" y="1118" on="0"/>
        <pt x="1024" y="1096" on="0"/>
        <pt x="1011" y="1085" on="1"/>
        <pt x="893" y="988" on="1"/>
        <pt x="931" y="933" on="0"/>
        <pt x="931" y="855" on="1"/>
        <pt x="931" y="720" on="0"/>
        <pt x="780" y="585" on="1"/>
        <pt x="884" y="452" on="1"/>
        <pt x="850" y="430" on="0"/>
        <pt x="794" y="392" on="0"/>
        <pt x="745" y="361" on="0"/>
        <pt x="723" y="348" on="1"/>
        <pt x="673" y="317" on="0"/>
        <pt x="660" y="315" on="1"/>
        <pt x="660" y="315" on="0"/>
        <pt x="560" y="441" on="1"/>
        <pt x="437" y="382" on="0"/>
        <pt x="262" y="382" on="0"/>
        <pt x="193" y="433" on="1"/>
        <pt x="177" y="423" on="0"/>
        <pt x="124" y="388" on="0"/>
        <pt x="96" y="370" on="1"/>
        <pt x="23" y="326" on="0"/>
        <pt x="0" y="320" on="1"/>
        <pt x="166" y="458" on="1"/>
        <pt x="120" y="508" on="0"/>
        <pt x="120" y="606" on="1"/>
        <pt x="120" y="715" on="0"/>
        <pt x="199" y="810" on="1"/>
        <pt x="223" y="839" on="0"/>
        <pt x="251" y="862" on="1"/>
        <pt x="250" y="862" on="1"/>
        <pt x="142" y="999" on="1"/>
        <pt x="169" y="1017" on="1"/>
        <pt x="334" y="1127" on="0"/>
        <pt x="366" y="1136" on="1"/>
      </contour>
      <contour>
        <pt x="478" y="949" on="1"/>
        <pt x="410" y="949" on="0"/>
        <pt x="374" y="868" on="1"/>
        <pt x="346" y="806" on="0"/>
        <pt x="346" y="678" on="0"/>
        <pt x="380" y="597" on="0"/>
        <pt x="410" y="570" on="1"/>
        <pt x="472" y="513" on="0"/>
        <pt x="575" y="513" on="1"/>
        <pt x="639" y="513" on="0"/>
        <pt x="676" y="592" on="1"/>
        <pt x="707" y="657" on="0"/>
        <pt x="707" y="717" on="1"/>
        <pt x="707" y="826" on="0"/>
        <pt x="576" y="949" on="0"/>
      </contour>
    </TTGlyph>
    <TTGlyph name="d" xMin="156" yMin="-20" xMax="1372" yMax="1707">
      <contour>
        <pt x="1099" y="1397" on="1"/>
        <pt x="1099" y="1471" on="0"/>
        <pt x="1034" y="1471" on="1"/>
        <pt x="1011" y="1471" on="0"/>
        <pt x="967" y="1461" on="0"/>
        <pt x="945" y="1456" on="1"/>
        <pt x="1050" y="1523" on="0"/>
        <pt x="1259" y="1655" on="0"/>
        <pt x="1372" y="1707" on="1"/>
        <pt x="1039" y="277" on="1"/>
        <pt x="1028" y="235" on="0"/>
        <pt x="1028" y="199" on="1"/>
        <pt x="1028" y="120" on="0"/>
        <pt x="1124" y="120" on="1"/>
        <pt x="1154" y="120" on="0"/>
        <pt x="1184" y="126" on="1"/>
        <pt x="1153" y="105" on="0"/>
        <pt x="1085" y="55" on="0"/>
        <pt x="1048" y="34" on="1"/>
        <pt x="962" y="-16" on="0"/>
        <pt x="895" y="-16" on="1"/>
        <pt x="824" y="-16" on="0"/>
        <pt x="806" y="20" on="1"/>
        <pt x="798" y="35" on="0"/>
        <pt x="798" y="56" on="1"/>
        <pt x="798" y="89" on="0"/>
        <pt x="810" y="132" on="1"/>
        <pt x="640" y="24" on="0"/>
        <pt x="491" y="-20" on="0"/>
        <pt x="445" y="-20" on="1"/>
        <pt x="306" y="-20" on="0"/>
        <pt x="156" y="124" on="0"/>
        <pt x="156" y="264" on="1"/>
        <pt x="156" y="447" on="0"/>
        <pt x="279" y="622" on="1"/>
        <pt x="393" y="783" on="0"/>
        <pt x="576" y="888" on="1"/>
        <pt x="761" y="992" on="0"/>
        <pt x="943" y="992" on="1"/>
        <pt x="980" y="992" on="0"/>
        <pt x="1010" y="985" on="1"/>
        <pt x="1086" y="1313" on="1"/>
        <pt x="1099" y="1365" on="0"/>
      </contour>
      <contour>
        <pt x="946" y="712" on="1"/>
        <pt x="892" y="858" on="0"/>
        <pt x="707" y="858" on="1"/>
        <pt x="543" y="858" on="0"/>
        <pt x="455" y="700" on="1"/>
        <pt x="381" y="568" on="0"/>
        <pt x="381" y="414" on="1"/>
        <pt x="381" y="115" on="0"/>
        <pt x="657" y="115" on="1"/>
        <pt x="696" y="115" on="0"/>
        <pt x="741" y="138" on="1"/>
        <pt x="821" y="180" on="0"/>
        <pt x="831" y="217" on="1"/>
      </contour>
    </TTGlyph>
    <TTGlyph name="dagger" xMin="310" yMin="-312" xMax="1179" yMax="1700">
      <contour>
        <pt x="310" y="1011" on="1"/>
        <pt x="514" y="1147" on="0"/>
        <pt x="536" y="1147" on="1"/>
        <pt x="677" y="1147" on="1"/>
        <pt x="774" y="1564" on="1"/>
        <pt x="802" y="1583" on="0"/>
        <pt x="856" y="1620" on="0"/>
        <pt x="894" y="1643" on="0"/>
        <pt x="911" y="1652" on="1"/>
        <pt x="946" y="1669" on="1"/>
        <pt x="988" y="1690" on="0"/>
        <pt x="1000" y="1700" on="1"/>
        <pt x="871" y="1147" on="1"/>
        <pt x="1179" y="1147" on="1"/>
        <pt x="1163" y="1145" on="0"/>
        <pt x="1094" y="1094" on="0"/>
        <pt x="1047" y="1060" on="0"/>
        <pt x="1025" y="1045" on="1"/>
        <pt x="975" y="1011" on="0"/>
        <pt x="953" y="1011" on="1"/>
        <pt x="840" y="1011" on="1"/>
        <pt x="564" y="-176" on="1"/>
        <pt x="559" y="-197" on="0"/>
        <pt x="430" y="-259" on="0"/>
        <pt x="406" y="-272" on="1"/>
        <pt x="347" y="-301" on="0"/>
        <pt x="338" y="-312" on="1"/>
        <pt x="645" y="1011" on="1"/>
      </contour>
    </TTGlyph>
    <TTGlyph name="daggerdbl" xMin="164" yMin="-312" xMax="1194" yMax="1700">
      <contour>
        <pt x="325" y="1011" on="1"/>
        <pt x="529" y="1147" on="0"/>
        <pt x="551" y="1147" on="1"/>
        <pt x="692" y="1147" on="1"/>
        <pt x="789" y="1564" on="1"/>
        <pt x="817" y="1583" on="0"/>
        <pt x="871" y="1620" on="0"/>
        <pt x="909" y="1643" on="0"/>
        <pt x="926" y="1652" on="1"/>
        <pt x="961" y="1669" on="1"/>
        <pt x="1003" y="1690" on="0"/>
        <pt x="1015" y="1700" on="1"/>
        <pt x="886" y="1147" on="1"/>
        <pt x="1194" y="1147" on="1"/>
        <pt x="1177" y="1143" on="0"/>
        <pt x="1062" y="1060" on="0"/>
        <pt x="1040" y="1045" on="1"/>
        <pt x="990" y="1011" on="0"/>
        <pt x="968" y="1011" on="1"/>
        <pt x="855" y="1011" on="1"/>
        <pt x="725" y="455" on="1"/>
        <pt x="1033" y="455" on="1"/>
        <pt x="1017" y="453" on="0"/>
        <pt x="948" y="402" on="0"/>
        <pt x="901" y="368" on="0"/>
        <pt x="879" y="353" on="1"/>
        <pt x="829" y="319" on="0"/>
        <pt x="807" y="319" on="1"/>
        <pt x="694" y="319" on="1"/>
        <pt x="579" y="-176" on="1"/>
        <pt x="574" y="-197" on="0"/>
        <pt x="446" y="-259" on="0"/>
        <pt x="422" y="-272" on="1"/>
        <pt x="361" y="-302" on="0"/>
        <pt x="353" y="-312" on="1"/>
        <pt x="499" y="319" on="1"/>
        <pt x="164" y="319" on="1"/>
        <pt x="368" y="455" on="0"/>
        <pt x="390" y="455" on="1"/>
        <pt x="531" y="455" on="1"/>
        <pt x="660" y="1011" on="1"/>
      </contour>
    </TTGlyph>
    <TTGlyph name="dcaron" xMin="156" yMin="-20" xMax="1679" yMax="1707">
      <component glyphName="d" x="0" y="0" flags="0x1004"/>
      <component glyphName="uni0315" x="1451" y="0" flags="0x1004"/>
    </TTGlyph>
    <TTGlyph name="dcroat" xMin="156" yMin="-20" xMax="1528" yMax="1707">
      <contour>
        <pt x="1099" y="1397" on="1"/>
        <pt x="1099" y="1471" on="0"/>
        <pt x="1034" y="1471" on="1"/>
        <pt x="1011" y="1471" on="0"/>
        <pt x="967" y="1461" on="0"/>
        <pt x="945" y="1456" on="1"/>
        <pt x="1050" y="1523" on="0"/>
        <pt x="1259" y="1655" on="0"/>
        <pt x="1372" y="1707" on="1"/>
        <pt x="1271" y="1276" on="1"/>
        <pt x="1528" y="1276" on="1"/>
        <pt x="1512" y="1273" on="0"/>
        <pt x="1396" y="1189" on="0"/>
        <pt x="1374" y="1174" on="1"/>
        <pt x="1324" y="1140" on="0"/>
        <pt x="1302" y="1140" on="1"/>
        <pt x="1240" y="1140" on="1"/>
        <pt x="1039" y="277" on="1"/>
        <pt x="1028" y="235" on="0"/>
        <pt x="1028" y="199" on="1"/>
        <pt x="1028" y="120" on="0"/>
        <pt x="1124" y="120" on="1"/>
        <pt x="1154" y="120" on="0"/>
        <pt x="1184" y="126" on="1"/>
        <pt x="1153" y="105" on="0"/>
        <pt x="1085" y="55" on="0"/>
        <pt x="1048" y="34" on="1"/>
        <pt x="962" y="-16" on="0"/>
        <pt x="895" y="-16" on="1"/>
        <pt x="824" y="-16" on="0"/>
        <pt x="806" y="20" on="1"/>
        <pt x="798" y="35" on="0"/>
        <pt x="798" y="56" on="1"/>
        <pt x="798" y="89" on="0"/>
        <pt x="810" y="132" on="1"/>
        <pt x="640" y="24" on="0"/>
        <pt x="491" y="-20" on="0"/>
        <pt x="445" y="-20" on="1"/>
        <pt x="306" y="-20" on="0"/>
        <pt x="156" y="124" on="0"/>
        <pt x="156" y="264" on="1"/>
        <pt x="156" y="447" on="0"/>
        <pt x="279" y="622" on="1"/>
        <pt x="393" y="783" on="0"/>
        <pt x="576" y="888" on="1"/>
        <pt x="761" y="992" on="0"/>
        <pt x="943" y="992" on="1"/>
        <pt x="980" y="992" on="0"/>
        <pt x="1010" y="985" on="1"/>
        <pt x="1046" y="1140" on="1"/>
        <pt x="800" y="1140" on="1"/>
        <pt x="816" y="1142" on="0"/>
        <pt x="931" y="1227" on="0"/>
        <pt x="953" y="1242" on="1"/>
        <pt x="1003" y="1276" on="0"/>
        <pt x="1026" y="1276" on="1"/>
        <pt x="1077" y="1276" on="1"/>
        <pt x="1086" y="1313" on="1"/>
        <pt x="1099" y="1365" on="0"/>
      </contour>
      <contour>
        <pt x="946" y="712" on="1"/>
        <pt x="892" y="858" on="0"/>
        <pt x="707" y="858" on="1"/>
        <pt x="543" y="858" on="0"/>
        <pt x="455" y="700" on="1"/>
        <pt x="381" y="568" on="0"/>
        <pt x="381" y="414" on="1"/>
        <pt x="381" y="115" on="0"/>
        <pt x="657" y="115" on="1"/>
        <pt x="696" y="115" on="0"/>
        <pt x="741" y="138" on="1"/>
        <pt x="821" y="180" on="0"/>
        <pt x="831" y="217" on="1"/>
      </contour>
    </TTGlyph>
    <TTGlyph name="degree" xMin="345" yMin="933" xMax="918" yMax="1399">
      <contour>
        <pt x="489" y="933" on="1"/>
        <pt x="458" y="933" on="0"/>
        <pt x="407" y="948" on="0"/>
        <pt x="388" y="963" on="1"/>
        <pt x="345" y="996" on="0"/>
        <pt x="345" y="1084" on="0"/>
        <pt x="365" y="1139" on="0"/>
        <pt x="382" y="1163" on="1"/>
        <pt x="414" y="1208" on="0"/>
        <pt x="494" y="1264" on="0"/>
        <pt x="574" y="1317" on="0"/>
        <pt x="618" y="1341" on="1"/>
        <pt x="724" y="1399" on="0"/>
        <pt x="810" y="1399" on="0"/>
        <pt x="860" y="1380" on="0"/>
        <pt x="878" y="1363" on="1"/>
        <pt x="918" y="1327" on="0"/>
        <pt x="918" y="1269" on="1"/>
        <pt x="918" y="1169" on="0"/>
        <pt x="799" y="1086" on="1"/>
        <pt x="585" y="933" on="0"/>
      </contour>
      <contour>
        <pt x="678" y="1068" on="1"/>
        <pt x="692" y="1102" on="0"/>
        <pt x="692" y="1183" on="0"/>
        <pt x="635" y="1255" on="0"/>
        <pt x="586" y="1263" on="1"/>
        <pt x="574" y="1233" on="0"/>
        <pt x="574" y="1149" on="0"/>
        <pt x="627" y="1076" on="0"/>
      </contour>
    </TTGlyph>
    <TTGlyph name="dieresis" xMin="0" yMin="1244" xMax="801" yMax="1522">
      <contour>
        <pt x="801" y="1381" on="1"/>
        <pt x="575" y="1244" on="1"/>
        <pt x="456" y="1386" on="1"/>
        <pt x="682" y="1522" on="1"/>
      </contour>
      <contour>
        <pt x="345" y="1381" on="1"/>
        <pt x="119" y="1244" on="1"/>
        <pt x="0" y="1386" on="1"/>
        <pt x="226" y="1522" on="1"/>
      </contour>
    </TTGlyph>
    <TTGlyph name="divide" xMin="200" yMin="108" xMax="1148" yMax="1000">
      <contour>
        <pt x="890" y="833" on="1"/>
        <pt x="664" y="697" on="1"/>
        <pt x="598" y="864" on="1"/>
        <pt x="824" y="1000" on="1"/>
      </contour>
      <contour>
        <pt x="1148" y="615" on="1"/>
        <pt x="1124" y="609" on="0"/>
        <pt x="1014" y="526" on="0"/>
        <pt x="993" y="512" on="1"/>
        <pt x="944" y="479" on="0"/>
        <pt x="922" y="479" on="1"/>
        <pt x="200" y="479" on="1"/>
        <pt x="221" y="482" on="0"/>
        <pt x="334" y="568" on="0"/>
        <pt x="355" y="582" on="1"/>
        <pt x="404" y="615" on="0"/>
        <pt x="426" y="615" on="1"/>
      </contour>
      <contour>
        <pt x="753" y="244" on="1"/>
        <pt x="527" y="108" on="1"/>
        <pt x="461" y="275" on="1"/>
        <pt x="687" y="411" on="1"/>
      </contour>
    </TTGlyph>
    <TTGlyph name="dollar" xMin="145" yMin="-101" xMax="1272" yMax="1526">
      <contour>
        <pt x="655" y="276" on="1"/>
        <pt x="892" y="276" on="0"/>
        <pt x="892" y="464" on="1"/>
        <pt x="892" y="569" on="0"/>
        <pt x="724" y="620" on="1"/>
        <pt x="676" y="634" on="0"/>
        <pt x="577" y="661" on="0"/>
        <pt x="481" y="690" on="0"/>
        <pt x="444" y="712" on="1"/>
        <pt x="361" y="760" on="0"/>
        <pt x="361" y="837" on="1"/>
        <pt x="361" y="1004" on="0"/>
        <pt x="676" y="1182" on="1"/>
        <pt x="717" y="1206" on="0"/>
        <pt x="750" y="1222" on="1"/>
        <pt x="789" y="1390" on="1"/>
        <pt x="794" y="1411" on="0"/>
        <pt x="917" y="1471" on="0"/>
        <pt x="942" y="1483" on="1"/>
        <pt x="998" y="1511" on="0"/>
        <pt x="1015" y="1526" on="1"/>
        <pt x="959" y="1287" on="1"/>
        <pt x="973" y="1286" on="0"/>
        <pt x="986" y="1286" on="1"/>
        <pt x="1013" y="1286" on="1"/>
        <pt x="1069" y="1286" on="0"/>
        <pt x="1191" y="1258" on="0"/>
        <pt x="1216" y="1248" on="1"/>
        <pt x="1272" y="1225" on="0"/>
        <pt x="1272" y="1197" on="1"/>
        <pt x="1272" y="1147" on="0"/>
        <pt x="1158" y="1076" on="1"/>
        <pt x="1112" y="1047" on="0"/>
        <pt x="1025" y="1011" on="0"/>
        <pt x="1001" y="989" on="1"/>
        <pt x="1045" y="1033" on="0"/>
        <pt x="1045" y="1077" on="0"/>
        <pt x="1014" y="1102" on="0"/>
        <pt x="966" y="1122" on="0"/>
        <pt x="906" y="1137" on="0"/>
        <pt x="878" y="1142" on="1"/>
        <pt x="819" y="1151" on="0"/>
        <pt x="791" y="1151" on="1"/>
        <pt x="589" y="1151" on="0"/>
        <pt x="589" y="978" on="1"/>
        <pt x="589" y="864" on="0"/>
        <pt x="756" y="816" on="1"/>
        <pt x="803" y="803" on="0"/>
        <pt x="902" y="777" on="0"/>
        <pt x="997" y="749" on="0"/>
        <pt x="1034" y="727" on="1"/>
        <pt x="1117" y="679" on="0"/>
        <pt x="1117" y="593" on="1"/>
        <pt x="1117" y="452" on="0"/>
        <pt x="872" y="294" on="1"/>
        <pt x="782" y="235" on="0"/>
        <pt x="707" y="203" on="1"/>
        <pt x="668" y="35" on="1"/>
        <pt x="640" y="16" on="0"/>
        <pt x="613" y="-2" on="1"/>
        <pt x="549" y="-46" on="0"/>
        <pt x="468" y="-80" on="0"/>
        <pt x="442" y="-101" on="1"/>
        <pt x="497" y="138" on="1"/>
        <pt x="397" y="138" on="1"/>
        <pt x="282" y="138" on="0"/>
        <pt x="198" y="176" on="1"/>
        <pt x="145" y="199" on="0"/>
        <pt x="145" y="234" on="1"/>
        <pt x="145" y="289" on="0"/>
        <pt x="314" y="376" on="1"/>
        <pt x="392" y="417" on="0"/>
        <pt x="407" y="428" on="1"/>
        <pt x="369" y="401" on="0"/>
        <pt x="369" y="348" on="0"/>
        <pt x="403" y="318" on="0"/>
        <pt x="457" y="298" on="0"/>
        <pt x="523" y="285" on="0"/>
        <pt x="555" y="282" on="1"/>
        <pt x="605" y="276" on="0"/>
      </contour>
    </TTGlyph>
    <TTGlyph name="dotaccent" xMin="0" yMin="1244" xMax="345" yMax="1522">
      <contour>
        <pt x="345" y="1381" on="1"/>
        <pt x="119" y="1244" on="1"/>
        <pt x="0" y="1386" on="1"/>
        <pt x="226" y="1522" on="1"/>
      </contour>
    </TTGlyph>
    <TTGlyph name="dotlessi" xMin="201" yMin="-19" xMax="628" yMax="1006">
      <contour>
        <pt x="355" y="696" on="1"/>
        <pt x="355" y="769" on="0"/>
        <pt x="290" y="769" on="1"/>
        <pt x="260" y="769" on="0"/>
        <pt x="201" y="755" on="1"/>
        <pt x="502" y="948" on="0"/>
        <pt x="628" y="1006" on="1"/>
        <pt x="464" y="300" on="1"/>
        <pt x="458" y="274" on="0"/>
        <pt x="445" y="220" on="0"/>
        <pt x="445" y="193" on="1"/>
        <pt x="445" y="116" on="0"/>
        <pt x="557" y="116" on="1"/>
        <pt x="585" y="116" on="0"/>
        <pt x="622" y="123" on="1"/>
        <pt x="590" y="101" on="0"/>
        <pt x="522" y="51" on="0"/>
        <pt x="486" y="30" on="1"/>
        <pt x="402" y="-19" on="0"/>
        <pt x="333" y="-19" on="1"/>
        <pt x="251" y="-19" on="0"/>
        <pt x="231" y="25" on="1"/>
        <pt x="223" y="43" on="0"/>
        <pt x="223" y="66" on="1"/>
        <pt x="223" y="102" on="0"/>
        <pt x="232" y="140" on="1"/>
        <pt x="342" y="614" on="1"/>
        <pt x="355" y="666" on="0"/>
      </contour>
    </TTGlyph>
    <TTGlyph name="dotlessj" xMin="-275" yMin="-603" xMax="629" yMax="1006">
      <contour>
        <pt x="355" y="696" on="1"/>
        <pt x="355" y="769" on="0"/>
        <pt x="295" y="769" on="1"/>
        <pt x="266" y="769" on="0"/>
        <pt x="202" y="755" on="1"/>
        <pt x="343" y="849" on="0"/>
        <pt x="629" y="1006" on="1"/>
        <pt x="484" y="383" on="1"/>
        <pt x="462" y="289" on="0"/>
        <pt x="419" y="102" on="0"/>
        <pt x="375" y="-52" on="0"/>
        <pt x="310" y="-191" on="0"/>
        <pt x="220" y="-327" on="0"/>
        <pt x="110" y="-451" on="0"/>
        <pt x="48" y="-498" on="1"/>
        <pt x="-90" y="-603" on="0"/>
        <pt x="-221" y="-603" on="1"/>
        <pt x="-275" y="-603" on="0"/>
        <pt x="-275" y="-567" on="1"/>
        <pt x="-275" y="-522" on="0"/>
        <pt x="-166" y="-459" on="1"/>
        <pt x="-132" y="-439" on="0"/>
        <pt x="-30" y="-385" on="0"/>
        <pt x="-16" y="-375" on="1"/>
        <pt x="-51" y="-399" on="0"/>
        <pt x="-51" y="-425" on="1"/>
        <pt x="-51" y="-470" on="0"/>
        <pt x="-1" y="-467" on="1"/>
        <pt x="1" y="-467" on="1"/>
        <pt x="110" y="-335" on="0"/>
        <pt x="173" y="-108" on="1"/>
        <pt x="191" y="-43" on="0"/>
        <pt x="206" y="22" on="1"/>
        <pt x="341" y="604" on="1"/>
        <pt x="355" y="668" on="0"/>
      </contour>
    </TTGlyph>
    <TTGlyph name="e" xMin="153" yMin="-14" xMax="948" yMax="980">
      <contour>
        <pt x="948" y="868" on="1"/>
        <pt x="948" y="658" on="0"/>
        <pt x="377" y="373" on="1"/>
        <pt x="387" y="121" on="0"/>
        <pt x="640" y="121" on="1"/>
        <pt x="755" y="121" on="0"/>
        <pt x="878" y="185" on="1"/>
        <pt x="736" y="49" on="0"/>
        <pt x="522" y="1" on="1"/>
        <pt x="455" y="-14" on="0"/>
        <pt x="328" y="-14" on="0"/>
        <pt x="237" y="31" on="0"/>
        <pt x="208" y="69" on="1"/>
        <pt x="153" y="143" on="0"/>
        <pt x="153" y="346" on="0"/>
        <pt x="214" y="511" on="0"/>
        <pt x="317" y="669" on="0"/>
        <pt x="453" y="811" on="0"/>
        <pt x="530" y="864" on="1"/>
        <pt x="697" y="980" on="0"/>
        <pt x="839" y="980" on="1"/>
        <pt x="890" y="980" on="0"/>
        <pt x="948" y="917" on="0"/>
      </contour>
      <contour>
        <pt x="722" y="707" on="0"/>
        <pt x="722" y="772" on="0"/>
        <pt x="671" y="840" on="0"/>
        <pt x="579" y="840" on="0"/>
        <pt x="514" y="795" on="0"/>
        <pt x="462" y="723" on="0"/>
        <pt x="422" y="632" on="0"/>
        <pt x="408" y="586" on="1"/>
        <pt x="383" y="497" on="0"/>
        <pt x="378" y="421" on="1"/>
        <pt x="476" y="447" on="0"/>
        <pt x="601" y="561" on="1"/>
        <pt x="674" y="628" on="0"/>
      </contour>
    </TTGlyph>
    <TTGlyph name="eacute" xMin="152" yMin="-14" xMax="1029" yMax="1390">
      <component glyphName="e" x="-1" y="0" flags="0x1004"/>
      <component glyphName="acute" x="441" y="-313" flags="0x1004"/>
    </TTGlyph>
    <TTGlyph name="ebreve" xMin="153" yMin="-14" xMax="1129" yMax="1409">
      <component glyphName="e" x="0" y="0" flags="0x1204"/>
      <component glyphName="breve" x="330" y="-218" flags="0x1004"/>
    </TTGlyph>
    <TTGlyph name="ecaron" xMin="153" yMin="-14" xMax="1067" yMax="1347">
      <component glyphName="e" x="0" y="0" flags="0x1204"/>
      <component glyphName="caron" x="378" y="-281" flags="0x1004"/>
    </TTGlyph>
    <TTGlyph name="ecircumflex" xMin="153" yMin="-14" xMax="1130" yMax="1424">
      <component glyphName="e" x="0" y="0" flags="0x1004"/>
      <component glyphName="circumflex" x="433" y="-204" flags="0x1004"/>
    </TTGlyph>
    <TTGlyph name="edieresis" xMin="153" yMin="-14" xMax="1126" yMax="1350">
      <component glyphName="e" x="0" y="0" flags="0x1004"/>
      <component glyphName="dieresis" x="325" y="-172" flags="0x1004"/>
    </TTGlyph>
    <TTGlyph name="edotaccent" xMin="153" yMin="-14" xMax="948" yMax="1329">
      <component glyphName="e" x="0" y="0" flags="0x1204"/>
      <component glyphName="dotaccent" x="523" y="-193" flags="0x1004"/>
    </TTGlyph>
    <TTGlyph name="egrave" xMin="153" yMin="-14" xMax="948" yMax="1529">
      <component glyphName="e" x="0" y="0" flags="0x1004"/>
      <component glyphName="grave" x="383" y="-177" flags="0x1004"/>
    </TTGlyph>
    <TTGlyph name="eight" xMin="195" yMin="-37" xMax="1368" yMax="1469">
      <contour>
        <pt x="195" y="238" on="1"/>
        <pt x="195" y="500" on="0"/>
        <pt x="566" y="723" on="1"/>
        <pt x="499" y="758" on="0"/>
        <pt x="473" y="788" on="1"/>
        <pt x="426" y="844" on="0"/>
        <pt x="426" y="975" on="0"/>
        <pt x="496" y="1109" on="0"/>
        <pt x="611" y="1233" on="0"/>
        <pt x="759" y="1342" on="0"/>
        <pt x="836" y="1382" on="1"/>
        <pt x="1002" y="1469" on="0"/>
        <pt x="1124" y="1469" on="1"/>
        <pt x="1223" y="1469" on="0"/>
        <pt x="1292" y="1416" on="1"/>
        <pt x="1368" y="1356" on="0"/>
        <pt x="1368" y="1261" on="1"/>
        <pt x="1368" y="1105" on="0"/>
        <pt x="1141" y="899" on="1"/>
        <pt x="1066" y="831" on="0"/>
        <pt x="977" y="770" on="1"/>
        <pt x="1086" y="713" on="0"/>
        <pt x="1136" y="665" on="1"/>
        <pt x="1233" y="572" on="0"/>
        <pt x="1233" y="475" on="1"/>
        <pt x="1233" y="352" on="0"/>
        <pt x="1097" y="225" on="1"/>
        <pt x="978" y="114" on="0"/>
        <pt x="796" y="37" on="1"/>
        <pt x="622" y="-37" on="0"/>
        <pt x="493" y="-37" on="1"/>
        <pt x="363" y="-37" on="0"/>
        <pt x="282" y="34" on="1"/>
        <pt x="195" y="110" on="0"/>
      </contour>
      <contour>
        <pt x="1128" y="1032" on="1"/>
        <pt x="1146" y="1081" on="0"/>
        <pt x="1146" y="1180" on="0"/>
        <pt x="1101" y="1257" on="0"/>
        <pt x="1065" y="1282" on="1"/>
        <pt x="994" y="1331" on="0"/>
        <pt x="892" y="1331" on="1"/>
        <pt x="785" y="1331" on="0"/>
        <pt x="720" y="1256" on="1"/>
        <pt x="659" y="1186" on="0"/>
        <pt x="659" y="1078" on="1"/>
        <pt x="659" y="936" on="0"/>
        <pt x="856" y="832" on="1"/>
        <pt x="908" y="805" on="0"/>
        <pt x="952" y="783" on="1"/>
        <pt x="1078" y="897" on="0"/>
      </contour>
      <contour>
        <pt x="982" y="232" on="1"/>
        <pt x="1001" y="278" on="0"/>
        <pt x="1001" y="394" on="0"/>
        <pt x="962" y="479" on="0"/>
        <pt x="897" y="548" on="0"/>
        <pt x="813" y="605" on="0"/>
        <pt x="722" y="652" on="0"/>
        <pt x="631" y="692" on="0"/>
        <pt x="592" y="710" on="1"/>
        <pt x="476" y="616" on="0"/>
        <pt x="435" y="464" on="1"/>
        <pt x="422" y="416" on="0"/>
        <pt x="422" y="301" on="0"/>
        <pt x="473" y="200" on="0"/>
        <pt x="516" y="166" on="1"/>
        <pt x="601" y="99" on="0"/>
        <pt x="733" y="99" on="1"/>
        <pt x="925" y="99" on="0"/>
      </contour>
    </TTGlyph>
    <TTGlyph name="ellipsis" xMin="121" yMin="-30" xMax="1333" yMax="273">
      <contour>
        <pt x="413" y="106" on="1"/>
        <pt x="187" y="-30" on="1"/>
        <pt x="121" y="137" on="1"/>
        <pt x="347" y="273" on="1"/>
      </contour>
      <contour>
        <pt x="873" y="106" on="1"/>
        <pt x="647" y="-30" on="1"/>
        <pt x="581" y="137" on="1"/>
        <pt x="807" y="273" on="1"/>
      </contour>
      <contour>
        <pt x="1333" y="106" on="1"/>
        <pt x="1107" y="-30" on="1"/>
        <pt x="1041" y="137" on="1"/>
        <pt x="1267" y="273" on="1"/>
      </contour>
    </TTGlyph>
    <TTGlyph name="emacron" xMin="153" yMin="-14" xMax="1208" yMax="1216">
      <component glyphName="e" x="0" y="0" flags="0x1204"/>
      <component glyphName="macron" x="260" y="-247" flags="0x1004"/>
    </TTGlyph>
</ttFont>
